<svg xmlns:xlink="http://www.w3.org/1999/xlink" viewBox="-200 -200 1300 1000">
<title>W3C Membership Evolution</title>
<desc>
Shows the evolution of the W3C membership data over the years, broken down into the categories of total, full, and affiliate membership.
</desc>
<metadata>
<rdf:RDF xmlns:rdf="http://www.w3.org/1999/02/22-rdf-syntax-ns#" xmlns:axsvg="http://www.w3.org/2001/svgRdf/axsvg-schema.rdf#">
<rdf:Description rdf:about="#FullSlide">
<axsvg:Contains>
<rdf:Bag>
<rdf:li rdf:resource="#Legend"/>
<rdf:li rdf:resource="#Axes"/>
<rdf:li rdf:resource="#DataLines"/>
</rdf:Bag>
</axsvg:Contains>
<axsvg:GraphicsType>Chart</axsvg:GraphicsType>
<axsvg:ChartType>Line</axsvg:ChartType>
<axsvg:LabelledBy rdf:resource="#BottomLegend"/>
</rdf:Description>
<rdf:Description rdf:about="#Legend">
<axsvg:IsAnchor>true</axsvg:IsAnchor>
</rdf:Description>
<rdf:Description rdf:about="#Axes">
<axsvg:XLegend rdf:resource="#XAxisLabels"/>
<axsvg:YLegend rdf:resource="#YAxisLabels"/>
</rdf:Description>
<rdf:Description about="#DataLines">
<axsvg:Chart>
<rdf:Bag>
<rdf:li>
<rdf:Description>
<rdf:type rdf:resource="http://www.w3.org/2001/svgRdf/axsvg-resource.rdf#ChartDescription"/>
<axsvg:DataCategory>Total Members</axsvg:DataCategory>
<axsvg:DataValues rdf:resource="#totalMemberLine"/>
</rdf:Description>
</rdf:li>
<rdf:li>
<rdf:Description>
<rdf:type rdf:resource="http://www.w3.org/2001/svgRdf/axsvg-resource.rdf#ChartDescription"/>
<axsvg:DataCategory>Full Members</axsvg:DataCategory>
<axsvg:DataValues rdf:resource="#fullMemberLine"/>
</rdf:Description>
</rdf:li>
<rdf:li>
<rdf:Description>
<rdf:type rdf:resource="http://www.w3.org/2001/svgRdf/axsvg-resource.rdf#ChartDescription"/>
<axsvg:DataCategory>Affiliate Members</axsvg:DataCategory>
<axsvg:DataValues rdf:resource="#affMemberLine"/>
</rdf:Description>
</rdf:li>
</rdf:Bag>
</axsvg:Chart>
</rdf:Description>
</rdf:RDF>
</metadata>
<style type="text/css">
<![CDATA[
path.axis, line.axis {fill: none; stroke: black } path.axisV, line.axisV {fill: none; stroke: black; opacity:0.3; } text,tspan {font-family: verdana, trebuchet, "Helvetica narrow", arial, helvetica, sans-serif; } text.YAxis {font-size:18; text-anchor:end;} text.XAxis, textPath.XAxis {font-size:18;writing-mode:tb} text.Legend {font-size:18;} text.BottomLegend {font-size:30; text-anchor:middle;} path {shape-rendering:geometricPrecision} path.fullMembers {stroke-width:2; fill: none; stroke: red } path.affMembers {stroke-width:2; fill: none; stroke: blue } path.totalMembers {stroke-width:2; fill: none; stroke: green } g.fullMembers {fill:red; stroke: black} g.affMembers {fill:blue; stroke: black} g.totalMembers {fill:green; stroke: black}
]]>
</style>
<defs>
<rect width="10" height="10" x="-5" y="-5" id="DataPoint"/>
<g id="totalPoint" class="totalMembers">
<use xlink:href="#DataPoint"/>
</g>
<g id="fullPoint" class="fullMembers">
<use xlink:href="#DataPoint"/>
</g>
<g id="affPoint" class="affMembers">
<use xlink:href="#DataPoint"/>
</g>
<g id="W3CLogo" transform="matrix(1 0 0 -1 0 0)">
<svg width="90" height="51" viewBox="0 0 90 51">
<path d="M74.5,.2l0.8,5.1l-3,5.6c0,0-1.13-2.39-3-3.7c-1.6-1.1-2.6-1.4-4.2-1c-2.1,0.4-4.4,2.9-5.4,5.9c-1.2,3.6-1.2,5.4-1.3,7c-0.07,2.6,0.3,4.14,0.3,4.1s-1.8-3.3-1.8-8.1c0.01-3.5,0.6-6.6,2.2-9.7c1.41-2.7,3.5-4.4,5.4-4.5c1.9-0.2,3.4,0.7,4.6,1.7c1.2,1,2.5,3.3,2.5,3.4z"/>
<path d="M74.9,28.8c0,0-1.3,2.3-2.1,3.2c-.8.9-2.3,2.5-4.1,3.3c-1.8.8-2.7.9-4.5,0.8c-1.8-.2-3.4-1.2-4-1.6s-2-1.7-2.9-2.9c-.8-1.2-2.1-3.5-2.1-3.5s.7,2.4,1.2,3.3c.3.6,1.1,2.3,2.2,3.9c1.1,1.4,3.1,3.9,6.3,4.4c3.1,.6,5.3-.9,5.8-1.2c.5-.3,1.7-1.3,2.4-2.1c.7-.8,1.4-1.8,1.8-2.4c.3-.4,0.7-1.3.7-1.3z"/>
<path style="fill:#0C479D" d="M20.7,0.43l7.1,24.1l7.1-24.1h5.1l-11.7,39.6h-.5l-7.35-24.5l-7.35,24.5h-.5l-11.7-39.6h5.1l7.1,24.1l4.8-16.2l-2.3-7.9z"/>
<path style="fill:#0C479D" d="M54.6,27.3c0,3.6-1,6.6-2.9,9c-1.9,2.4-4.4,3.7-7.4,3.7c-2.3,0-4.3-0.7-5.9-2.2c-1.7-1.4-2.9-3.4-3.8-5.9l4-1.7c.6,1.5,1.4,2.7,2.3,3.5c1,.9,2.1,1.3,3.4,1.3c1.4,0,2.5-.8,3.5-2.3c.9-1.5,1.4-3.4,1.4-5.5c0-2.4-.5-4.2-1.5-5.5c-1.2-1.5-3-2.3-5.5-2.3h-2v-2.3l6.8-11.8h-8.2l-2.3,3.9h-1.5v-8.7h19.1v2.4l-7.2,12.5c2.5.8,4.5,2.3,5.8,4.4c1.3,2.1,2,4.7,1.9,7.5z"/>
<text x="78" y="10" style="font-size:13">®</text>
</svg>
</g>
</defs>
<!--
 The default Y direction in SVG is down, but it is much more natural to get those data
       onto the screen by Y direction going up. The transformation flips the coordinate system.
       Note that as a disagreeable side-effect, all texts should be 'flipped' first before
       moving them anywhere, because the default direction for Y on a character is 'up'...
  
-->
<g transform="translate(0,300) matrix(1 0 0 -1 0 0) translate(0,-300)" id="FullSlide">
<use xlink:href="#W3CLogo" transform="translate(730,700)"/>
<text id="BottomLegend" class="BottomLegend" transform="translate(400,-150) matrix(1 0 0 -1 0 0)">W3C Membership evolution 1994-2001</text>
<a xlink:href="http://www.w3.org/Systems/db/">
<desc>Link to the W3C Membership database</desc>
<g id="Legend">
<desc>
A legend for the three categories shown on the figure, namely all, full, and affiliate members.
</desc>
<g id="LegendTotal" transform="translate(50,700)">
<path class="totalMembers" d="M0,0 h150"/>
<use transform="translate(75,0)" xlink:href="#totalPoint"/>
<text class="Legend" transform="translate(180,-5) matrix(1 0 0 -1 0 0)">All Members</text>
</g>
<g id="LegendFull" transform="translate(50,680)">
<path class="fullMembers" d="M0,0 h150"/>
<use transform="translate(75,0)" xlink:href="#fullPoint"/>
<text class="Legend" transform="translate(180,-5) matrix(1 0 0 -1 0 0)">Full Members</text>
</g>
<g id="LegendAff" transform="translate(50,660)">
<path class="affMembers" d="M0,0 h150"/>
<use transform="translate(75,0)" xlink:href="#affPoint"/>
<text class="Legend" transform="translate(180,-5) matrix(1 0 0 -1 0 0)">Affiliate Members</text>
</g>
</g>
</a>
<g id="Axes">
<desc>
is the collection of the X and Y axes. The X axis has a data ticks for every half year; the Y axis for 100, 200, etc.
</desc>
<g id="XAxis">
<line class="axis" x1="-100" y1="0" x2="900" y2="0"/>
<path class="axis" d="M50,-10 v20 m50,-20 v20 m50,-20 v20 m50,-20 v20 m50,-20 v20 m50,-20 v20 m50,-20 v20 m50,-20 v20 m50,-20 v20 m50,-20 v20 m50,-20 v20 m50,-20 v20 m50,-20 v20 m50,-20 v20 m50,-20 v20 m50,-20 v20 "/>
<path class="axisV" d="M50,0 v600 m50,-600 v600 m50,-600 v600 m50,-600 v600 m50,-600 v600 m50,-600 v600 m50,-600 v600 m50,-600 v600 m50,-600 v600 m50,-600 v600 m50,-600 v600 m50,-600 v600 m50,-600 v600 m50,-600 v600 m50,-600 v600 m50,-600 v600"/>
<g id="XAxisLabels">
<text class="XAxis" transform="translate(50,-30) matrix(1 0 0 -1 0 0)">Dec '95</text>
<text class="XAxis" transform="translate(100,-30) matrix(1 0 0 -1 0 0)">Jan '96</text>
<text class="XAxis" transform="translate(150,-30) matrix(1 0 0 -1 0 0)">June '96</text>
<text class="XAxis" transform="translate(200,-30) matrix(1 0 0 -1 0 0)">Jan '97</text>
<text class="XAxis" transform="translate(250,-30) matrix(1 0 0 -1 0 0)">June '97</text>
<text class="XAxis" transform="translate(300,-30) matrix(1 0 0 -1 0 0)">Jan '98</text>
<text class="XAxis" transform="translate(350,-30) matrix(1 0 0 -1 0 0)">June '98</text>
<text class="XAxis" transform="translate(400,-30) matrix(1 0 0 -1 0 0)">Nov '98</text>
<text class="XAxis" transform="translate(450,-30) matrix(1 0 0 -1 0 0)">May '99</text>
<text class="XAxis" transform="translate(500,-30) matrix(1 0 0 -1 0 0)">Nov '99</text>
<text class="XAxis" transform="translate(550,-30) matrix(1 0 0 -1 0 0)">May '00</text>
<text class="XAxis" transform="translate(600,-30) matrix(1 0 0 -1 0 0)">Nov '00</text>
<text class="XAxis" transform="translate(650,-30) matrix(1 0 0 -1 0 0)">Apr '01</text>
<text class="XAxis" transform="translate(700,-30) matrix(1 0 0 -1 0 0)">Nov '01</text>
<text class="XAxis" transform="translate(750,-30) matrix(1 0 0 -1 0 0)">May '02</text>
<text class="XAxis" transform="translate(800,-30) matrix(1 0 0 -1 0 0)">June '02</text>
</g>
</g>
<g id="YAxis">
<line class="axis" x1="0" y1="-100" x2="0" y2="700"/>
<path class="axis" d="M-10,100 h20 m-20,100 h20 m-20,100 h20 m-20,100 h20 m-20,100 h20 m-20,100 h20 "/>
<g id="YAxisLabels">
<text class="YAxis" transform="translate(-20,100) matrix(1 0 0 -1 0 0)">100</text>
<text class="YAxis" transform="translate(-20,200) matrix(1 0 0 -1 0 0)">200</text>
<text class="YAxis" transform="translate(-20,300) matrix(1 0 0 -1 0 0)">300</text>
<text class="YAxis" transform="translate(-20,400) matrix(1 0 0 -1 0 0)">400</text>
<text class="YAxis" transform="translate(-20,500) matrix(1 0 0 -1 0 0)">500</text>
<text class="YAxis" transform="translate(-20,600) matrix(1 0 0 -1 0 0)">600</text>
</g>
</g>
</g>
<g id="DataLines">
<desc>
Contains the three datalines: one for total, full, and affiliate members, respectively.
</desc>
<!--
 Adding new membership data, as time goes by, is easy: you extend the curve and datapoint
           groups by adding the same pattern with new coordinates. The X direction must be increased
           by 50; the Y direction is the membership datum proper.
      
-->
<path id="totalMemberLine" class="totalMembers" d="M0 50 L50,108 L100,117 L150,152 L200,158 L250,179 L300,231 L350,264 L400,293 L450,329 L500,363 L550,419 L600,478 L650,509">
<desc>
50,108,117,152,158,179,231,264,293,329,363,419,478,509
</desc>
</path>
<g id="totalMemberPoints">
<use transform="translate(50,108)" xlink:href="#totalPoint"/>
<use transform="translate(100,117)" xlink:href="#totalPoint"/>
<use transform="translate(150,152)" xlink:href="#totalPoint"/>
<use transform="translate(200,158)" xlink:href="#totalPoint"/>
<use transform="translate(250,179)" xlink:href="#totalPoint"/>
<use transform="translate(300,231)" xlink:href="#totalPoint"/>
<use transform="translate(350,264)" xlink:href="#totalPoint"/>
<use transform="translate(400,293)" xlink:href="#totalPoint"/>
<use transform="translate(450,329)" xlink:href="#totalPoint"/>
<use transform="translate(500,363)" xlink:href="#totalPoint"/>
<use transform="translate(550,419)" xlink:href="#totalPoint"/>
<use transform="translate(600,478)" xlink:href="#totalPoint"/>
<use transform="translate(650,509)" xlink:href="#totalPoint"/>
</g>
<path id="fullMemberLine" class="fullMembers" d="M0 20 L50,50 L100,54 L150,58 L200,64 L250,70 L300,78 L350,85 L400,87 L450,89 L500,90 L550,96 L600,106 L650,103">
<desc>20,50,54,58,64,70,78,85,87,89,90,96,106,103</desc>
</path>
<g id="fullMemberPoints">
<use transform="translate(100,54)" xlink:href="#fullPoint"/>
<use transform="translate(200,64)" xlink:href="#fullPoint"/>
<use transform="translate(250,70)" xlink:href="#fullPoint"/>
<use transform="translate(300,78)" xlink:href="#fullPoint"/>
<use transform="translate(350,85)" xlink:href="#fullPoint"/>
<use transform="translate(400,87)" xlink:href="#fullPoint"/>
<use transform="translate(450,89)" xlink:href="#fullPoint"/>
<use transform="translate(500,90)" xlink:href="#fullPoint"/>
<use transform="translate(550,96)" xlink:href="#fullPoint"/>
<use transform="translate(600,106)" xlink:href="#fullPoint"/>
<use transform="translate(650,103)" xlink:href="#fullPoint"/>
</g>
<path id="affMemberLine" class="affMembers" d="M0 30 L50,58 L100,63 L150,80 L200,94 L250,109 L300,153 L350,179 L400,206 L450,240 L500,273 L550,323 L600,372 L650,406">
<desc>30,58,63,80,94,109,153,179,206,240,273,323,372,406</desc>
</path>
<g id="affMemberPoints">
<use transform="translate(100,63)" xlink:href="#affPoint"/>
<use transform="translate(200,94)" xlink:href="#affPoint"/>
<use transform="translate(250,109)" xlink:href="#affPoint"/>
<use transform="translate(300,153)" xlink:href="#affPoint"/>
<use transform="translate(350,179)" xlink:href="#affPoint"/>
<use transform="translate(400,206)" xlink:href="#affPoint"/>
<use transform="translate(450,240)" xlink:href="#affPoint"/>
<use transform="translate(500,273)" xlink:href="#affPoint"/>
<use transform="translate(550,323)" xlink:href="#affPoint"/>
<use transform="translate(600,372)" xlink:href="#affPoint"/>
<use transform="translate(650,406)" xlink:href="#affPoint"/>
</g>
</g>
</g>
</svg>