<svg xmlns="http://www.w3.org/2000/svg"
     xmlns:xlink="http://www.w3.org/1999/xlink"
     width="100%" height="100%" viewBox="0 0 375 165">

   <title>My old car</title>
   <desc>Simple drawing of a light blue compact car, side view, facing left</desc>
    
    <g id="car">
      <title>Car</title>
      
      <path id="car_body" fill="cornflowerblue" stroke="black" d="M 23,119 C 20,118 19,115 19,99 19,88 20,82 21,81 22,80 32,78 69,72 L 116,64 138,41 161,19 226,19 291,19 321,42 C 337,55 352,67 353,68 355,71 355,71 355,93 355,120 356,119 346,119 L 339,119 337,113 C 335,105 333,102 327,96 319,89 315,87 304,87 294,87 289,89 282,96 277,100 271,110 271,115 271,120 275,120 189,119 L 108,119 106,113 C 104,105 102,102 96,96 89,89 84,87 74,87 64,87 59,89 52,95 46,100 40,110 40,115 40,116 40,118 39,118 38,120 26,120 23,119 z M 219,70 C 221,69 221,65 221,51 221,39 221,32 220,31 219,29 218,29 190,29 L 161,29 144,45 C 130,59 126,63 126,65 126,71 127,71 174,71 200,71 218,70 219,70 z M 307,68 C 308,66 309,64 309,62 309,60 307,57 294,44 L 279,29 255,29 C 242,29 231,29 230,29 229,30 228,32 228,49 228,63 229,69 230,69 231,70 239,71 268,70 L 304,70 307,68 z">
        <title>Car body</title>
      </path>

      <g id="tires">
        <title>Tires</title>

        <g id="tires">
          <title>Front wheel</title>
          
          <circle id="front_wheel" cx="73" cy="121" r="25" fill="#171b1c" stroke="#191d1e">
            <title>Front tire</title>
          </circle>

          <circle id="front_wheel_hub" cx="73" cy="121" r="7" fill="silver" stroke="black">
            <title>Front hubcap</title>
          </circle>
        </g> 

        <g id="tires">
          <title>Back wheel</title>
          
          <circle id="back_wheel" cx="303" cy="121" r="25" fill="#171b1c" stroke="#191d1e">
            <title>Back tire</title>
          </circle>

          <circle id="back_wheel_hub" cx="303" cy="121" r="7" fill="silver" stroke="black">
            <title>Back hubcap</title>
          </circle>    
        </g> 

      </g> 
    </g>
    
</svg>

