<?xml version="1.0" standalone="no"?>
<!DOCTYPE svg PUBLIC "-//W3C//DTD SVG 1.1//EN" "http://www.w3.org/Graphics/SVG/1.1/DTD/svg11.dtd" >
<svg>
<metadata>
Created by FontForge 20090914 at Tue Aug 27 09:53:09 2013
 By www-data
Copyright (c) 2011, Dario Manuel Muhafara (http://www.tipo.net.ar), with Reserved Font Name "Overlock".
</metadata>
<defs>
<font id="Overlock-Regular" horiz-adv-x="535" >
  <font-face 
    font-family="Overlock"
    font-weight="400"
    font-stretch="normal"
    units-per-em="1000"
    panose-1="2 0 5 6 3 0 0 2 0 4"
    ascent="800"
    descent="-200"
    x-height="468.001"
    cap-height="665.998"
    bbox="-134.999 -253.002 1074 899"
    underline-thickness="20"
    underline-position="-113"
    unicode-range="U+0020-U+FB06"
  />
<missing-glyph horiz-adv-x="230" 
 />
    <glyph glyph-name=".notdef" horiz-adv-x="230" 
 />
    <glyph glyph-name="space" unicode=" " horiz-adv-x="230" 
 />
    <glyph glyph-name="exclam" unicode="!" horiz-adv-x="311" 
d="M161 -10c-16.667 0 -31 6 -43 18s-18 27 -18 45s6 33.167 18 45.5s26.333 18.5 43 18.5s30.834 -6.16699 42.501 -18.5s17.5 -27.5 17.5 -45.5s-5.83301 -33 -17.5 -45s-25.834 -18 -42.501 -18zM119 350c0 168 -5.99902 277.331 -17.999 327.998
c23.333 4.66699 40.666 7 51.999 7c31.333 0 47 -16.333 47 -49c0 -18.667 -3 -56.167 -9 -112.5s-9 -108.5 -9 -156.5v-44c0 -53.333 5.33301 -94.666 16 -123.999c-13.333 -6.66699 -25.666 -10 -36.999 -10c-26.667 0 -40.334 16 -41.001 48
c-0.666992 8.66699 -1 46.334 -1 113.001z" />
    <glyph glyph-name="quotedbl" unicode="&#x22;" horiz-adv-x="345" 
d="M57 637c-4.66699 34 -7 55.667 -7 65s4.5 17.5 13.5 24.5s19.833 10.5 32.5 10.5s23 -3.66699 31 -11s12 -22 12 -44s-6.33301 -74.667 -19 -158c-2.66699 -16 -6.66699 -27.167 -12 -33.5s-12.5 -9.5 -21.5 -9.5s-17.5 1.33301 -25.5 4c2 12 3 31.833 3 59.5
s-2.33301 58.5 -7 92.5zM223 637c-4.66699 34 -7 55.667 -7 65s4.5 17.5 13.5 24.5s19.833 10.5 32.5 10.5s23 -3.66699 31 -11s12 -22 12 -44s-6.33301 -74.667 -19 -158c-2.66699 -16 -6.66699 -27.167 -12 -33.5s-12.5 -9.5 -21.5 -9.5s-17.5 1.33301 -25.5 4
c2 12 3 31.833 3 59.5s-2.33301 58.5 -7 92.5z" />
    <glyph glyph-name="numbersign" unicode="#" 
d="M206 272c62 0 101.666 0.333008 118.999 1c4 24 9 62.667 15 116c-17.333 0.666992 -45.666 1 -84.999 1h-31c-8.66699 -48.667 -14.667 -88 -18 -118zM489.499 218c-7 -3.33301 -14.835 -4.99805 -23.502 -4.99805s-43 1.66699 -103 5
c-6.66699 -58 -10 -94.667 -10 -110s1.33301 -35 4 -59c-9.33301 -5.33301 -20 -8 -32 -8c-20 0 -30 11 -30 33c0 10 7 58.667 21 146c-17.333 0.666992 -45.666 1 -84.999 1h-32c-7.33301 -66 -11 -105.167 -11 -117.5s1.33301 -30.5 4 -54.5
c-9.33301 -5.33301 -20 -8 -32 -8c-20 0 -30 11 -30 33c0 10 7 58.667 21 146c-55.333 -2.66699 -100 -8.66699 -134 -18c-2 6.66699 -3 17.334 -3 32.001c0 26.667 19.167 40 57.5 40s67.833 -0.333008 88.5 -1l15 116c-55.333 -2.66699 -100 -8.66699 -134 -18
c-2 6.66699 -3 17.667 -3 33c0 26.667 21 40 63 40l81 -1c10 73.333 16 129 18 167c9.33301 2 18.333 3 27 3c20.667 0 31 -10.667 31 -32c0 -4.66699 -8.33301 -51 -25 -139h114c0.666992 6 3.66699 31.5 9 76.5s8.33301 75.5 9 91.5c9.33301 2 18.333 3 27 3
c20.667 0 31 -10.667 31 -32c0 -1.33301 -8 -47 -24 -137c78.667 3.33301 124 5.33301 136 6c-0.666992 -14.667 -1.5 -25.834 -2.5 -33.501s-5.33301 -15.334 -13 -23.001s-16.5 -11.5 -26.5 -11.5s-45 1.66699 -105 5c-6 -36 -11.667 -74 -17 -114
c60.667 2.66699 107.334 5 140.001 7c-1.33301 -20.667 -3.5 -35.334 -6.5 -44.001s-8 -14.667 -15 -18z" />
    <glyph glyph-name="dollar" unicode="$" 
d="M237 385v224.999c-27.333 -3.33301 -49.5 -14.166 -66.5 -32.499s-25.5 -43.5 -25.5 -75.5s7.83301 -56.5 23.5 -73.5s38.5 -31.5 68.5 -43.5zM276 289.999v-241c32.667 2 59.5 13.333 80.5 34s31.5 49.334 31.5 86.001s-9.5 63.167 -28.5 79.5
s-46.833 30.166 -83.5 41.499zM392 531.999c-9.33301 20 -24.6699 36.998 -46.0029 50.998s-44.666 22.667 -69.999 26v-238c69.333 -19.333 117.333 -43 144 -71s40 -67.167 40 -117.5s-16.5 -94.166 -49.5 -131.499s-77.5 -57.333 -133.5 -60
c1.33301 -29.333 2.66602 -51.666 3.99902 -66.999l-15 -2c-19.333 0 -29 9 -29 27v41c-46.667 1.33301 -87.667 11 -123 29s-53 39 -53 63c0 13.333 3.83301 23.5 11.5 30.5s19.5 14.5 35.5 22.5c10 -21.333 27 -39.5 51 -54.5s50 -24.833 78 -29.5v250
c-25.333 8 -45.666 15.5 -60.999 22.5s-32 17.5 -50 31.5c-35.333 27.333 -53 73 -53 137c0 50 15.167 90 45.5 120s69.5 48.333 117.5 55c-1.33301 31.333 -2.66602 54.333 -3.99902 69c6.66699 2 12.334 3 17.001 3c18 0 27 -9 27 -27v-41c42 0 80.667 -8.16699 116 -24.5
s53 -38.5 53 -66.5c0 -25.333 -17.667 -41.333 -53 -48z" />
    <glyph glyph-name="percent" unicode="%" horiz-adv-x="752" 
d="M663.5 35c-25.667 -30 -60.334 -45 -104.001 -45s-78.334 15 -104.001 45s-38.5 70.5 -38.5 121.5s12.833 91.333 38.5 121s60.334 44.5 104.001 44.5s78.334 -15 104.001 -45s38.5 -70.333 38.5 -121s-12.833 -91 -38.5 -121zM615 71
c14 20.667 20.999 46.833 20.999 78.5s-6.66699 60.167 -20 85.5s-31.666 38 -54.999 38s-42.5 -10 -57.5 -30s-22.5 -45.833 -22.5 -77.5s6.83301 -60.5 20.5 -86.5s32.5 -39 56.5 -39s43 10.333 57 31zM150.999 24.999l296.001 467
c50.667 80.667 90.667 147.334 120 200.001c11.333 -0.666992 21.666 -4 30.999 -10s14 -12.833 14 -20.5s-2.33301 -15.167 -7 -22.5l-296 -468c-47.333 -74.667 -87.333 -141.334 -120 -200.001c-28.667 6 -44 16 -46 30c0 8 2.66699 16 8 24zM296.5 377.999
c-25.667 -30 -60.334 -45 -104.001 -45s-78.334 15 -104.001 45s-38.5 70.5 -38.5 121.5s12.833 91.333 38.5 121s60.334 44.5 104.001 44.5s78.334 -15 104.001 -45s38.5 -70.333 38.5 -121s-12.833 -91 -38.5 -121zM248 413.999c14 20.667 20.999 46.833 20.999 78.5
s-6.66699 60.167 -20 85.5s-31.666 38 -54.999 38s-42.5 -10 -57.5 -30s-22.5 -45.833 -22.5 -77.5s6.83301 -60.5 20.5 -86.5s32.5 -39 56.5 -39s43 10.333 57 31z" />
    <glyph glyph-name="ampersand" unicode="&#x26;" horiz-adv-x="616" 
d="M316 472.5c12.667 19.667 19 41.001 19 64.001s-7 42.833 -21 59.5s-35.333 25 -64 25c-62.667 0 -94 -31.333 -94 -94c0 -29.333 19.667 -77.333 59 -144c26 17.333 46.167 31.666 60.5 42.999s27.833 26.833 40.5 46.5zM189 299.001
c-42.667 -36 -64 -74.832 -64 -116.499s14 -74.834 42 -99.501s62.833 -37 104.5 -37s77.167 10.667 106.5 32c-68.667 65.333 -131.667 139 -189 221zM158 346.002c-47.333 70.667 -70.9951 128.833 -70.9951 174.5s16.167 82.5 48.5 110.5s72.333 42 120 42
s84.5 -12.5 110.5 -37.5s39 -54.833 39 -89.5c0 -21.333 -4.33301 -42.166 -13 -62.499s-18.167 -37 -28.5 -50s-24.833 -26.833 -43.5 -41.5c-20.667 -16.667 -46.334 -34.334 -77.001 -53.001c57.333 -83.333 117.333 -151.666 180 -204.999c12 26 18 54.5 18 85.5
s-3 53.167 -9 66.5c14.667 8 26.667 12 36 12c28.667 0 43 -19.667 43 -59c0 -54.667 -13 -102 -39 -142c41.333 -27.333 78.666 -41 111.999 -41c1.33301 -6.66699 2 -14.834 2 -24.501s-4 -19 -12 -28s-20.333 -13.5 -37 -13.5c-32.667 0 -71.334 17 -116.001 51
c-44.667 -34 -96.334 -51 -155.001 -51s-109.334 16 -152.001 48s-64 76.333 -64 133c0 38.667 9.5 71.5 28.5 98.5s45.5 52.5 79.5 76.5z" />
    <glyph glyph-name="quotesingle" unicode="'" horiz-adv-x="239" 
d="M67 637c-4.66699 34 -7 55.667 -7 65s4.5 17.5 13.5 24.5s19.833 10.5 32.5 10.5s23 -3.66699 31 -11s12 -22 12 -44s-6.33301 -74.667 -19 -158c-2.66699 -16 -6.66699 -27.167 -12 -33.5s-12.5 -9.5 -21.5 -9.5s-17.5 1.33301 -25.5 4c2 12 3 31.833 3 59.5
s-2.33301 58.5 -7 92.5z" />
    <glyph glyph-name="parenleft" unicode="(" horiz-adv-x="343" 
d="M110.5 89.5c-13.667 59.667 -20.502 117.832 -20.502 174.499s6.83301 114.334 20.5 173.001s29.834 108.834 48.501 150.501s38 76 58 103s36.167 40.5 48.5 40.5s23.833 -7.66699 34.5 -23c-41.333 -46.667 -74.666 -111.5 -99.999 -194.5s-38 -167.5 -38 -253.5
s13 -169.333 39 -250s59 -144 99 -190c-10.667 -15.333 -22 -23 -34 -23s-27.833 13.167 -47.5 39.5s-39.167 60.166 -58.5 101.499s-35.833 91.833 -49.5 151.5z" />
    <glyph glyph-name="parenright" unicode=")" horiz-adv-x="320" 
d="M209.5 437c13.667 -58.667 20.498 -116.332 20.498 -172.999s-6.83301 -114.834 -20.5 -174.501s-30.167 -110.167 -49.5 -151.5s-38.833 -75.166 -58.5 -101.499s-35.5 -39.5 -47.5 -39.5s-23.333 7.66699 -34 23c40 46 73 109.333 99 190s39 164 39 250
s-12.667 170.5 -38 253.5s-58.666 147.833 -99.999 194.5c10.667 15.333 22.167 23 34.5 23s28.5 -13.5 48.5 -40.5s39.333 -61.333 58 -103s34.834 -91.834 48.501 -150.501z" />
    <glyph glyph-name="asterisk" unicode="*" horiz-adv-x="406" 
d="M201 530c-10.667 -14.667 -36 -56.332 -76 -124.999c-12.667 4.66699 -24.167 11.667 -34.5 21s-15.5 18.833 -15.5 28.5s4.83301 20 14.5 31s22.667 24.333 39 40l31.5 30.5c-21.333 9.33301 -63 24.666 -125 45.999c2.66699 15.333 8 29.166 16 41.499
s16.667 18.5 26 18.5s17.666 -1.83301 24.999 -5.5s19.833 -11.5 37.5 -23.5l37.5 -25c-1.33301 18 -6.33301 61.333 -15 130c11.333 3.33301 22 5 32 5c31.333 0 47 -13 47 -39c0 -6.66699 -4.33301 -39.667 -13 -99c13.333 8.66699 48 33.334 104 74.001
c19.333 -16.667 29 -34.667 29 -54c0 -14 -7.66699 -25 -23 -33c-18.667 -10 -50.334 -23 -95.001 -39c14.667 -15.333 49.334 -47 104.001 -95c-15.333 -27.333 -33.666 -41 -54.999 -41c-8.66699 0 -17 4.5 -25 13.5s-19.5 25.5 -34.5 49.5z" />
    <glyph glyph-name="plus" unicode="+" 
d="M303 445l-6.99902 -164.996c78.667 0 141 2.66699 187 8c2 -6 3 -15.5 3 -28.5s-3.33301 -23.5 -10 -31.5s-15.334 -12 -26.001 -12l-155 7c0 -72.667 2.66699 -138.334 8 -197.001c-10 -2 -20.333 -3 -31 -3s-20.167 3.16699 -28.5 9.5s-12.5 15.166 -12.5 26.499l7 165
c-66 -0.666992 -128 -3.33398 -186 -8.00098c-2 10 -3 20.167 -3 30.5s3 19.833 9 28.5s15 13 27 13l154 -7c0 85.333 -2.66699 151 -8 197c6 2 15.5 3 28.5 3s23.5 -3.33301 31.5 -10s12 -15.334 12 -26.001z" />
    <glyph glyph-name="comma" unicode="," horiz-adv-x="227" 
d="M107 -22c0 32.667 -16.333 52.3311 -49 58.998c-6.66699 10.667 -10 22.334 -10 35.001s5.66699 23.834 17 33.501s25.333 14.5 42 14.5s31.167 -7.66699 43.5 -23s18.5 -41.5 18.5 -78.5s-11.5 -73.167 -34.5 -108.5s-50.167 -53 -81.5 -53c-17.333 0 -26 10 -26 30
c0 5.33301 0.333008 9.33301 1 12h5c21.333 0 39 8 53 24s21 34.333 21 55z" />
    <glyph glyph-name="hyphen" unicode="-" horiz-adv-x="230" 
d="M61 294l83 -4c31.333 0 57.333 2.33301 78 7c2 -6 3 -15.333 3 -28s-3.33301 -22.667 -10 -30s-15.334 -11 -26.001 -11l-77 5c-31.333 0 -59.333 -2.66699 -84 -8c-2 10 -3 20.167 -3 30.5s2.83301 19.333 8.5 27s14.834 11.5 27.501 11.5z" />
    <glyph glyph-name="period" unicode="." horiz-adv-x="231" 
d="M111 -10c-16.667 0 -31 6 -43 18s-18 27 -18 45s6 33.167 18 45.5s26.333 18.5 43 18.5s30.834 -6.16699 42.501 -18.5s17.5 -27.5 17.5 -45.5s-5.83301 -33 -17.5 -45s-25.834 -18 -42.501 -18z" />
    <glyph glyph-name="slash" unicode="/" horiz-adv-x="258" 
d="M129 113c-14.667 -97.333 -24.667 -174.666 -30 -231.999c-8.66699 -2 -16.667 -3 -24 -3c-22 0 -33 9.33301 -33 28c0 4.66699 31.333 205 94 601c14.667 97.333 24.667 174.666 30 231.999l21 3c24 0 36 -9 36 -27z" />
    <glyph glyph-name="zero" unicode="0" 
d="M267 -10c-72.667 0 -130.334 30.833 -173.001 92.5s-64 144.667 -64 249s21.333 187.333 64 249s100.334 92.5 173.001 92.5s130.5 -30.833 173.5 -92.5s64.5 -144.5 64.5 -248.5s-21.5 -187 -64.5 -249s-100.833 -93 -173.5 -93zM428 314
c0 108 -23.999 192.001 -71.999 252.001c-24.667 32 -54.334 48 -89.001 48c-46.667 0 -85.334 -24.333 -116.001 -73s-46 -108.334 -46 -179.001c0 -114.667 23.667 -202.667 71 -264c25.333 -32.667 55.333 -49 90 -49c48.667 0 87.834 25.333 117.501 76
s44.5 113.667 44.5 189z" />
    <glyph glyph-name="one" unicode="1" 
d="M245 57l2.00098 297c0 94 -1 178 -3 252c-72 -7.33301 -113.667 -12 -125 -14c-2 8 -3 15.333 -3 22c0 25.333 13 39.666 39 42.999c71.333 10.667 113 16 125 16c28.667 0 43 -12.667 43 -38c0 -5.33301 -0.666992 -24.666 -2 -57.999c-4 -100 -6 -188.667 -6 -266v-62
c0 -87.333 2.33301 -152.333 7 -195c46 0 80.667 1.33301 104 4c2.66699 -8 4 -15.333 4 -22c0 -25.333 -13 -38 -39 -38l-160 2c-50.667 0 -86.334 -0.333008 -107.001 -1c-3.33301 10 -5 18 -5 24c0 22.667 19.333 34 58 34h68z" />
    <glyph glyph-name="two" unicode="2" 
d="M95 528c-25.333 3.33301 -38.001 14.334 -38.001 33.001c0 26 20.833 51.167 62.5 75.5s87.667 36.5 138 36.5s94.333 -16 132 -48s56.5 -77 56.5 -135c0 -34.667 -5.33301 -66.667 -16 -96s-30.167 -61.333 -58.5 -96s-60.5 -68.834 -96.5 -102.501
s-86.667 -77.834 -152 -132.501c22.667 -1.33301 60.667 -2 114 -2s96.333 1.66699 129 5s65.334 11 98.001 23c9.33301 -16.667 14 -32.167 14 -46.5s-8.33301 -24.5 -25 -30.5c-25.333 -9.33301 -82.833 -14 -172.5 -14s-154.167 0.666992 -193.5 2
c-30.667 0 -46 15.667 -46 47c0 6 0.333008 10.333 1 13c136 126 224.833 214 266.5 264s62.5 97.833 62.5 143.5s-12 81.334 -36 107.001s-51.667 38.5 -83 38.5s-61 -7.83301 -89 -23.5s-50.667 -36.167 -68 -61.5z" />
    <glyph glyph-name="three" unicode="3" 
d="M325 364c48.667 -21.333 82.001 -46.001 100.001 -74.001s27 -61.333 27 -100c0 -54 -21 -100.833 -63 -140.5s-99.667 -59.5 -173 -59.5c-50 0 -87.667 6.33301 -113 19s-38 27 -38 43c0 21.333 12.333 33.666 37 36.999c22.667 -26.667 60.167 -40 112.5 -40
s92.166 13.833 119.499 41.5s41 60.167 41 97.5s-16 69.666 -48 96.999s-76.333 41 -133 41c-10 0 -17.333 0.666992 -22 2c-11.333 2 -17 13 -17 33c0 5.33301 0.333008 10 1 14c66 0 115.5 13.167 148.5 39.5s49.5 55.666 49.5 87.999s-9.66699 59 -29 80
s-42.833 31.5 -70.5 31.5s-53.167 -6.66699 -76.5 -20s-42.333 -32.666 -57 -57.999c-12.667 0 -23 3.33301 -31 10s-12 14.334 -12 23.001c0 23.333 18.333 46.5 55 69.5s80.167 34.5 130.5 34.5s90.833 -15.167 121.5 -45.5s46 -66.5 46 -108.5
c0 -31.333 -8.83301 -60.666 -26.5 -87.999s-44.167 -49.666 -79.5 -66.999z" />
    <glyph glyph-name="four" unicode="4" 
d="M115 273c34.667 -2 71.167 -3 109.5 -3s75.5 1 111.5 3c0 90 1 192 3 306c-28 -30.667 -63.333 -75.167 -106 -133.5s-82 -115.833 -118 -172.5zM331 661c9.33301 8 22.332 12 38.999 12s31 -0.666992 43 -2c0 -2 -1 -16.667 -3 -44c-4 -71.333 -6 -158.666 -6 -261.999
v-89c49.333 4 82 9.66699 98 17c5.33301 -12 8 -26.333 8 -43s-7.16699 -27.5 -21.5 -32.5s-42.166 -7.83301 -83.499 -8.5c0 -98.667 6.33301 -169 19 -211c-12 -5.33301 -26.667 -8 -44 -8s-29.333 4.33301 -36 13s-10 25 -10 49s0.666992 76 2 156
c-141.333 0 -231 2.33301 -269 7c-15.333 2 -23 15.667 -23 41c0 9.33301 0.666992 18.666 2 27.999c28.667 49.333 76 118 142 206s113.667 145 143 171z" />
    <glyph glyph-name="five" unicode="5" 
d="M432 636c0 -29.333 -25.832 -43.998 -77.499 -43.998s-113.5 2 -185.5 6l-14 -175c25.333 4 49 6 71 6c73.333 0 128.833 -18.833 166.5 -56.5s56.5 -88.5 56.5 -152.5s-21 -118.333 -63 -163s-100 -67 -174 -67c-50 0 -87.667 6.33301 -113 19s-38 27 -38 43
c0 21.333 12.333 33.666 37 36.999c22.667 -26.667 60.167 -40 112.5 -40s92.333 16.167 120 48.5s41.5 70.166 41.5 113.499s-16 81 -48 113s-75.667 48 -131 48c-28.667 0 -56.334 -1.66699 -83.001 -5c-6.66699 6.66699 -10 18.667 -10 36s4.33301 104.333 13 261
c19.333 -1.33301 69 -2 149 -2s133.333 2.66699 160 8c6.66699 -10 10 -21.333 10 -34z" />
    <glyph glyph-name="six" unicode="6" 
d="M363.5 294.5c-24.333 26.333 -57.667 39.501 -100 39.501s-85.5 -20 -129.5 -60c2 -108.667 25.333 -177.334 70 -206.001c19.333 -12.667 43 -19 71 -19c39.333 0 70 13.833 92 41.5s33 62 33 103s-12.167 74.667 -36.5 101zM266.999 -9.99902
c-39.333 0 -73.001 7.99902 -101.001 23.999s-49.333 38 -64 66c-28.667 52.667 -43 117.667 -43 195c0 102.667 27.333 193.667 82 273c26 37.333 59.667 67.5 101 90.5s86.666 34.5 135.999 34.5c27.333 0 41 -11.667 41 -35c0 -7.33301 -1.33301 -17 -4 -29
c-18.667 2.66699 -32 4 -40 4c-71.333 0 -127.666 -27.333 -168.999 -82s-65 -121.667 -71 -201c47.333 40.667 98 61 152 61s99.167 -17 135.5 -51s54.5 -79.167 54.5 -135.5s-19.167 -106.166 -57.5 -149.499s-89.166 -65 -152.499 -65z" />
    <glyph glyph-name="seven" unicode="7" 
d="M411 597c-102 -3.33301 -196.004 -4.99609 -282.004 -4.99609c-50.667 0 -76 14.667 -76 44c0 9.33301 3.33301 20.666 10 33.999c32.667 -5.33301 70 -8 112 -8c168 0 269 0.666992 303 2c5.33301 -10.667 8 -22.834 8 -36.501s-2 -26.5 -6 -38.5
c-21.333 -66.667 -110.333 -243.334 -267 -530.001c-13.333 -24.667 -25.166 -42.334 -35.499 -53.001s-21.166 -16 -32.499 -16c-19.333 0 -40.666 13 -63.999 39c56.667 59.333 118.834 149.5 186.501 270.5s115.5 220.167 143.5 297.5z" />
    <glyph glyph-name="eight" unicode="8" 
d="M278 398c65.333 28 97.999 71.333 97.999 130c0 27.333 -11.167 48.5 -33.5 63.5s-49.166 22.5 -80.499 22.5s-58 -7.5 -80 -22.5s-33 -36.167 -33 -63.5c0 -52 43 -95.333 129 -130zM162.499 86.5c25 -25 58.332 -37.499 99.999 -37.499s74.834 12.5 99.501 37.5
s37 55.667 37 92s-12.333 66.166 -37 89.499s-63 46.333 -115 69c-40.667 -18 -71.167 -39.5 -91.5 -64.5s-30.5 -56 -30.5 -93s12.5 -68 37.5 -93zM262.998 -9.99902c-68 0 -120.499 17.666 -157.499 52.999s-55.5 77.833 -55.5 127.5s12.5 89.334 37.5 119.001
s59.833 54.167 104.5 73.5c-40 22 -69.333 45.333 -88 70s-28 57.667 -28 99s18.167 75.166 54.5 101.499s80.166 39.5 131.499 39.5s95.333 -13.167 132 -39.5s55 -60.5 55 -102.5c0 -72 -40.333 -125 -121 -159c49.333 -23.333 86.333 -50.166 111 -80.499
s37 -70.5 37 -120.5s-18.5 -92.667 -55.5 -128s-89.5 -53 -157.5 -53z" />
    <glyph glyph-name="nine" unicode="9" 
d="M157.5 369.5c24.333 -26.333 57.667 -39.501 100 -39.501s85.5 20 129.5 60c-2 108.667 -25.667 177.334 -71 206.001c-18.667 12.667 -42 19 -70 19c-39.333 0 -70 -13.833 -92 -41.5s-33 -62 -33 -103s12.167 -74.667 36.5 -101zM254.001 673.999
c39.333 0 73.001 -7.99902 101.001 -23.999s49.667 -38 65 -66c28 -52.667 42 -117.667 42 -195c0 -102.667 -27.333 -193.667 -82 -273c-26 -37.333 -59.667 -67.5 -101 -90.5s-86.666 -34.5 -135.999 -34.5c-27.333 0 -41 11.667 -41 35c0 7.33301 1.33301 17 4 29
c18.667 -2.66699 32 -4 40 -4c71.333 0 127.666 27.333 168.999 82s65 121.667 71 201c-47.333 -40.667 -98 -61 -152 -61s-99.167 17 -135.5 51s-54.5 79.167 -54.5 135.5s19.167 106.166 57.5 149.499s89.166 65 152.499 65z" />
    <glyph glyph-name="colon" unicode=":" horiz-adv-x="231" 
d="M111 -10c-16.667 0 -31 6 -43 18s-18 27 -18 45s6 33.167 18 45.5s26.333 18.5 43 18.5s30.834 -6.16699 42.501 -18.5s17.5 -27.5 17.5 -45.5s-5.83301 -33 -17.5 -45s-25.834 -18 -42.501 -18zM111 351c-16.667 0 -31 6 -43 18s-18 27 -18 45s6 33.167 18 45.5
s26.333 18.5 43 18.5s30.834 -6.16699 42.501 -18.5s17.5 -27.5 17.5 -45.5s-5.83301 -33 -17.5 -45s-25.834 -18 -42.501 -18z" />
    <glyph glyph-name="semicolon" unicode=";" horiz-adv-x="246" 
d="M108 351c-16.667 0 -31 6 -43 18s-18 27 -18 45s6 33.167 18 45.5s26.333 18.5 43 18.5s30.834 -6.16699 42.501 -18.5s17.5 -27.5 17.5 -45.5s-5.83301 -33 -17.5 -45s-25.834 -18 -42.501 -18zM107 -22c0 32.667 -16.333 52.3311 -49 58.998
c-6.66699 10.667 -10 22.334 -10 35.001s5.66699 23.834 17 33.501s25.333 14.5 42 14.5s31.167 -7.66699 43.5 -23s18.5 -41.5 18.5 -78.5s-11.5 -73.167 -34.5 -108.5s-50.167 -53 -81.5 -53c-17.333 0 -26 10 -26 30c0 5.33301 0.333008 9.33301 1 12h5
c21.333 0 39 8 53 24s21 34.333 21 55z" />
    <glyph glyph-name="less" unicode="&#x3c;" 
d="M399 438l-217.001 -187c24.667 -24.667 97 -91 217 -199c-12 -22.667 -28.333 -34 -49 -34c-9.33301 0 -17.666 3.66699 -24.999 11l-219 222l219 210c8.66699 7.33301 17.5 11 26.5 11s18 -3.5 27 -10.5s15.833 -14.833 20.5 -23.5z" />
    <glyph glyph-name="equal" unicode="=" 
d="M430 116l-155.999 8c-76 0 -143.333 -2.66699 -202 -8c-2 10 -3 20.167 -3 30.5s3 19.833 9 28.5s15 13 27 13c2 0 23 -1.16699 63 -3.5s89 -3.5 147 -3.5s107.333 2.33301 148 7c2 -6 3 -15.5 3 -28.5s-3.33301 -23.5 -10 -31.5s-15.334 -12 -26.001 -12zM430.001 316
l-155.999 8c-76 0 -143.333 -2.66699 -202 -8c-2 10 -3 20.167 -3 30.5s3 19.833 9 28.5s15 13 27 13c2 0 23 -1.16699 63 -3.5s89 -3.5 147 -3.5s107.333 2.33301 148 7c2 -6 3 -15.5 3 -28.5s-3.33301 -23.5 -10 -31.5s-15.334 -12 -26.001 -12z" />
    <glyph glyph-name="greater" unicode="&#x3e;" 
d="M337 251l-217.001 187c4.66699 8.66699 11.5 16.5 20.5 23.5s18 10.5 27 10.5s17.833 -3.66699 26.5 -11l219 -210l-219 -222c-7.33301 -7.33301 -15.666 -11 -24.999 -11c-20.667 0 -37 11.333 -49 34c120 108 192.333 174.333 217 199z" />
    <glyph glyph-name="question" unicode="?" horiz-adv-x="382" 
d="M219 199c-14 -6.66699 -26.667 -10.0029 -38 -10.0029c-30.667 0 -46 22.667 -46 68c0 40 18 80.333 54 121l45 50c36 40.667 54 82.334 54 125.001c0 28 -11.667 49 -35 63c-14 8 -32.333 12 -55 12s-45.5 -6.83301 -68.5 -20.5s-37.5 -31.834 -43.5 -54.501
c-30.667 4.66699 -46 19.334 -46 44.001c0 26.667 14.667 47.834 44 63.501s65.5 23.5 108.5 23.5s79.5 -9 109.5 -27c40 -23.333 60 -58.666 60 -105.999c0 -30 -5.33301 -57 -16 -81s-23.5 -43.667 -38.5 -59s-30.167 -30 -45.5 -44c-36 -34 -54 -69 -54 -105
c0 -20 3.66699 -41 11 -63zM182 -10.0029c-16.667 0 -31 6 -43 18s-18 27 -18 45s6 33.167 18 45.5s26.333 18.5 43 18.5s30.834 -6.16699 42.501 -18.5s17.5 -27.5 17.5 -45.5s-5.83301 -33 -17.5 -45s-25.834 -18 -42.501 -18z" />
    <glyph glyph-name="at" unicode="@" horiz-adv-x="861" 
d="M363 54c-32.667 0 -59.3311 12.166 -79.998 36.499s-31 59.5 -31 105.5c0 68 17.667 126.167 53 174.5s80.5 72.5 135.5 72.5s103.5 -15.333 145.5 -46c-24.667 -98.667 -37 -173.667 -37 -225c0 -36.667 13.167 -55 39.5 -55s51.666 17.667 75.999 53
s36.5 85.333 36.5 150s-18.5 116.5 -55.5 155.5s-93.833 58.5 -170.5 58.5c-62 0 -118 -18.167 -168 -54.5s-87.5 -81 -112.5 -134s-37.5 -110 -37.5 -171s19.5 -113.333 58.5 -157s96.5 -65.5 172.5 -65.5c36.667 0 70.167 7.33301 100.5 22s50.833 34 61.5 58
c28.667 -12 43 -28 43 -48c0 -26 -20.167 -48 -60.5 -66s-87.5 -27 -141.5 -27c-98.667 0 -173.667 27.667 -225 83s-77 124 -77 206c0 48.667 9.33301 97 28 145s44.5 91.833 77.5 131.5s75.333 71.834 127 96.501s107.834 37 168.501 37c86 0 154.333 -23.833 205 -71.5
s76 -108 76 -181s-21.833 -136 -65.5 -189s-87.834 -79.5 -132.501 -79.5s-73.334 25.667 -86.001 77c-34 -61.333 -75.333 -92 -124 -92zM481.003 203.999c2.66699 17.333 6.16797 44.332 10.501 80.999l8.5 71c-22.667 18.667 -47.834 28 -75.501 28
s-51.667 -15.333 -72 -46s-30.5 -71 -30.5 -121c0 -29.333 5 -53.666 15 -72.999s23.667 -29 41 -29s35.333 7.66699 54 23s35 37.333 49 66z" />
    <glyph glyph-name="A" unicode="A" horiz-adv-x="551" 
d="M388 268c-22.667 59.333 -56.999 159.667 -102.999 301c-6 -15.333 -21.333 -58 -46 -128s-46.334 -127.667 -65.001 -173c52 -1.33301 95.667 -2 131 -2s63 0.666992 83 2zM409.001 209.001c-74.667 -1.33301 -120.001 -2 -136.001 -2s-57.333 0.666992 -124 2
c-44.667 -112.667 -72.667 -189.334 -84 -230.001c-22 4.66699 -37.5 10 -46.5 16s-13.5 13.5 -13.5 22.5s14.333 46.833 43 113.5c96 226 162.333 402.333 199 529c12.667 2 27 3 43 3s27.333 -2.83301 34 -8.5s13.667 -20.5 21 -44.5
c42 -135.333 84.167 -258.166 126.5 -368.499s74.833 -187.5 97.5 -231.5c-18.667 -13.333 -34.667 -20 -48 -20c-21.333 0 -35.666 9 -42.999 27c-12.667 32.667 -35.667 96.667 -69 192z" />
    <glyph glyph-name="B" unicode="B" horiz-adv-x="547" 
d="M224 612c-16 0 -38.666 -1.33301 -67.999 -4c2.66699 -56 4 -131 4 -225c21.333 -1.33301 39.666 -2 54.999 -2c124 0 186 38 186 114c0 78 -59 117 -177 117zM272.001 51c43.333 0 79.667 12.168 109 36.501s44 58.666 44 102.999s-16.5 78.833 -49.5 103.5
s-72.333 37 -118 37s-78.5 -1.66699 -98.5 -5c0 -53.333 -4.33301 -133 -13 -239c12.667 -10 31.167 -18.5 55.5 -25.5s47.833 -10.5 70.5 -10.5zM69.002 53.001c10.667 76 16.001 181.666 16.001 316.999s-4.33301 232.333 -13 291c49.333 8 106.333 12 171 12
s120 -13.333 166 -40s69 -72 69 -136s-29 -109 -87 -135c74 -31.333 111 -88.333 111 -171c0 -63.333 -20.5 -112.666 -61.5 -147.999s-91.167 -53 -150.5 -53c-96.667 0 -170.334 21 -221.001 63z" />
    <glyph glyph-name="C" unicode="C" horiz-adv-x="602" 
d="M514 134c29.333 -12 44 -29.1641 44 -51.4971s-19 -43.333 -57 -63s-85 -29.5 -141 -29.5c-94 0 -169.333 31.5 -226 94.5s-85 146.667 -85 251s28.333 186.666 85 246.999s133.334 90.5 230.001 90.5c52 0 95.667 -10.5 131 -31.5s53 -46.833 53 -77.5
c0 -27.333 -19 -44 -57 -50c-12.667 32.667 -32.667 57.167 -60 73.5s-56.333 24.5 -87 24.5c-62.667 0 -113.834 -24.833 -153.501 -74.5s-59.5 -114.334 -59.5 -194.001s20 -148.334 60 -206.001s96 -86.5 168 -86.5c32 0 61.833 7 89.5 21s49.5 34.667 65.5 62z" />
    <glyph glyph-name="D" unicode="D" horiz-adv-x="635" 
d="M66 53c9.33301 60.667 14.335 160.999 15.002 300.999s-3.33301 242.333 -12 307c40 8 88.833 12 146.5 12s107.167 -5.66699 148.5 -17s79.166 -29.5 113.499 -54.5s61 -60.167 80 -105.5s28.5 -99.666 28.5 -162.999c0 -100 -26.667 -182.167 -80 -246.5
s-127.333 -96.5 -222 -96.5s-167.334 21 -218.001 63zM153.002 607.999c2.66699 -46 3.99805 -121.668 3.99805 -227.001s-4.66699 -203.333 -14 -294c36 -24 77.667 -36 125 -36s86.333 8 117 24s54.334 37.667 71.001 65c30.667 50.667 46 108.334 46 173.001
c0 99.333 -24.667 174 -74 224s-119.666 75 -210.999 75c-14.667 0 -36 -1.33301 -64 -4z" />
    <glyph glyph-name="E" unicode="E" horiz-adv-x="486" 
d="M78 57l2.00195 166.999v200c0 95.333 -4.66699 173 -14 233c71.333 6 149.5 9 234.5 9s133.5 -5 145.5 -15c6 -5.33301 9 -15 9 -29s-2.66699 -27.667 -8 -41c-38 14 -100 21 -186 21c-35.333 0 -72 -1 -110 -3c2.66699 -29.333 4 -100 4 -212h79c56 0 96 1.33301 120 4
c2.66699 -5.33301 4 -14.833 4 -28.5s-3.5 -23.167 -10.5 -28.5s-18.667 -8.33301 -35 -9s-39.5 -1 -69.5 -1h-88c0 -145.333 2.33301 -232.666 7 -261.999c29.333 -1.33301 53 -2 71 -2c112 0 183.667 7.66699 215 23c5.33301 -13.333 8 -27 8 -41s-3 -23.667 -9 -29
c-12 -10 -63.333 -15 -154 -15s-145.834 0.5 -165.501 1.5s-32.834 5.83301 -39.501 14.5s-10 23 -10 43z" />
    <glyph glyph-name="F" unicode="F" horiz-adv-x="455" 
d="M78 54l2.00098 176.999v193c0 95.333 -4.66699 173 -14 233c71.333 6 149.5 9 234.5 9s133.5 -5 145.5 -15c6 -5.33301 9 -15 9 -29s-2.66699 -27.667 -8 -41c-38 14 -100 21 -186 21c-35.333 0 -72 -1 -110 -3c2.66699 -29.333 4 -69 4 -119v-103h79
c55.333 0 95.333 1.33301 120 4c2.66699 -5.33301 4 -15.833 4 -31.5s-5.33301 -25.5 -16 -29.5s-35.334 -6 -74.001 -6h-113v-111c0 -90 6.33301 -156 19 -198c-12 -5.33301 -27.667 -8 -47 -8s-32.333 4.33301 -39 13s-10 23.334 -10 44.001z" />
    <glyph glyph-name="G" unicode="G" horiz-adv-x="615" 
d="M558 85c0 -24 -19.001 -45.8291 -57.001 -65.4961s-85 -29.5 -141 -29.5c-94 0 -169.333 31.5 -226 94.5s-85 146.667 -85 251s28.333 186.666 85 246.999s133.334 90.5 230.001 90.5c52 0 95.667 -10.5 131 -31.5s53 -46.833 53 -77.5c0 -27.333 -19 -44 -57 -50
c-12.667 32.667 -32.667 57.167 -60 73.5s-56.333 24.5 -87 24.5c-62.667 0 -113.834 -24.833 -153.501 -74.5s-59.5 -114.334 -59.5 -194.001s20 -148.334 60 -206.001s95.667 -86.5 167 -86.5c53.333 0 96.333 16 129 48
c-1.33301 83.333 -3.66602 150.666 -6.99902 201.999c11.333 2 23.333 3 36 3c32.667 0 49 -12.667 49 -38l-3 -64c-2.66699 -42.667 -4 -81.667 -4 -117z" />
    <glyph glyph-name="H" unicode="H" horiz-adv-x="627" 
d="M71 54l2 176.996v200c0 94 -2.33301 171.333 -7 232c11.333 2 25 3 41 3c32.667 0 49 -12.667 49 -38c0 -3.33301 -0.666992 -16.666 -2 -39.999c-4 -71.333 -6 -137 -6 -197c32 -1.33301 85.167 -2 159.5 -2s127.5 0.666992 159.5 2v51c-0.666992 96 -3 169.667 -7 221
c11.333 2 25 3 41 3c32.667 0 49 -12.667 49 -38c0 -4 -0.666992 -17.333 -2 -40c-4 -69.333 -6 -130.666 -6 -183.999v-201c0 -90 6.33301 -156 19 -198c-12 -5.33301 -27.667 -8 -47 -8s-32.333 4.33301 -39 13s-10 23.334 -10 44.001l2 177v101
c-34 -1.33301 -87.667 -2 -161 -2s-126 0.666992 -158 2v-129c0 -90 6.33301 -156 19 -198c-12 -5.33301 -27.667 -8 -47 -8s-32.333 4.33301 -39 13s-10 23.334 -10 44.001z" />
    <glyph glyph-name="I" unicode="I" horiz-adv-x="221" 
d="M71 54l2 176.998v200c0 94 -2.33301 171.333 -7 232c11.333 2 25 3 41 3c32.667 0 49 -12.667 49 -38c0 -4 -0.666992 -17.333 -2 -40c-4 -69.333 -6 -130.666 -6 -183.999v-201c0 -90 6.33301 -156 19 -198c-12 -5.33301 -27.667 -8 -47 -8s-32.333 4.33301 -39 13
s-10 23.334 -10 44.001z" />
    <glyph glyph-name="J" unicode="J" horiz-adv-x="222" 
d="M74 136l-0.999023 294.999c0 94 -2.33301 171.333 -7 232c11.333 2 25 3 41 3c32.667 0 49 -12.667 49 -38c0 -3.33301 -0.666992 -15.666 -2 -36.999c-4 -64 -6 -120.667 -6 -170v-310c0 -36.667 -4 -69.334 -12 -98.001s-17.833 -51 -29.5 -67s-24.5 -29.333 -38.5 -40
c-24 -16.667 -45.667 -25 -65 -25c-24.667 0 -38.334 19 -41.001 57c38.667 8 67.667 22 87 42c14 14.667 22 44.334 24 89.001c0.666992 14.667 1 37 1 67z" />
    <glyph glyph-name="K" unicode="K" horiz-adv-x="515" 
d="M71 54l2.00195 176.998v200c0 94 -2.33301 171.333 -7 232c13.333 2 24.666 3 33.999 3c37.333 0 56 -12.667 56 -38c0 -3.33301 -0.666992 -17.666 -2 -42.999c-4 -76 -6 -146.333 -6 -211c57.333 46 113.333 96.833 168 152.5s88 101.5 100 137.5
c34.667 -6 52 -18.667 52 -38s-23.333 -53.666 -70 -102.999s-101.334 -100.333 -164.001 -153c74 -123.333 135 -214.333 183 -273c8 -10 14.333 -17 19 -21c14.667 -14 32 -21 52 -21c8 0 15.667 1 23 3c2.66699 -9.33301 4 -19.333 4 -30s-5.66699 -19.667 -17 -27
s-25.333 -11 -42 -11c-28.667 0 -58.667 17 -90 51c-28 30 -55 64.667 -81 104l-71 109l-42 65l-24 -18v-98c0 -90 6.33301 -156 19 -198c-10.667 -5.33301 -26 -8 -46 -8s-33.333 4.5 -40 13.5s-10 23.5 -10 43.5z" />
    <glyph glyph-name="L" unicode="L" horiz-adv-x="429" 
d="M71 57l1.99902 166.999v207c0 94 -2.33301 171.333 -7 232c11.333 2 25 3 41 3c32.667 0 49 -12.667 49 -38c0 -4 -0.666992 -17.333 -2 -40c-4 -69.333 -6 -130.666 -6 -183.999v-90c0 -138.667 2.33301 -222.667 7 -252c28 -1.33301 50 -2 66 -2
c104 0 171 7.66699 201 23c4.66699 -14 7 -27.833 7 -41.5s-3 -23.167 -9 -28.5c-11.333 -10 -59.666 -15 -144.999 -15s-137.5 0.5 -156.5 1.5s-31.667 5.83301 -38 14.5s-9.5 23 -9.5 43z" />
    <glyph glyph-name="M" unicode="M" horiz-adv-x="797" 
d="M83 54l2 176.995v252c0 74.667 -6.33301 133.334 -19 176.001c21.333 5.33301 40.666 8 57.999 8c28 0 51.667 -16 71 -48c26 -45.333 52.333 -100.666 79 -165.999s47.5 -120.5 62.5 -165.5l63.5 -195.5c20.667 82.667 48.5 172 83.5 268s74.167 182.333 117.5 259
c18 32 42.333 48 73 48c22.667 0 41.334 -2.66699 56.001 -8c-12 -40 -18 -114.333 -18 -223v-233c0 -90 6.33301 -156 19 -198c-12 -5.33301 -27.667 -8 -47 -8s-32.333 4.33301 -39 13s-10 19.334 -10 32.001s0.333008 40 1 82c0.666992 126 1 270.667 1 434
c-61.333 -123.333 -128.333 -308.666 -201 -555.999c-8 -2.66699 -17 -4 -27 -4c-26 0 -42.667 8.66699 -50 26c-16 36 -46.167 116.167 -90.5 240.5s-83.833 221.5 -118.5 291.5v-353c0 -90 6.33301 -156 19 -198c-12 -5.33301 -26 -8 -42 -8s-27.333 4.33301 -34 13
s-10 23.334 -10 44.001z" />
    <glyph glyph-name="N" unicode="N" horiz-adv-x="629" 
d="M485 119c-4 48 -6 131.997 -6 251.997v60c0 94 -2.33301 171.333 -7 232c11.333 2 21.666 3 30.999 3c32.667 0 49 -12.667 49 -38c0 -4 -0.666992 -17.333 -2 -40c-4 -69.333 -6 -130.666 -6 -183.999v-171c0 -94 2.33301 -171.333 7 -232
c-10.667 -2.66699 -21.667 -4 -33 -4c-22.667 0 -40 9 -52 27c-27.333 42 -74.666 122.5 -141.999 241.5s-125 214.5 -173 286.5c-0.666992 -25.333 -1 -141.666 -1 -348.999c0 -90 6.33301 -156 19 -198c-12 -5.33301 -26 -8 -42 -8s-27.333 4.33301 -34 13
s-10 23.334 -10 44.001l2 177v200c0 111.333 -6.33301 187.333 -19 228c12.667 5.33301 27 8 43 8s27.667 -2.33301 35 -7c28.667 -17.333 79.667 -86.833 153 -208.5s136 -232.5 188 -332.5z" />
    <glyph glyph-name="O" unicode="O" horiz-adv-x="712" 
d="M579.5 83c-55.667 -62 -130.334 -93 -224.001 -93s-168.167 31 -223.5 93s-83 145 -83 249s27.667 186.833 83 248.5s129.833 92.5 223.5 92.5s168.334 -30.833 224.001 -92.5s83.5 -144.5 83.5 -248.5s-27.833 -187 -83.5 -249zM529 515
c-16.667 29.333 -40 52.832 -70 70.499s-64.333 26.5 -103 26.5c-68.667 0 -123.334 -23.5 -164.001 -70.5s-61 -106.833 -61 -179.5c0 -79.333 16.667 -149.666 50 -210.999c16.667 -30.667 39.834 -55 69.501 -73s64.167 -27 103.5 -27c72 0 127.5 24.167 166.5 72.5
s58.5 111 58.5 188s-16.667 144.833 -50 203.5z" />
    <glyph glyph-name="P" unicode="P" horiz-adv-x="504" 
d="M154 329c29.333 -16.667 64.668 -24.999 106.001 -24.999s74.833 13.167 100.5 39.5s38.5 61.833 38.5 106.5c0 61.333 -14.333 103.666 -43 126.999s-73.334 35 -134.001 35c-17.333 0 -41.333 -1.33301 -72 -4c2.66699 -38.667 4 -106.667 4 -204v-75zM77.002 54.001
l2.00195 176.999v200c0 92 -4.33301 168.667 -13 230c49.333 8 99 12 149 12c178.667 0 268 -72 268 -216c0 -69.333 -20.833 -122.333 -62.5 -159s-88.334 -55 -140.001 -55s-93.834 10.667 -126.501 32v-72c0 -90 6.33301 -156 19 -198c-12 -5.33301 -27.667 -8 -47 -8
s-32.333 4.33301 -39 13s-10 23.334 -10 44.001z" />
    <glyph glyph-name="Q" unicode="Q" horiz-adv-x="712" 
d="M529 515c-16.667 29.333 -40 52.832 -70 70.499s-64.333 26.5 -103 26.5c-68.667 0 -123.334 -23.5 -164.001 -70.5s-61 -106.833 -61 -179.5c0 -79.333 16.667 -149.666 50 -210.999c16.667 -30.667 39.834 -55 69.501 -73s64.167 -27 103.5 -27
c72 0 127.5 24.167 166.5 72.5s58.5 111 58.5 188s-16.667 144.833 -50 203.5zM325 -9.00098c-84.667 6.66699 -151.833 40.5 -201.5 101.5s-74.5 142.167 -74.5 243.5s27.667 182.833 83 244.5s129.833 92.5 223.5 92.5s168.334 -30.833 224.001 -92.5s83.5 -143 83.5 -244
s-24.833 -181.833 -74.5 -242.5s-116.834 -94.667 -201.501 -102c8 -29.333 22.167 -51.333 42.5 -66s44 -22 71 -22s47.5 2.66699 61.5 8s30.333 15.333 49 30c6.66699 -4 13.167 -11 19.5 -21s9.5 -18.333 9.5 -25c0 -16.667 -13.5 -29.667 -40.5 -39s-57.5 -14 -91.5 -14
c-48.667 0 -89.167 13.333 -121.5 40s-52.833 62.667 -61.5 108z" />
    <glyph glyph-name="R" unicode="R" horiz-adv-x="530" 
d="M77 54l2 177.001v200c0 92 -4.33301 168.667 -13 230c49.333 8 99 12 149 12c178.667 0 268 -66.333 268 -199c0 -54.667 -15 -98.834 -45 -132.501s-69.667 -55.167 -119 -64.5c0 -0.666992 5.66699 -13 17 -37s19.166 -40 23.499 -48l20.5 -39
c17.333 -33.333 32.333 -56.333 45 -69c17.333 -19.333 38.666 -29 63.999 -29c8 0 17 1 27 3c6 -12 9 -22 9 -30c0 -25.333 -25 -38 -75 -38c-27.333 0 -52.666 13.333 -75.999 40l-32.5 39c-9 11.333 -20 29 -33 53l-27.5 51.5c-5.33301 10.333 -14.333 29.333 -27 57
s-20 43.5 -22 47.5c-18.667 2.66699 -28 10 -28 22c0 6 1.66699 15 5 27c18.667 -3.33301 34.334 -5 47.001 -5c44.667 0 79.667 13.167 105 39.5s38 64.166 38 113.499s-14 84.5 -42 105.5s-71 31.5 -129 31.5c-21.333 0 -47.333 -1.33301 -78 -4
c2.66699 -38.667 4 -106.667 4 -204v-201c0 -90 6.33301 -156 19 -198c-12 -5.33301 -27.667 -8 -47 -8s-32.333 4.33301 -39 13s-10 23.334 -10 44.001z" />
    <glyph glyph-name="S" unicode="S" horiz-adv-x="518" 
d="M401 533c-11.333 22 -31.665 40.1729 -60.998 54.5059s-60.333 21.5 -93 21.5s-60.5 -9.33301 -83.5 -28s-34.5 -43.834 -34.5 -75.501s8.5 -56.334 25.5 -74.001s38.167 -30 63.5 -37s53 -15.5 83 -25.5s57.667 -20.333 83 -31s46.5 -29 63.5 -55s25.5 -57.333 25.5 -94
s-6.66699 -68.167 -20 -94.5s-31.333 -46.833 -54 -61.5c-44 -28.667 -94.167 -43 -150.5 -43s-104.333 9.16699 -144 27.5s-59.5 40.5 -59.5 66.5c0 15.333 8.33301 28.333 25 39c5.33301 3.33301 14 8 26 14c12.667 -24.667 35.5 -44.834 68.5 -60.501
s67.333 -23.5 103 -23.5s66.834 10.167 93.501 30.5s40 47.833 40 82.5s-11.833 61.167 -35.5 79.5s-52.334 32.166 -86.001 41.499s-67.334 19.666 -101.001 30.999s-62.334 30.5 -86.001 57.5s-35.5 62.833 -35.5 107.5c0 61.333 20.167 108.333 60.5 141
s91.833 49 154.5 49c46 0 88.5 -8 127.5 -24s58.5 -38 58.5 -66c0 -26.667 -19 -43.334 -57 -50.001z" />
    <glyph glyph-name="T" unicode="T" horiz-adv-x="465" 
d="M194 54l2.00098 176.998v200c0 62 -1 119 -3 171c-94.667 0 -158 -1.33301 -190 -4c-2 6 -3 15.333 -3 28s3.5 21.334 10.5 26.001s18.5 7.33398 34.5 8.00098s51.333 1 106 1h118c105.333 0 169.666 1 192.999 3c2 -6 3 -15.167 3 -27.5s-3.5 -20.833 -10.5 -25.5
s-19.5 -7.33398 -37.5 -8.00098s-64.333 -1 -139 -1c-4.66699 -95.333 -7 -161.333 -7 -198v-201c0 -90 6.33301 -156 19 -198c-12 -5.33301 -27.667 -8 -47 -8s-32.333 4.33301 -39 13s-10 23.334 -10 44.001z" />
    <glyph glyph-name="U" unicode="U" horiz-adv-x="644" 
d="M80 192l8.99902 309.002c0 63.333 -5.66699 115.666 -17 156.999c13.333 5.33301 29 8 47 8s31.5 -3.83301 40.5 -11.5s13.5 -23.334 13.5 -47.001s-2.5 -84.334 -7.5 -182.001s-7.5 -171.667 -7.5 -222s13.5 -87.833 40.5 -112.5s57.5 -37 91.5 -37s69 8 105 24
s65.333 34.667 88 56l1 128v169c0 94 -2.33301 171.333 -7 232c11.333 2 25 3 41 3c32.667 0 49 -12.667 49 -38c0 -1.33301 -0.666992 -13.666 -2 -36.999c-4 -70 -6 -160.333 -6 -271s1 -183.5 3 -218.5s7.33301 -67.167 16 -96.5c-12 -5.33301 -27.5 -8 -46.5 -8
s-32 4.16699 -39 12.5s-10.5 23.833 -10.5 46.5v11c-26.667 -22.667 -58.667 -41.167 -96 -55.5s-71.666 -21.5 -102.999 -21.5c-62.667 0 -112.167 14.833 -148.5 44.5s-54.5 82.167 -54.5 157.5z" />
    <glyph glyph-name="V" unicode="V" horiz-adv-x="558" 
d="M463 667c18.667 4 34.332 5.99902 46.999 5.99902c25.333 0 38 -16.333 38 -49c0 -73.333 -23.333 -171.5 -70 -294.5s-94.334 -215.5 -143.001 -277.5c-16.667 -22 -30.667 -36.667 -42 -44s-22.666 -11 -33.999 -11s-24.333 0.666992 -39 2
c-21.333 107.333 -57.666 230.333 -108.999 369s-95 225.667 -131 261c28 24.667 52.167 37 72.5 37s36.5 -14.333 48.5 -43c26 -59.333 56.667 -143.666 92 -252.999s63 -204.333 83 -285c39.333 44 81 124.5 125 241.5s66 213.833 66 290.5c0 24 -1.33301 40.667 -4 50z
" />
    <glyph glyph-name="W" unicode="W" horiz-adv-x="942" 
d="M837 667c18.667 4 33.9971 5.99707 45.9971 5.99707c26 0 39 -14.333 39 -43c0 -77.333 -21.833 -177.166 -65.5 -299.499s-89.167 -215.166 -136.5 -278.499c-16.667 -22 -30.167 -36.667 -40.5 -44s-21.166 -11 -32.499 -11s-23.666 0.666992 -36.999 2
c-26 140 -67.667 287 -125 441c-21.333 -74 -47.833 -147.167 -79.5 -219.5s-59.167 -124 -82.5 -155s-40.166 -50.167 -50.499 -57.5s-21 -11 -32 -11s-23.167 0.666992 -36.5 2c-19.333 106.667 -53.166 229.5 -101.499 368.5s-89.166 226.167 -122.499 261.5
c27.333 24.667 51.166 37 71.499 37s36.5 -14.333 48.5 -43c24.667 -58 52.667 -141 84 -249s56.666 -204.333 75.999 -289c36 43.333 74 123.5 114 240.5s60 213.833 60 290.5c0 24 -1.33301 41 -4 51c18.667 4 34 6 46 6c26 0 39 -14.333 39 -43
c0 -19.333 -1.66699 -38.333 -5 -57c44 -69.333 96 -232 156 -488c36 44 74.167 124.333 114.5 241s60.5 213.334 60.5 290.001c0 24 -1.33301 41 -4 51z" />
    <glyph glyph-name="X" unicode="X" horiz-adv-x="576" 
d="M25 43c0 39.333 73.998 139.997 221.998 301.997c-98 157.333 -170.333 251 -217 281c25.333 31.333 50 47 74 47c14 0 31 -14 51 -42c42.667 -61.333 91 -136.666 145 -225.999c37.333 45.333 70.666 94.166 99.999 146.499s46 92.5 50 120.5
c47.333 -9.33301 71 -28 71 -56c0 -18 -19.333 -54.5 -58 -109.5s-81 -108.5 -127 -160.5c104 -177.333 182 -281.666 234 -312.999c-25.333 -28.667 -47.166 -43 -65.499 -43s-36.833 13 -55.5 39c-39.333 52 -94.666 137.333 -165.999 256
c-38 -36.667 -76.667 -85.667 -116 -147s-63.666 -110.666 -72.999 -147.999c-46 8.66699 -69 26.334 -69 53.001z" />
    <glyph glyph-name="Y" unicode="Y" horiz-adv-x="501" 
d="M496 627c0 -16.667 -25.332 -63.835 -75.999 -141.502s-95 -139.167 -133 -184.5v-85c0 -97.333 6.33301 -167.666 19 -210.999c-12 -5.33301 -27.667 -8 -47 -8s-32.333 4.33301 -39 13s-10 23.334 -10 44.001l2 178v62c-96.667 182 -170.667 290.333 -222 325
c10 13.333 17.333 22 22 26l14 12c8 6.66699 17 10 27 10c16.667 0 32.667 -11.333 48 -34c40 -58 93.333 -148.667 160 -272c32 42 66.167 98.167 102.5 168.5s55.166 117.833 56.499 142.5c50.667 -3.33301 76 -18.333 76 -45z" />
    <glyph glyph-name="Z" unicode="Z" 
d="M499 648c10.667 -12 16.001 -25.667 16.001 -41s-5.66699 -30.333 -17 -45l-404 -505c24 -2.66699 51 -4 81 -4c129.333 0 234.666 10.667 315.999 32c6.66699 -17.333 10 -32.5 10 -45.5s-5.66699 -22.167 -17 -27.5c-25.333 -12 -90 -18 -194 -18s-186 4 -246 12
c-12 16 -18 33.667 -18 53s8.33301 39.333 25 60l377 481c-31.333 4 -72 6 -122 6c-94 0 -177.333 -9 -250 -27c-6.66699 16 -10 30 -10 42c0 18.667 9.66699 30.667 29 36c28 6.66699 86.833 10 176.5 10s172.167 -6.33301 247.5 -19z" />
    <glyph glyph-name="bracketleft" unicode="[" horiz-adv-x="380" 
d="M216 664l0.00195312 -798c25.333 1.33301 49.166 2 71.499 2s36.666 -2.83301 42.999 -8.5s9.5 -13.5 9.5 -23.5s-1.33301 -18.667 -4 -26h-186v910h186c2.66699 -5.33301 4 -14 4 -26c0 -21.333 -14.5 -32 -43.5 -32s-55.833 0.666992 -80.5 2z" />
    <glyph glyph-name="backslash" unicode="\" horiz-adv-x="258" 
d="M129 113c-62.667 391.333 -94 592 -94 602c0 18 12 27 36 27c8 0 15 -1 21 -3c5.33301 -57.333 15.333 -134.666 30 -231.999c62.667 -396 94 -596.333 94 -601c0 -18.667 -11 -28 -33 -28c-7.33301 0 -15.333 1 -24 3c-5.33301 57.333 -15.333 134.666 -30 231.999z" />
    <glyph glyph-name="bracketright" unicode="]" horiz-adv-x="350" 
d="M154 -134l0.000976562 798c-24.667 -1.33301 -47.834 -2 -69.501 -2s-36.167 2.5 -43.5 7.5s-11 13.167 -11 24.5s1.33301 20 4 26h186v-910h-186c-2.66699 7.33301 -4 16 -4 26c0 21.333 14.333 32 43 32s55.667 -0.666992 81 -2z" />
    <glyph glyph-name="asciicircum" unicode="^" horiz-adv-x="470" 
d="M236 582c-102.667 -110 -164.001 -164.998 -184.001 -164.998c-7.33301 0 -16.333 5.33301 -27 16c15.333 26 46.833 65.667 94.5 119s86.167 94.333 115.5 123c29.333 -28.667 67.833 -69.667 115.5 -123s79.167 -93 94.5 -119c-10.667 -10.667 -18.667 -16 -24 -16
s-11.666 2.16699 -18.999 6.5s-15.833 10.666 -25.5 18.999l-28.5 25c-9.33301 8.33301 -20 18.666 -32 30.999l-29.5 30.5l-28.5 30z" />
    <glyph glyph-name="underscore" unicode="_" 
d="M499 -152l-150.999 8h-143c-76 0 -143.333 -2.66699 -202 -8c-2 10 -3 20.167 -3 30.5s3 19.833 9 28.5s15 13 27 13c2 0 23 -1.16699 63 -3.5s74.667 -3.5 104 -3.5h142c84.667 0 147 2.33301 187 7c2 -6 3 -15.5 3 -28.5s-3.33301 -23.5 -10 -31.5
s-15.334 -12 -26.001 -12z" />
    <glyph glyph-name="grave" unicode="`" horiz-adv-x="201" 
d="M-15 702c24.667 -27.333 50.666 -51.499 77.999 -72.499l59 -46c12 -9.66699 18 -19.5 18 -29.5s-5.33301 -19.667 -16 -29c-18.667 14 -44.167 30 -76.5 48s-56.666 33 -72.999 45s-24.5 25.667 -24.5 41s11.667 29.666 35 42.999z" />
    <glyph glyph-name="a" unicode="a" horiz-adv-x="464" 
d="M392 312l-2 -135.001c0 -76.667 6.33301 -134 19 -172c-10.667 -5.33301 -23.5 -8 -38.5 -8s-25.5 3.5 -31.5 10.5s-10 18.167 -12 33.5c-41.333 -34 -84 -51 -128 -51c-102.667 0 -154 47 -154 141c0 34 8 59 24 75s38 28 66 36c50 13.333 113.333 22.333 190 27
c0 56.667 -7 95.834 -21 117.501s-43.667 32.5 -89 32.5c-18.667 0 -38 -6 -58 -18s-35 -29.333 -45 -52c-30.667 6 -46 19.333 -46 40c0 26 16 46.833 48 62.5s73 23.5 123 23.5s88.333 -11.833 115 -35.5s40 -66.167 40 -127.5zM324 217.999
c-19.333 -2 -33.8311 -3.66699 -43.498 -5s-22.667 -3 -39 -5s-28.5 -4 -36.5 -6s-17.833 -4.66699 -29.5 -8s-20.334 -7 -26.001 -11l-17.5 -13c-11.333 -9.33301 -17 -22.333 -17 -39c0 -30 8.66699 -52.167 26 -66.5s39.333 -21.5 66 -21.5
c45.333 0 83.666 15 114.999 45c-0.666992 9.33301 -1 26.333 -1 51s1 51 3 79z" />
    <glyph glyph-name="b" unicode="b" horiz-adv-x="508" 
d="M139 422c48.667 35.333 99.668 53.001 153.001 53.001s96.166 -18.833 128.499 -56.5s48.5 -93.5 48.5 -167.5s-18 -136 -54 -186s-89.333 -75 -160 -75s-132.667 22.667 -186 68c4.66699 40 7 100.667 7 182s-1.66699 178.666 -5 291.999s-7 182.666 -11 207.999
c8 2 20 3 36 3c30 0 45 -12.667 45 -38c0 -8.66699 -0.333008 -52.667 -1 -132s-1 -129.666 -1 -150.999zM140.001 366.001l0.999023 -147.999c0 -53.333 -1 -93.333 -3 -120c39.333 -34.667 81.833 -52 127.5 -52s79.334 19.167 101.001 57.5s32.5 85.666 32.5 141.999
s-12 99.333 -36 129s-54 44.5 -90 44.5c-48 0 -92.333 -17.667 -133 -53z" />
    <glyph glyph-name="c" unicode="c" horiz-adv-x="447" 
d="M261 46c20 0 40.334 4.33203 61.001 12.999s35.334 21.667 44.001 39c26.667 -10.667 40 -24 40 -40c0 -22 -15.167 -38.833 -45.5 -50.5s-64.5 -17.5 -102.5 -17.5c-60.667 0 -111.334 19.833 -152.001 59.5s-61 98.834 -61 177.501c0 42 6.66699 79.5 20 112.5
s31 59.167 53 78.5c44.667 38 93.667 57 147 57c34 0 66.333 -7.66699 97 -23s46 -37 46 -65c0 -24 -16 -38.333 -48 -43c-6.66699 24 -20.834 42.5 -42.501 55.5s-44.5 19.5 -68.5 19.5c-37.333 0 -68.833 -16.5 -94.5 -49.5s-38.5 -79.5 -38.5 -139.5
s13.5 -105.667 40.5 -137s61.833 -47 104.5 -47z" />
    <glyph glyph-name="d" unicode="d" horiz-adv-x="516" 
d="M446 705l-9 -482c0 -111.333 6.33301 -184 19 -218c-10.667 -5.33301 -23.334 -8 -38.001 -8c-28 0 -42.667 16.667 -44 50c-40 -38 -85.167 -57 -135.5 -57s-95.166 22.833 -134.499 68.5s-59 104.167 -59 175.5s20.5 129.333 61.5 174s90.5 67 148.5 67
c40 0 78.667 -11.333 116 -34c1.33301 42.667 2 91.167 2 145.5s-2.66699 105.5 -8 153.5c10.667 2 22.667 3 36 3c30 0 45 -12.667 45 -38zM369 389c-35.333 20 -69.667 30.001 -103 30.001c-46.667 0 -83.5 -15.833 -110.5 -47.5s-40.5 -75.334 -40.5 -131.001
s14 -102.5 42 -140.5s61.833 -57 101.5 -57s77.167 19 112.5 57c-1.33301 172 -2 268.333 -2 289z" />
    <glyph glyph-name="e" unicode="e" horiz-adv-x="470" 
d="M268 475c46.667 0 84.498 -13.167 113.498 -39.5s43.5 -54.833 43.5 -85.5s-4.66699 -54.667 -14 -72s-21.5 -31 -36.5 -41s-36.5 -17.667 -64.5 -23c-42.667 -8 -106.667 -12 -192 -12c5.33301 -48 19.833 -86 43.5 -114s58.834 -42 105.501 -42s79.667 17.333 99 52
c26.667 -10.667 40 -25.334 40 -44.001s-15.167 -34 -45.5 -46s-64.166 -18 -101.499 -18c-62.667 0 -114 19.833 -154 59.5s-60 99.334 -60 179.001s22.167 140.667 66.5 183s96.5 63.5 156.5 63.5zM263.998 420c-40 0 -74.167 -13.668 -102.5 -41.001
s-43.166 -69.666 -44.499 -126.999c95.333 0 158.666 7 189.999 21c13.333 6 24.833 14.667 34.5 26s14.5 26.5 14.5 45.5s-8.83301 36.333 -26.5 52s-39.5 23.5 -65.5 23.5z" />
    <glyph glyph-name="f" unicode="f" horiz-adv-x="303" 
d="M84 49l1.99902 360.001c-22 0 -48 -1.66699 -78 -5c-2 6.66699 -3 15.667 -3 27c0 18.667 12.333 29.334 37 32.001c14.667 1.33301 29.334 2 44.001 2c0 100 14.667 167.667 44 203c26.667 31.333 66.667 47 120 47c24 0 44.667 -3.66699 62 -11s26 -17.333 26 -30
s-6.66699 -28 -20 -46c-22.667 20.667 -50.667 31 -84 31s-55.333 -11.667 -66 -35s-16 -60.666 -16 -111.999v-47c64.667 0 110 1.33301 136 4c2.66699 -5.33301 4 -13.833 4 -25.5s-3.5 -19.834 -10.5 -24.501s-19.667 -7.33398 -38 -8.00098s-48.833 -1 -91.5 -1v-208
c0 -88.667 6.33301 -154.334 19 -197.001c-12 -5.33301 -26 -8 -42 -8s-27.5 4 -34.5 12s-10.5 21.333 -10.5 40z" />
    <glyph glyph-name="g" unicode="g" horiz-adv-x="518" 
d="M142 -37c-24.667 -36.667 -37 -68.001 -37 -94.001c0 -43.333 40.333 -65 121 -65c58.667 0 103.334 9.33301 134.001 28s46 40.334 46 65.001s-6.33301 41 -19 49s-32.334 12 -59.001 12h-103c-38 0 -65.667 1.66699 -83 5zM326 201.999
c18.667 18.667 28 46.833 28 84.5s-10.833 69.167 -32.5 94.5s-51.167 38 -88.5 38c-79.333 0 -119 -38 -119 -114c0 -38 10.5 -69.333 31.5 -94s51.667 -37 92 -37s69.833 9.33301 88.5 28zM234 117.998c-20 0 -38.332 2.00098 -54.999 6.00098
c-10 -12 -18.833 -25.667 -26.5 -41s-11.5 -27 -11.5 -35c0 -16.667 22 -25 66 -25h115c98.667 0 148 -35.667 148 -107c0 -50 -24.167 -90.5 -72.5 -121.5s-105 -46.5 -170 -46.5s-113.333 11.333 -145 34s-47.5 52 -47.5 88s22 71.333 66 106c-20 14.667 -30 30 -30 46
c0 25.333 23 63.666 69 114.999c-64 28.667 -96 81.667 -96 159c0 50.667 18 93.167 54 127.5s80.167 51.5 132.5 51.5s95.166 -13 128.499 -39c28 37.333 58 56 90 56c13.333 0 24.833 -3 34.5 -9s14.5 -14.167 14.5 -24.5s-2.66699 -22.5 -8 -36.5
c-5.33301 1.33301 -17 2 -35 2s-39.333 -6.66699 -64 -20c22 -30.667 33 -66.667 33 -108c0 -54.667 -18.667 -98 -56 -130s-82 -48 -134 -48z" />
    <glyph glyph-name="h" unicode="h" horiz-adv-x="505" 
d="M357 48l5.99902 268.996c0 30 -9 54.5 -27 73.5s-37.833 28.5 -59.5 28.5s-46.167 -6.16699 -73.5 -18.5s-49.666 -28.166 -66.999 -47.499c-2.66699 -94.667 -4 -163.667 -4 -207s2.33301 -91.666 7 -144.999c-10.667 -2 -22 -3 -34 -3c-30 0 -45 12.667 -45 38
c0 5.33301 0.666992 34.666 2 87.999c5.33301 158.667 8 290.5 8 395.5s-2.66699 178.5 -8 220.5c10.667 2 22.667 3 36 3c30 0 45 -12.167 45 -36.5s-2.33301 -122.166 -7 -293.499c48 41.333 101.667 62 161 62c90 0 135 -52 135 -156l-4 -163
c0 -61.333 5.66699 -111.666 17 -150.999c-13.333 -5.33301 -27.5 -8 -42.5 -8s-26.333 3.83301 -34 11.5s-11.5 20.834 -11.5 39.501z" />
    <glyph glyph-name="i" unicode="i" horiz-adv-x="213" 
d="M71 54l2 176.998c0 95.333 -2.33301 173.333 -7 234c10.667 2 22 3 34 3c31.333 0 47 -12.667 47 -38c0 -3.33301 -0.666992 -16.666 -2 -39.999c-4 -71.333 -6 -142.833 -6 -214.5s6.33301 -128.5 19 -170.5c-12 -5.33301 -26.167 -8 -42.5 -8s-27.833 4.33301 -34.5 13
s-10 23.334 -10 44.001zM140 536.498c-10.667 -10.333 -22.834 -15.499 -36.501 -15.499s-25.5 5 -35.5 15s-15 22.667 -15 38s5.33301 28.166 16 38.499s22.834 15.5 36.501 15.5s25.5 -5.16699 35.5 -15.5s15 -23 15 -38s-5.33301 -27.667 -16 -38z" />
    <glyph glyph-name="j" unicode="j" horiz-adv-x="225" 
d="M83 -79l-2.99902 310c0 95.333 -2.33301 173.333 -7 234c10.667 2 22 3 34 3c31.333 0 47 -12.667 47 -38c0 -2.66699 -0.666992 -14 -2 -34c-4 -61.333 -6 -130 -6 -206l4 -262c0 -58.667 -14.667 -103.5 -44 -134.5s-71.333 -46.5 -126 -46.5
c-30.667 0 -57.5 5 -80.5 15s-34.5 22.5 -34.5 37.5s8.66699 28.833 26 41.5c27.333 -28 61.666 -42 102.999 -42c26.667 0 48.167 9.66699 64.5 29s24.5 50.333 24.5 93zM149.001 536.5c-10.667 -10.333 -22.834 -15.499 -36.501 -15.499s-25.5 5 -35.5 15
s-15 22.667 -15 38s5.33301 28.166 16 38.499s22.834 15.5 36.501 15.5s25.5 -5.16699 35.5 -15.5s15 -23 15 -38s-5.33301 -27.667 -16 -38z" />
    <glyph glyph-name="k" unicode="k" horiz-adv-x="477" 
d="M66 49l1.99609 286.007v116c0 157.333 -2.66699 253.666 -8 288.999c10.667 2 22.334 3 35.001 3c30.667 0 46 -12.667 46 -38c0 -2.66699 -0.333008 -18 -1 -46c-4 -102.667 -6 -186.334 -6 -251.001c47.333 44.667 98.333 67 153 67c43.333 0 76.333 -11.833 99 -35.5
s34 -54.334 34 -92.001s-12.5 -71.334 -37.5 -101.001s-59.833 -46.834 -104.5 -51.501c35.333 -58.667 61.833 -97.167 79.5 -115.5s36.834 -27.5 57.501 -27.5c10.667 0 19.334 1.33301 26.001 4c6 -12 9 -22.833 9 -32.5s-7 -17.667 -21 -24s-27.333 -9.5 -40 -9.5
c-26 0 -50 12 -72 36s-40.667 48.833 -56 74.5l-38 63.5c-10 16.667 -16.667 28 -20 34c-17.333 2 -26 9 -26 21c0 7.33301 1.66699 15.333 5 24c21.333 -4.66699 38.333 -7 51 -7c36.667 0 65 10.167 85 30.5s30 42.833 30 67.5s-6.83301 45 -20.5 61s-32.167 24 -55.5 24
s-47.666 -6.83301 -72.999 -20.5s-47 -30.834 -65 -51.501v-145c0 -88.667 6.33301 -154.334 19 -197.001c-12 -5.33301 -26 -8 -42 -8s-27.5 4 -34.5 12s-10.5 21.333 -10.5 40z" />
    <glyph glyph-name="l" unicode="l" horiz-adv-x="213" 
d="M66 49l1.99902 286.003v116c0 157.333 -2.66699 253.666 -8 288.999c10.667 2 22.334 3 35.001 3c30.667 0 46 -12.667 46 -38c0 -2.66699 -0.333008 -20.334 -1 -53.001c-4 -121.333 -6 -219.333 -6 -294v-156c0 -88.667 6.33301 -154.334 19 -197.001
c-12 -5.33301 -26 -8 -42 -8s-27.5 4 -34.5 12s-10.5 21.333 -10.5 40z" />
    <glyph glyph-name="m" unicode="m" horiz-adv-x="773" 
d="M625 48l5.99902 258.997c0 38 -7.83301 66.167 -23.5 84.5s-36.167 27.5 -61.5 27.5c-38.667 0 -80 -17.667 -124 -53c1.33301 -90.667 2 -162.834 2 -216.501s2 -103.167 6 -148.5c-10.667 -2 -22 -3 -34 -3c-30 0 -45 12.667 -45 38c0 2.66699 0.333008 16 1 40
c2.66699 57.333 4 134.333 4 231c0 74.667 -29.333 112 -88 112c-38 0 -79 -18.333 -123 -55c1.33301 -90.667 2 -162.5 2 -215.5s2 -102.167 6 -147.5c-10.667 -2 -22 -3 -34 -3c-30 0 -45 12.667 -45 38c0 2.66699 0.833008 27.167 2.5 73.5s2.5 92.5 2.5 138.5
c0 109.333 -6.33301 180 -19 212c13.333 5.33301 25.333 8 36 8c30.667 0 46 -16.667 46 -50c20.667 16.667 45.334 30.334 74.001 41.001s56.334 16 83.001 16c54.667 0 91.667 -21.667 111 -65c18 18 43.167 33.333 75.5 46s64.666 19 96.999 19
s59.833 -11.167 82.5 -33.5s34 -58.166 34 -107.499l-3 -178c0 -61.333 5.66699 -111.666 17 -150.999c-13.333 -5.33301 -27.5 -8 -42.5 -8s-26.333 3.83301 -34 11.5s-11.5 20.834 -11.5 39.501z" />
    <glyph glyph-name="n" unicode="n" horiz-adv-x="519" 
d="M371 48l6 258.998c0 37.333 -9.16699 65.333 -27.5 84s-41.833 28 -70.5 28c-45.333 0 -90 -18.333 -134 -55c1.33301 -90.667 2 -162.5 2 -215.5s2 -102.167 6 -147.5c-10.667 -2 -22 -3 -34 -3c-30 0 -45 12.667 -45 38c0 2.66699 0.833008 27.167 2.5 73.5
s2.5 92.5 2.5 138.5c0 109.333 -6.33301 180 -19 212c13.333 5.33301 25.333 8 36 8c30.667 0 46 -16.667 46 -50c20 15.333 45.667 28.666 77 39.999s64.333 17 99 17s64.5 -11.167 89.5 -33.5s37.5 -58.166 37.5 -107.499l-3 -178c0 -61.333 5.66699 -111.666 17 -150.999
c-13.333 -5.33301 -27.5 -8 -42.5 -8s-26.333 3.83301 -34 11.5s-11.5 20.834 -11.5 39.501z" />
    <glyph glyph-name="o" unicode="o" horiz-adv-x="525" 
d="M420 56c-40 -44 -92.5 -66 -157.5 -66s-117.5 22 -157.5 66s-60 102.667 -60 176s20 132.166 60 176.499s92.5 66.5 157.5 66.5s117.5 -22.167 157.5 -66.5s60 -103.166 60 -176.499s-20 -132 -60 -176zM371 93c26 31.333 39 74.334 39 129.001
s-13.333 101.167 -40 139.5s-63 57.5 -109 57.5s-81.833 -15.833 -107.5 -47.5s-38.5 -74.834 -38.5 -129.501s13 -101 39 -139s62.167 -57 108.5 -57s82.5 15.667 108.5 47z" />
    <glyph glyph-name="p" unicode="p" horiz-adv-x="517" 
d="M76 -196l3.00098 445.001c0 105.333 -6.33301 175.666 -19 210.999c12 5.33301 25 8 39 8c28.667 0 43 -16.667 43 -50c50.667 38 102.167 57 154.5 57s94.666 -17.833 126.999 -53.5s48.5 -89.834 48.5 -162.501c0 -104 -31.667 -180.667 -95 -230
c-33.333 -26 -71.5 -39 -114.5 -39s-82.167 11.333 -117.5 34c0 -113.333 2.33301 -183.5 7 -210.5s9 -46.5 13 -58.5c-12 -5.33301 -26.5 -8 -43.5 -8s-28.833 4.33301 -35.5 13s-10 23.334 -10 44.001zM147.001 76.001c30.667 -20 70.667 -30 120 -30
c30 0 55.667 10 77 30c38 37.333 57 93.333 57 168c0 60 -11.5 104.167 -34.5 132.5s-54.833 42.5 -95.5 42.5s-82.667 -18.333 -126 -55c1.33301 -146.667 2 -242.667 2 -288z" />
    <glyph glyph-name="q" unicode="q" horiz-adv-x="518" 
d="M374 39c-36 -32.667 -80 -49 -132 -49s-97.833 23 -137.5 69s-59.5 105 -59.5 177s20.667 129.833 62 173.5s93 65.5 155 65.5c74.667 0 139.667 -22.667 195 -68c-10.667 -114 -16 -242.833 -16 -386.5s5.66699 -232.167 17 -265.5c-13.333 -5.33301 -28 -8 -44 -8
c-29.333 0 -44 16.833 -44 50.5s0.666992 78.167 2 133.5s2 91.333 2 108zM256 419c-39.333 0 -72.667 -15.834 -100 -47.501s-41 -75.167 -41 -130.5s13.833 -101.666 41.5 -138.999s62.5 -56 104.5 -56s80 18.333 114 55c0.666992 72 4 162 10 270
c-34.667 32 -77.667 48 -129 48z" />
    <glyph glyph-name="r" unicode="r" horiz-adv-x="315" 
d="M65 54l2.00195 177c0 95.333 -2.33301 173.333 -7 234c10.667 2 22 3 34 3c28.667 0 43 -12.667 43 -38c0 -1.33301 -0.166992 -5.83301 -0.5 -13.5s-0.5 -14.834 -0.5 -21.501c13.333 20.667 31.166 39.167 53.499 55.5s42.833 24.5 61.5 24.5c36 0 54 -13 54 -39
c0 -12.667 -6.66699 -27.667 -20 -45c-14.667 12.667 -31 19 -49 19s-36.333 -7.33301 -55 -22s-34.334 -34 -47.001 -58c-0.666992 -22.667 -1 -72 -1 -148s6.33301 -135 19 -177c-12 -5.33301 -26.167 -8 -42.5 -8s-27.833 4.33301 -34.5 13s-10 23.334 -10 44.001z" />
    <glyph glyph-name="s" unicode="s" horiz-adv-x="409" 
d="M310 354c-7.33301 19.333 -22.3291 34.9951 -44.9961 46.9951s-45.834 18 -69.501 18s-43.834 -6.16699 -60.501 -18.5s-25 -29.166 -25 -50.499s8.83301 -37.666 26.5 -48.999s39.167 -20 64.5 -26s50.666 -12.833 75.999 -20.5s46.833 -21.5 64.5 -41.5
s26.5 -46 26.5 -78c0 -47.333 -17 -83.333 -51 -108s-72.833 -37 -116.5 -37s-81.334 7.66699 -113.001 23s-47.5 34.333 -47.5 57c0 19.333 15 33.333 45 42c7.33301 -21.333 23.166 -37.666 47.499 -48.999s50.833 -17 79.5 -17s51.834 6.33301 69.501 19
s26.5 30.667 26.5 54s-8.83301 40.333 -26.5 51s-39.167 18.834 -64.5 24.501s-50.666 12.334 -75.999 20.001s-46.833 22.167 -64.5 43.5s-26.5 50.5 -26.5 87.5s17.167 67.833 51.5 92.5s70.166 37 107.499 37s71 -7 101 -21s45 -32.333 45 -55s-15 -37.667 -45 -45z" />
    <glyph glyph-name="t" unicode="t" horiz-adv-x="352" 
d="M96 411c-2 0 -33 -2.33008 -93 -6.99707c-2 6 -3 15.5 -3 28.5s5 21.667 15 26s27 6.5 51 6.5h28c-1.33301 44.667 -3.33301 82 -6 112c10 2 21 3 33 3c32 0 48 -12.667 48 -38c0 -9.33301 -1.33301 -35.333 -4 -78c84.667 0 140.667 1.66699 168 5
c2.66699 -5.33301 4 -13.833 4 -25.5s-3.5 -19.834 -10.5 -24.501s-20 -7.33398 -39 -8.00098s-60.5 -1 -124.5 -1c-1.33301 -72 -2 -142.167 -2 -210.5s6.5 -111.5 19.5 -129.5s34 -27 63 -27s53.5 10 73.5 30c12 -12.667 18 -25.334 18 -38.001
s-8.66699 -23.334 -26 -32.001s-38.333 -13 -63 -13c-55.333 0 -94.5 16 -117.5 48s-34.5 79.667 -34.5 143c1.33301 120.667 2 197.334 2 230.001z" />
    <glyph glyph-name="u" unicode="u" horiz-adv-x="518" 
d="M443 430l-4.00098 -226.999c0 -84.667 6.33301 -150.667 19 -198c-13.333 -5.33301 -25.666 -8 -36.999 -8c-30.667 0 -46 16.667 -46 50c-48 -38 -101 -57 -159 -57c-94.667 0 -142 47 -142 141l3 178c0 60.667 -5.66699 111 -17 151c13.333 5.33301 27.5 8 42.5 8
s26.333 -3.83301 34 -11.5s11.5 -20.834 11.5 -39.501l-6 -259c0 -36 8.83301 -63.667 26.5 -83s40.5 -29 68.5 -29c48 0 93 18.333 135 55c-0.666992 28.667 -1 82 -1 160s-2.33301 146 -7 204c10.667 2 22 3 34 3c30 0 45 -12.667 45 -38z" />
    <glyph glyph-name="v" unicode="v" horiz-adv-x="439" 
d="M368 475c24.667 0 37.001 -12.6699 37.001 -38.0029c0 -45.333 -16.5 -113.166 -49.5 -203.499s-66.833 -156.166 -101.5 -197.499c-12.667 -15.333 -23.334 -25.666 -32.001 -30.999s-18.167 -8 -28.5 -8s-20.5 1 -30.5 3c-15.333 76.667 -40.666 163.5 -75.999 260.5
s-65.333 157.833 -90 182.5c20 18 38.333 27 55 27s30 -11.667 40 -35c14 -32 34.667 -87 62 -165s47.666 -144 60.999 -198c27.333 35.333 54.833 91.333 82.5 168s41.5 143 41.5 199c0 10.667 -1 21 -3 31c10 3.33301 20.667 5 32 5z" />
    <glyph glyph-name="w" unicode="w" horiz-adv-x="693" 
d="M622 475c24.667 0 37.002 -12.333 37.002 -37s-5.83301 -59.667 -17.5 -105s-25.834 -90 -42.501 -134c-42.667 -105.333 -81 -170 -115 -194c-8 -5.33301 -16.833 -8 -26.5 -8s-19.5 1 -29.5 3c-17.333 88 -43.666 183.333 -78.999 286
c-36.667 -116 -75 -199.333 -115 -250c-12.667 -15.333 -22.834 -25.666 -30.501 -30.999s-16.334 -8 -26.001 -8s-19.5 1 -29.5 3c-14.667 76.667 -38 163.667 -70 261s-59 158 -81 182c20 18 38.333 27 55 27s30 -11.667 40 -35c12 -30 30 -84.333 54 -163
s42 -145.334 54 -200.001c24.667 35.333 49.667 91.333 75 168s38 142.667 38 198c0 11.333 -1 22 -3 32c10 3.33301 20.667 5 32 5c24.667 0 37 -13.333 37 -40s-0.333008 -42.334 -1 -47.001c15.333 -25.333 33 -69.666 53 -132.999s36.333 -124.333 49 -183
c24.667 35.333 49.667 91.333 75 168s38 142.667 38 198c0 11.333 -1 22 -3 32c10 3.33301 20.667 5 32 5z" />
    <glyph glyph-name="x" unicode="x" horiz-adv-x="433" 
d="M327 475c37.333 -6.66699 55.999 -19.332 55.999 -37.999c0 -30 -43 -93.667 -129 -191c70.667 -120.667 125.334 -193 164.001 -217c-19.333 -26 -36.833 -39 -52.5 -39s-30.167 9.33301 -43.5 28c-26 35.333 -64 94 -114 176
c-27.333 -31.333 -54.333 -67.166 -81 -107.499s-42.667 -72.5 -48 -96.5c-36 6 -54 18.667 -54 38c0 17.333 11 39.666 33 66.999l46.5 57.5c9 11 23.667 27.667 44 50s31.166 34.166 32.499 35.499c-67.333 110.667 -118.333 177 -153 199c20.667 25.333 38.667 38 54 38
s30 -9 44 -27c32 -47.333 65.333 -99.333 100 -156c25.333 32.667 47.833 66.667 67.5 102s30.834 62.333 33.501 81z" />
    <glyph glyph-name="y" unicode="y" horiz-adv-x="441" 
d="M376 475c23.333 0 35.001 -14.4971 35.001 -43.4971s-11.833 -81 -35.5 -156s-51.834 -147.167 -84.501 -216.5c-58.667 -124.667 -114 -219.334 -166 -284.001c-13.333 -17.333 -26.333 -26 -39 -26c-18.667 0 -37 13.333 -55 40c20 12.667 46.667 38.5 80 77.5
s62.333 78.167 87 117.5c-23.333 77.333 -55 165.5 -95 264.5s-74.333 162.167 -103 189.5c23.333 21.333 42.5 32 57.5 32s27.833 -10.667 38.5 -32c16 -32 39.667 -87.833 71 -167.5s54.666 -145.834 69.999 -198.501c28.667 62 53.834 128.667 75.501 200
s32.5 127.666 32.5 168.999c0 3.33301 -0.666992 13 -2 29c10 3.33301 21 5 33 5z" />
    <glyph glyph-name="z" unicode="z" horiz-adv-x="454" 
d="M378 451c10.667 -10.667 16 -25.833 16 -45.5s-5.66699 -35.167 -17 -46.5l-295 -307c22.667 -2 45 -3 67 -3c71.333 0 145.333 10 222 30c6 -12 9 -23.833 9 -35.5s-2.83301 -20.334 -8.5 -26.001s-11.5 -9.5 -17.5 -11.5c-30 -8 -78.833 -12 -146.5 -12
s-123.5 4 -167.5 12c-10 14 -15 31 -15 51s7.33301 37.333 22 52l291 299c-37.333 4 -73.333 6 -108 6c-69.333 0 -128 -8 -176 -24c-6 14.667 -8.66699 29.334 -8 44.001s9 24.5 25 29.5s56.833 7.5 122.5 7.5s127.167 -6.66699 184.5 -20z" />
    <glyph glyph-name="braceleft" unicode="{" horiz-adv-x="426" 
d="M182 286c16.667 -6 32.332 -20.002 46.999 -42.002s22 -43.333 22 -64v-199c0 -14 0.5 -24 1.5 -30s3.83301 -12.333 8.5 -19c7.33301 -10 29.333 -15 66 -15c16.667 0 28.834 -2.5 36.501 -7.5s11.5 -13.333 11.5 -25s-1.33301 -20.167 -4 -25.5
c-8.66699 -0.666992 -20.667 -1 -36 -1c-58 0 -97.667 8.83301 -119 26.5s-32 45.834 -32 84.501v209c0 20 -9.66699 38.833 -29 56.5s-47.666 26.5 -84.999 26.5v50c37.333 0 65.833 9 85.5 27s29.5 37 29.5 57v209c0 38.667 10.5 66.834 31.5 84.501s60.5 26.5 118.5 26.5
c15.333 0 27.333 -0.333008 36 -1c2.66699 -5.33301 4 -13.833 4 -25.5s-3.83301 -20 -11.5 -25s-24.334 -7.5 -50.001 -7.5s-42.667 -4.33301 -51 -13s-12.5 -25.667 -12.5 -51v-199c0 -20.667 -7.16699 -42.167 -21.5 -64.5s-29.833 -36.5 -46.5 -42.5z" />
    <glyph glyph-name="bar" unicode="|" 
d="M237 136v308c0 157.333 -2.66699 253.666 -8 288.999c10.667 2 20.667 3 30 3c30.667 0 46 -12.667 46 -38c0 -2.66699 -0.333008 -20.667 -1 -54c-4 -120.667 -6 -218.334 -6 -293.001v-308c0 -157.333 2.66699 -253.666 8 -288.999c-10.667 -2 -20.667 -3 -30 -3
c-30.667 0 -46 12.667 -46 38c0 2.66699 0.666992 20.334 2 53.001c3.33301 82.667 5 180.667 5 294z" />
    <glyph glyph-name="braceright" unicode="}" horiz-adv-x="404" 
d="M223 286c-16.667 6 -32.1699 20.1699 -46.5029 42.5029s-21.5 43.833 -21.5 64.5v199c0 13.333 -0.5 23.166 -1.5 29.499s-4.16699 12.5 -9.5 18.5c-8 10.667 -25.167 16 -51.5 16s-43.333 2.5 -51 7.5s-11.5 13.333 -11.5 25s1.33301 20.167 4 25.5
c8.66699 0.666992 20.667 1 36 1c58 0 97.5 -8.83301 118.5 -26.5s31.5 -45.834 31.5 -84.501v-209c0 -20 9.83301 -39 29.5 -57s48.167 -27 85.5 -27v-50c-37.333 0 -65.666 -8.83301 -84.999 -26.5s-29 -36.5 -29 -56.5v-209c0 -38.667 -10.667 -66.834 -32 -84.501
s-61 -26.5 -119 -26.5c-15.333 0 -27.333 0.333008 -36 1c-2.66699 5.33301 -4 13.833 -4 25.5s3.83301 20 11.5 25s20.334 7.5 38.001 7.5s31.667 1 42 3s17.833 6.16699 22.5 12.5s7.5 12.5 8.5 18.5s1.5 16 1.5 30v199c0 20.667 7.33301 42 22 64s30.334 36 47.001 42z
" />
    <glyph glyph-name="asciitilde" unicode="~" horiz-adv-x="546" 
d="M40 267c0 41.333 32.668 62.001 98.001 62.001c34 0 77.5 -6.66699 130.5 -20s91.833 -20 116.5 -20c44 0 78 11.667 102 35c12.667 -16.667 19 -34.334 19 -53.001s-12 -33 -36 -43s-49.333 -15 -76 -15s-65.334 6.66699 -116.001 20s-89.667 20 -117 20
c-44 0 -78 -11.667 -102 -35c-12.667 16.667 -19 33 -19 49z" />
    <glyph glyph-name="exclamdown" unicode="&#xa1;" horiz-adv-x="311" 
d="M150 475c16.667 0 31 -6 43 -18s18 -27 18 -45s-6 -33.167 -18 -45.5s-26.333 -18.5 -43 -18.5s-30.834 6.16699 -42.501 18.5s-17.5 27.5 -17.5 45.5s5.83301 33 17.5 45s25.834 18 42.501 18zM192 114c0 -168 5.99902 -276.666 17.999 -325.999
c-23.333 -4.66699 -40.666 -7 -51.999 -7c-31.333 0 -47 16.333 -47 49c0 18.667 3 56 9 112s9 108 9 156v44c0 53.333 -5.33301 94.666 -16 123.999c13.333 6.66699 25.666 10 36.999 10c26.667 0 40.334 -16 41.001 -48c0.666992 -8.66699 1 -46.667 1 -114z" />
    <glyph glyph-name="cent" unicode="&#xa2;" 
d="M172 458c-24 -30.667 -36 -71.5 -36 -122.5s12 -91.833 36 -122.5s55 -51 93 -61v366c-38 -9.33301 -69 -29.333 -93 -60zM427 456c-33.333 46 -71.6689 69 -115.002 69h-8v-379h10c42.667 0 80.334 23 113.001 69c28.667 -6.66699 43 -22 43 -46s-18 -43.167 -54 -57.5
s-70.667 -21.5 -104 -21.5h-8c0.666992 -24 2.33398 -52 5.00098 -84l-15 -2c-19.333 0 -29 9 -29 27v63c-58.667 8.66699 -107.5 33 -146.5 73s-58.5 96 -58.5 168s19.667 128.167 59 168.5s88 64.833 146 73.5c-0.666992 16 -2.33398 46.667 -5.00098 92
c6.66699 2 12.334 3 17.001 3c18 0 27 -9 27 -27v-64h8c33.333 0 68 -7.16699 104 -21.5s54 -33.5 54 -57.5s-14.333 -39.333 -43 -46z" />
    <glyph glyph-name="sterling" unicode="&#xa3;" 
d="M410 391c2.66699 -5.33301 4.00195 -14.334 4.00195 -27.001s-4.16699 -21.167 -12.5 -25.5s-24.166 -6.5 -47.499 -6.5s-43.333 0.333008 -60 1c3.33301 -15.333 5 -29.666 5 -42.999c0 -73.333 -51 -151.666 -153 -234.999c15.333 -2 44.333 -3 87 -3
c89.333 0 162.666 10.667 219.999 32c10 -14.667 15 -28.834 15 -42.501s-9 -24.167 -27 -31.5c-24 -8.66699 -79.333 -13 -166 -13s-152 4 -196 12c-6 8 -9 21.667 -9 41c47.333 28.667 84.166 63.334 110.499 104.001s39.5 78.334 39.5 113.001c0 20.667 -4 43.667 -12 69
c-42 0 -78 -1.33301 -108 -4c-2 6 -3 11.333 -3 16c0 16 11.167 24.833 33.5 26.5s42.833 2.5 61.5 2.5l-15 33c-7.33301 16 -12.333 28 -15 36c-10 26 -15 48 -15 66c0 39.333 14.5 76 43.5 110s65.833 51 110.5 51c19.333 0 37.166 -4.83301 53.499 -14.5
s24.5 -23.667 24.5 -42s-11.333 -32.833 -34 -43.5c-14 23.333 -36.333 35 -67 35c-18 0 -33.333 -5.66699 -46 -17s-19 -26 -19 -44s3.5 -35.333 10.5 -52s16.5 -36.334 28.5 -59.001s21 -41.334 27 -56.001c58 3.33301 101.667 7 131 11z" />
    <glyph glyph-name="yen" unicode="&#xa5;" 
d="M224 196l-8.99902 0.00195312c-70 0 -123.667 -1.66699 -161 -5c-2 7.33301 -3 13 -3 17c0 18 9 27 27 27h147v71h-10c-70 0 -123.667 -1.66699 -161 -5c-2 7.33301 -3 13 -3 17c0 18 9 27 27 27h127c-79.333 151.333 -145.333 245.666 -198 282.999
c16.667 26.667 36 40 58 40c13.333 0 28 -12 44 -36c58 -84.667 112.333 -174.334 163 -269.001c31.333 42 64.833 97.667 100.5 167s54.167 116.333 55.5 141c2.66699 0.666992 7.66699 1 15 1c30.667 0 46 -13 46 -39c0 -15.333 -18.5 -55.333 -55.5 -120
s-73.5 -120.667 -109.5 -168c61.333 0 109.666 1.66699 144.999 5l2 -15c0 -19.333 -9 -29 -27 -29h-152v-71h15c70 0 124 1.66699 162 5l2 -15c0 -19.333 -9 -29 -27 -29h-152c0 -88 6 -151.667 18 -191c-12 -5.33301 -26 -8 -42 -8c-30 0 -45 16.333 -45 49
c0.666992 48.667 1 98.667 1 150z" />
    <glyph glyph-name="brokenbar" unicode="&#xa6;" 
d="M230 332l7 202v30c0 78 -2.66699 134.667 -8 170c10.667 2 20.667 3 30 3c30.667 0 46 -12.667 46 -38l-7 -171v-39c0 -80 2.66699 -144 8 -192c-10.667 -2 -20.667 -3 -30 -3c-30.667 0 -46 12.667 -46 38zM230 -211l7 202v31c0 78 -2.66699 134.667 -8 170
c10.667 2 20.667 3 30 3c30.667 0 46 -12.667 46 -38l-7 -171v-40c0 -80 2.66699 -144 8 -192c-10.667 -2 -20.667 -3 -30 -3c-30.667 0 -46 12.667 -46 38z" />
    <glyph glyph-name="section" unicode="&#xa7;" horiz-adv-x="445" 
d="M129 406c-9.33301 -14.667 -14 -34.167 -14 -58.5s11 -44.833 33 -61.5s51.833 -33.334 89.5 -50.001s65.5 -32.667 83.5 -48c9.33301 15.333 14 33.833 14 55.5s-7.5 40.334 -22.5 56.001s-32.167 27.167 -51.5 34.5c-63.333 25.333 -107.333 49.333 -132 72zM81.5 251
c-17.667 22 -26.4971 51.832 -26.4971 89.499s15.667 70.5 47 98.5c-16.667 32.667 -25 63.667 -25 93c0 41.333 15.333 75 46 101s71 39 121 39c31.333 0 62 -7 92 -21s45 -32.333 45 -55s-15 -37.667 -45 -45c-7.33301 19.333 -22.333 35 -45 47s-46.167 18 -70.5 18
s-44.5 -5.83301 -60.5 -17.5s-24 -29.167 -24 -52.5s6.33301 -43.5 19 -60.5s28.667 -30.167 48 -39.5l62.5 -31c22.333 -11.333 43.166 -22.5 62.499 -33.5s35.333 -26.833 48 -47.5s19 -45 19 -73c0 -41.333 -15.333 -76.666 -46 -105.999
c17.333 -28.667 26 -57.667 26 -87c0 -40.667 -15.333 -75.167 -46 -103.5s-69.834 -42.5 -117.501 -42.5s-87.334 7.66699 -119.001 23s-47.5 34.333 -47.5 57c0 19.333 15 33.333 45 42c15.333 -43.333 59.666 -65 132.999 -65c26.667 0 48.334 6.16699 65.001 18.5
s25 31.833 25 58.5s-8.83301 49 -26.5 67s-39.167 32.5 -64.5 43.5l-76 34c-25.333 11.667 -46.833 28.5 -64.5 50.5z" />
    <glyph glyph-name="dieresis" unicode="&#xa8;" horiz-adv-x="257" 
d="M252 536.5c-10.667 -10.333 -22.834 -15.499 -36.501 -15.499s-25.5 5 -35.5 15s-15 22.667 -15 38s5.33301 28.166 16 38.499s22.834 15.5 36.501 15.5s25.5 -5.16699 35.5 -15.5s15 -23 15 -38s-5.33301 -27.667 -16 -38zM74 536.501
c-10.667 -10.333 -22.834 -15.499 -36.501 -15.499s-25.5 5 -35.5 15s-15 22.667 -15 38s5.33301 28.166 16 38.499s22.834 15.5 36.501 15.5s25.5 -5.16699 35.5 -15.5s15 -23 15 -38s-5.33301 -27.667 -16 -38z" />
    <glyph glyph-name="copyright" unicode="&#xa9;" horiz-adv-x="888" 
d="M588 195c19.333 -10.667 28.999 -23.666 28.999 -38.999s-12.333 -28.833 -37 -40.5s-51.667 -17.5 -81 -17.5s-55.833 3.83301 -79.5 11.5s-46 19.667 -67 36s-37.833 39.333 -50.5 69s-19 64.167 -19 103.5c0 75.333 20.833 132.5 62.5 171.5s88.834 58.5 141.501 58.5
c43.333 0 79 -12 107 -36c16 -12.667 24 -27.667 24 -45c0 -22.667 -14.333 -36 -43 -40c-6 20.667 -18.167 36.167 -36.5 46.5s-37.833 15.5 -58.5 15.5c-32 0 -58.833 -14.667 -80.5 -44s-32.5 -70.833 -32.5 -124.5s13.333 -94.334 40 -122.001s59 -41.5 97 -41.5
s66 12.667 84 38zM670.499 105.001c53 54.667 79.5 126.169 79.5 214.502s-26.5 160 -79.5 215s-117.833 82.5 -194.5 82.5s-141.5 -27.333 -194.5 -82s-79.5 -126.334 -79.5 -215.001s26.5 -160.334 79.5 -215.001s117.833 -82 194.5 -82s141.5 27.333 194.5 82z
M721.999 573.003c66.667 -67.333 100 -151.333 100 -252s-33.5 -185 -100.5 -253s-149 -102 -246 -102s-178.833 33.833 -245.5 101.5s-100 152 -100 253s33.333 185.167 100 252.5s148.667 101 246 101s179.333 -33.667 246 -101z" />
    <glyph glyph-name="ordfeminine" unicode="&#xaa;" horiz-adv-x="302" 
d="M236 256l-88.002 8c-43.333 0 -81.666 -2.66699 -114.999 -8c-2 8 -3 16.333 -3 25s3 16.5 9 23.5s15 10.5 27 10.5c1.33301 0 13.333 -1.16699 36 -3.5s50.5 -3.5 83.5 -3.5s60.833 2.33301 83.5 7c2 -7.33301 3 -15.5 3 -24.5s-3.16699 -17 -9.5 -24
s-15.166 -10.5 -26.499 -10.5zM249.998 553l-1 -74c0 -43.333 3.33301 -75 10 -95c-8 -2.66699 -17 -4 -27 -4c-18.667 0 -29 8 -31 24c-22.667 -18.667 -46.334 -28 -71.001 -28c-58 0 -87 26.333 -87 79c0 33.333 17 54.333 51 63c28.667 8 64 12.667 106 14
c0 28 -3.66699 47.167 -11 57.5s-19.666 15.5 -36.999 15.5c-36 0 -59.333 -12 -70 -36c-20 4.66699 -30 12.667 -30 24c0 15.333 10 27.5 30 36.5s45 13.5 75 13.5s53 -6.5 69 -19.5s24 -36.5 24 -70.5zM197.998 500c-54 -6 -85.333 -14 -94 -24c-4 -4.66699 -6 -11 -6 -19
c0 -29.333 14.667 -44 44 -44c24 0 42 7 54 21v25c0 18 0.666992 31.667 2 41z" />
    <glyph glyph-name="guillemotleft" unicode="&#xab;" horiz-adv-x="474" 
d="M308 235c23.333 -28.667 46.833 -60.6689 70.5 -96.002s35.5 -57.5 35.5 -66.5s-6.66699 -18.5 -20 -28.5c-44 36.667 -99 100.334 -165 191.001c66 90.667 121 154.334 165 191.001c13.333 -10 20 -19.5 20 -28.5s-11.833 -31.167 -35.5 -66.5
s-47.167 -67.333 -70.5 -96zM119 234.998c23.333 -28.667 46.833 -60.6689 70.5 -96.002s35.5 -57.5 35.5 -66.5s-6.66699 -18.5 -20 -28.5c-44 36.667 -99 100.334 -165 191.001c66 90.667 121 154.334 165 191.001c13.333 -10 20 -19.5 20 -28.5
s-11.833 -31.167 -35.5 -66.5s-47.167 -67.333 -70.5 -96z" />
    <glyph glyph-name="logicalnot" unicode="&#xac;" 
d="M447 324l2 -221.999c0 -18.667 -3 -31.834 -9 -39.501s-16.333 -11.5 -31 -11.5s-27.334 2.66699 -38.001 8c11.333 37.333 17 96.333 17 177v36h-231c-37.333 0 -70.666 -5 -99.999 -15c-4.66699 11.333 -7 21.333 -7 30c0 24.667 14 37 42 37h355z" />
    <glyph glyph-name="registered" unicode="&#xae;" horiz-adv-x="607" 
d="M498 440c0 54.667 -16.333 98.834 -49 132.501s-72.834 50.5 -120.501 50.5s-87.834 -16.833 -120.501 -50.5s-49 -77.834 -49 -132.501s16.333 -98.834 49 -132.501s72.834 -50.5 120.501 -50.5s87.834 16.833 120.501 50.5s49 77.834 49 132.501zM557 440
c0 -66 -22.167 -121.332 -66.5 -165.999s-98.5 -67 -162.5 -67s-118 22.333 -162 67s-66 100.167 -66 166.5s22 121.666 66 165.999s98 66.5 162 66.5s118.167 -22.333 162.5 -67s66.5 -100 66.5 -166zM240 348.001l2.00195 60.001v69c0 34.667 -1.33301 61.667 -4 81
c41.333 3.33301 68.333 5 81 5c72 0 108 -24 108 -72c0 -36 -21.333 -58.333 -64 -67c13.333 -22.667 29 -44 47 -64c5.33301 -5.33301 12.666 -8 21.999 -8c1.33301 -2.66699 2 -6.33398 2 -11.001c0 -12 -8.5 -18 -25.5 -18s-31.167 8.33301 -42.5 25
c-2 3.33301 -9.83301 14.166 -23.5 32.499s-22.834 31.5 -27.501 39.5c-8 0 -15.333 1 -22 3v-26c0 -29.333 2.66699 -51.666 8 -66.999c-6 -3.33301 -16 -5 -30 -5c-20.667 0 -31 7.66699 -31 23zM293.002 449.002c13.333 -2.66699 25.168 -3.99902 35.501 -3.99902
s21 3.66699 32 11s16.5 19 16.5 35c0 26.667 -20.667 40 -62 40c-4.66699 0 -12.334 -0.666992 -23.001 -2c0.666992 -6.66699 1 -33.334 1 -80.001z" />
    <glyph glyph-name="macron" unicode="&#xaf;" horiz-adv-x="272" 
d="M30 615l101.999 -6h22c44 0 82.667 2 116 6c1.33301 -8.66699 2 -17.667 2 -27c0 -24.667 -10 -37 -30 -37c-2 0 -8.66699 0.333008 -20 1c-35.333 3.33301 -66.666 5 -93.999 5h-22c-40 0 -74.667 -2 -104 -6c-1.33301 6.66699 -2 15.667 -2 27c0 24.667 10 37 30 37z
" />
    <glyph glyph-name="degree" unicode="&#xb0;" horiz-adv-x="406" 
d="M110 547c0 -30.667 7.66699 -55.667 23 -75s37.333 -29 66 -29s51 10.167 67 30.5s24 45.833 24 76.5s-7.5 55.834 -22.5 75.501s-36.833 29.5 -65.5 29.5s-51.167 -10.333 -67.5 -31s-24.5 -46.334 -24.5 -77.001zM90.5 438
c-28.333 28.667 -42.499 65.166 -42.499 109.499s14.5 81.333 43.5 111s65.833 44.5 110.5 44.5s81 -14.5 109 -43.5s42 -65.667 42 -110s-14.333 -81.166 -43 -110.499s-65.334 -44 -110.001 -44s-81.167 14.333 -109.5 43z" />
    <glyph glyph-name="plusminus" unicode="&#xb1;" 
d="M420 6l-155.999 8c-76 0 -143.333 -2.66699 -202 -8c-2 10 -3 20.167 -3 30.5s3 19.833 9 28.5s15 13 27 13c2 0 23 -1.16699 63 -3.5s89 -3.5 147 -3.5s107.333 2.33301 148 7c2 -6 3 -15.5 3 -28.5s-3.33301 -23.5 -10 -31.5s-15.334 -12 -26.001 -12zM303.001 445
l-6.99902 -124.998c72 0 131 2.66699 177 8c2 -6 3 -15.5 3 -28.5s-3.33301 -23.5 -10 -31.5s-15.334 -12 -26.001 -12l-145 7c0 -39.333 2.66699 -88.333 8 -147c-10 -2 -20.333 -3 -31 -3s-20.167 3.16699 -28.5 9.5s-12.5 13.333 -12.5 21s1 22.167 3 43.5
s3.33301 47 4 77c-58 -0.666992 -116.667 -3.33398 -176 -8.00098c-2 10 -3 20.167 -3 30.5s3 19.833 9 28.5s15 13 27 13l144 -7c0 58.667 -2.66699 111 -8 157c6 2 15.5 3 28.5 3s23.5 -3.33301 31.5 -10s12 -15.334 12 -26.001z" />
    <glyph glyph-name="twosuperior" unicode="&#xb2;" horiz-adv-x="450" 
d="M105 549c-21.333 2 -32.0029 11.3311 -32.0029 27.998c0 20.667 15.167 41.834 45.5 63.501s64.833 32.5 103.5 32.5s70.334 -11.333 95.001 -34s37 -53.5 37 -92.5s-19 -82.833 -57 -131.5s-95.667 -95.334 -173 -140.001c19.333 -0.666992 47.666 -1 84.999 -1
c72.667 0 127 8 163 24c8.66699 -13.333 13 -26.166 13 -38.499s-7.66699 -21.5 -23 -27.5c-21.333 -8 -61.666 -12 -120.999 -12s-104.333 0.333008 -135 1s-46 14.334 -46 41.001c0 9.33301 0.333008 15 1 17c74.667 44 131.334 89.5 170.001 136.5s58 89.5 58 127.5
c0 23.333 -7.66699 42.333 -23 57s-33.5 22 -54.5 22s-41.167 -7 -60.5 -21s-34.666 -31.333 -45.999 -52z" />
    <glyph glyph-name="threesuperior" unicode="&#xb3;" horiz-adv-x="424" 
d="M166 472c38.667 3.33301 67.502 11 86.502 23s28.5 30.333 28.5 55s-5.66699 42.834 -17 54.501s-33 17.5 -65 17.5s-62.667 -17.667 -92 -53c-21.333 4 -32 14.667 -32 32c0 12.667 7 24.334 21 35.001c32.667 24.667 71.167 37 115.5 37s77.833 -9.66699 100.5 -29
s34 -45.333 34 -78c0 -53.333 -28.667 -89.333 -86 -108c32 -10 55.667 -25.167 71 -45.5s23 -43.166 23 -68.499c0 -36 -14.667 -67.667 -44 -95s-71.333 -41 -126 -41c-32.667 0 -61.5 5.66699 -86.5 17s-37.5 25.166 -37.5 41.499s9.33301 27.5 28 33.5
c26 -27.333 60 -41 102 -41c29.333 0 53.166 7.5 71.499 22.5s27.5 35.833 27.5 62.5c0 60 -39.333 90 -118 90c-10.667 0 -17.334 2.16699 -20.001 6.5s-4 9.66602 -4 15.999s0.333008 11.166 1 14.499c7.33301 0 13.333 0.333008 18 1z" />
    <glyph glyph-name="acute" unicode="&#xb4;" horiz-adv-x="201" 
d="M216 702c23.333 -13.333 35 -27.667 35 -43s-7.83301 -28.5 -23.5 -39.5s-42.667 -27.667 -81 -50s-61.833 -37.5 -70.5 -45.5c-10.667 9.33301 -16 19.333 -16 30s5.33301 20.167 16 28.5l57.5 43.5c27.667 20.667 55.167 46 82.5 76z" />
    <glyph glyph-name="mu" unicode="&#xb5;" horiz-adv-x="513" 
d="M438 430l-4 -226.998c0 -84.667 6.33301 -150.667 19 -198c-13.333 -5.33301 -25.666 -8 -36.999 -8c-30.667 0 -46 16.667 -46 50c-20 -16.667 -44 -30.334 -72 -41.001s-57.833 -16 -89.5 -16s-58.834 10 -81.501 30c-5.33301 -22.667 -8 -46.334 -8 -71.001
c0 -60 12.333 -124.667 37 -194c-12 -5.33301 -26.5 -8 -43.5 -8s-28.833 4.33301 -35.5 13s-10 23.334 -10 44.001c0 92 0.666992 201.333 2 328l3 177c0 60.667 -5.66699 111 -17 151c13.333 5.33301 27.5 8 42.5 8s26.333 -3.83301 34 -11.5s11.5 -20.834 11.5 -39.501
l-6 -259c0 -36 8.83301 -63.667 26.5 -83s40.5 -29 68.5 -29c48 0 93 18.333 135 55c-0.666992 28.667 -1 82 -1 160s-2.33301 146 -7 204c10.667 2 22 3 34 3c30 0 45 -12.667 45 -38z" />
    <glyph glyph-name="paragraph" unicode="&#xb6;" horiz-adv-x="483" 
d="M225 575l146.001 -3.99902c37.333 0 66.333 0.333008 87 1c3.33301 -10 5 -18 5 -24c0 -22.667 -19.333 -34 -58 -34h-22c-8.66699 -101.333 -13 -217.333 -13 -348l4 -241c0 -16 -3.33301 -28.5 -10 -37.5s-18 -13.5 -34 -13.5s-30.667 2.66699 -44 8
c11.333 32 17 122 17 270s3.33301 268.667 10 362c-30.667 0 -49 0.666992 -55 2c-6.66699 -60.667 -10 -154.334 -10 -281.001c0 -11.333 -15 -17 -45 -17c-43.333 0 -80.5 16.167 -111.5 48.5s-46.5 75.333 -46.5 129s17.167 97 51.5 130s77.166 49.5 128.499 49.5z" />
    <glyph glyph-name="periodcentered" unicode="&#xb7;" horiz-adv-x="201" 
d="M101 197c-16.667 0 -31 6 -43 18s-18 27 -18 45s6 33.167 18 45.5s26.333 18.5 43 18.5s30.834 -6.16699 42.501 -18.5s17.5 -27.5 17.5 -45.5s-5.83301 -33 -17.5 -45s-25.834 -18 -42.501 -18z" />
    <glyph glyph-name="cedilla" unicode="&#xb8;" horiz-adv-x="155" 
d="M92 32l37.001 -5.00195c-12 -36 -18 -55 -18 -57s0.166992 -4 0.5 -6s1.16602 -3.66699 2.49902 -5s2.33301 -2.66602 3 -3.99902s2.16699 -2.83301 4.5 -4.5s3.83301 -2.83398 4.5 -3.50098c5.33301 -3.33301 9.33301 -5.66602 12 -6.99902c31.333 -18 47 -41 47 -69
s-11.5 -52.167 -34.5 -72.5s-51.5 -30.5 -85.5 -30.5c-23.333 0 -35 8.33301 -35 25c0 10.667 4.33301 20.334 13 29.001c10 -6 20.333 -9 31 -9c33.333 0 50 13.333 50 40c0 15.333 -10.167 31.5 -30.5 48.5s-30.5 31.833 -30.5 44.5c0 22 9.66699 50.667 29 86z" />
    <glyph glyph-name="onesuperior" unicode="&#xb9;" horiz-adv-x="383" 
d="M167 271l2.00195 190.998c0 58.667 -1 110.334 -3 155.001c-45.333 -7.33301 -75.333 -13.666 -90 -18.999c-4 8 -6 16 -6 24c0 19.333 11.333 31.666 34 36.999c43.333 9.33301 74.666 14 93.999 14c24 0 36 -11.333 36 -34c0 -3.33301 -0.666992 -15.333 -2 -36
c-3.33301 -51.333 -5 -106.666 -5 -165.999v-47c0 -54 2 -94.667 6 -122c25.333 0 50.666 1.33301 75.999 4c2.66699 -8 4 -14.667 4 -20c0 -22.667 -11.667 -34 -35 -34l-124 2c-33.333 0 -59.333 -0.333008 -78 -1c-3.33301 8.66699 -5 15.667 -5 21
c0 20.667 17.667 31 53 31h43z" />
    <glyph glyph-name="ordmasculine" unicode="&#xba;" horiz-adv-x="315" 
d="M243 256l-88.002 8c-43.333 0 -81.666 -2.66699 -114.999 -8c-2 8 -3 16.333 -3 25s3 16.5 9 23.5s15 10.5 27 10.5c1.33301 0 13.333 -1.16699 36 -3.5s50.5 -3.5 83.5 -3.5s60.833 2.33301 83.5 7c2 -7.33301 3 -15.5 3 -24.5s-3.16699 -17 -9.5 -24
s-15.166 -10.5 -26.499 -10.5zM249.998 412c-23.333 -24 -54.166 -35.998 -92.499 -35.998s-69.166 12.167 -92.499 36.5s-35 56.666 -35 96.999s11.667 72.666 35 96.999s54.166 36.5 92.499 36.5s69.166 -12.167 92.499 -36.5s35 -56.833 35 -97.5s-11.667 -73 -35 -97z
M211.998 438.502c13.333 15.667 19.999 37.332 19.999 64.999s-6.66699 51.334 -20 71.001s-31.666 29.5 -54.999 29.5s-41.333 -7.83301 -54 -23.5s-19 -37.5 -19 -65.5s6.5 -51.667 19.5 -71s31 -29 54 -29s41.167 7.83301 54.5 23.5z" />
    <glyph glyph-name="guillemotright" unicode="&#xbb;" horiz-adv-x="474" 
d="M146 235c-23.333 28.667 -46.833 60.6689 -70.5 96.002s-35.5 57.5 -35.5 66.5s6.66699 18.5 20 28.5c44 -36.667 99 -100.334 165 -191.001c-66 -90.667 -121 -154.334 -165 -191.001c-13.333 10 -20 19.5 -20 28.5s11.833 31.167 35.5 66.5s47.167 67.333 70.5 96z
M335 235.002c-23.333 28.667 -46.833 60.6689 -70.5 96.002s-35.5 57.5 -35.5 66.5s6.66699 18.5 20 28.5c44 -36.667 99 -100.334 165 -191.001c-66 -90.667 -121 -154.334 -165 -191.001c-13.333 10 -20 19.5 -20 28.5s11.833 31.167 35.5 66.5s47.167 67.333 70.5 96z
" />
    <glyph glyph-name="onequarter" unicode="&#xbc;" horiz-adv-x="914" 
d="M231 -57l292 585c42.667 85.333 75.667 156 99 212c12 0 23.167 -2.66699 33.5 -8s15.5 -13 15.5 -23c0 -6 -18.667 -46 -56 -120l-233.5 -465.5c-49 -98.333 -84.833 -175.166 -107.5 -230.499c-13.333 0 -24.833 2.66699 -34.5 8s-14.5 11.666 -14.5 18.999s2 15 6 23z
M562 185c22 -1.33301 71.667 -2.00098 149 -2.00098c0 52.667 0.666992 115.667 2 189l-34.5 -37c-17 -18 -29.5 -31.667 -37.5 -41c-28.667 -33.333 -55 -69.666 -79 -108.999zM709 41.999l2 87c-89.333 0 -150.666 2.33301 -183.999 7c-12.667 0.666992 -19 12.667 -19 36
c0 11.333 0.333008 19 1 23c23.333 39.333 55.5 84 96.5 134s75.5 87.333 103.5 112c8 7.33301 23 11 45 11c4 0 11.333 -0.666992 22 -2c0 -1.33301 -0.666992 -13.333 -2 -36c-4 -69.333 -6 -144.666 -6 -225.999c32 2 54.667 6 68 12
c5.33301 -10.667 8 -22.834 8 -36.501s-5.66699 -22.5 -17 -26.5s-31 -6.33301 -59 -7c0 -54 5.33301 -98 16 -132c-10.667 -5.33301 -22.834 -8 -36.501 -8s-23.5 4 -29.5 12s-9 21.333 -9 40zM167 270.999l2.00195 190.998c0 58.667 -1 110.334 -3 155.001
c-45.333 -7.33301 -75.333 -13.666 -90 -18.999c-4 8 -6 16 -6 24c0 19.333 11.333 31.666 34 36.999c43.333 9.33301 74.666 14 93.999 14c24 0 36 -11.333 36 -34c0 -3.33301 -0.666992 -15.333 -2 -36c-3.33301 -51.333 -5 -106.666 -5 -165.999v-47
c0 -54 2 -94.667 6 -122c25.333 0 50.666 1.33301 75.999 4c2.66699 -8 4 -14.667 4 -20c0 -22.667 -11.667 -34 -35 -34l-124 2c-33.333 0 -59.333 -0.333008 -78 -1c-3.33301 8.66699 -5 15.667 -5 21c0 20.667 17.667 31 53 31h43z" />
    <glyph glyph-name="onehalf" unicode="&#xbd;" horiz-adv-x="965" 
d="M232 -57l292 585c42.667 85.333 75.667 156 99 212c12 0 23.167 -2.66699 33.5 -8s15.5 -13 15.5 -23c0 -6 -18.667 -46 -56 -120l-233.5 -465.5c-49 -98.333 -84.833 -175.166 -107.5 -230.499c-13.333 0 -24.833 2.66699 -34.5 8s-14.5 11.666 -14.5 18.999s2 15 6 23z
M620 328c-21.333 2 -32.0029 11.333 -32.0029 28c0 20.667 15.167 41.834 45.5 63.501s64.833 32.5 103.5 32.5s70.334 -11.333 95.001 -34s37 -53.5 37 -92.5s-19 -82.833 -57 -131.5s-95.667 -95.334 -173 -140.001c19.333 -0.666992 47.666 -1 84.999 -1
c72.667 0 127 8 163 24c8.66699 -12.667 13 -25.334 13 -38.001s-7.66699 -22 -23 -28c-21.333 -8 -61.666 -12 -120.999 -12s-104.333 0.333008 -135 1s-46 14.334 -46 41.001c0 9.33301 0.333008 15 1 17c74.667 44 131.334 89.5 170.001 136.5s58 89.5 58 127.5
c0 23.333 -7.66699 42.333 -23 57s-33.5 22 -54.5 22s-41.167 -7 -60.5 -21s-34.666 -31.333 -45.999 -52zM166.997 271l2.00195 190.998c0 58.667 -1 110.334 -3 155.001c-45.333 -7.33301 -75.333 -13.666 -90 -18.999c-4 8 -6 16 -6 24c0 19.333 11.333 31.666 34 36.999
c43.333 9.33301 74.666 14 93.999 14c24 0 36 -11.333 36 -34c0 -3.33301 -0.666992 -15.333 -2 -36c-3.33301 -51.333 -5 -106.666 -5 -165.999v-47c0 -54 2 -94.667 6 -122c25.333 0 50.666 1.33301 75.999 4c2.66699 -8 4 -14.667 4 -20c0 -22.667 -11.667 -34 -35 -34
l-124 2c-33.333 0 -59.333 -0.333008 -78 -1c-3.33301 8.66699 -5 15.667 -5 21c0 20.667 17.667 31 53 31h43z" />
    <glyph glyph-name="threequarters" unicode="&#xbe;" horiz-adv-x="938" 
d="M166 472c38.667 3.33301 67.502 11 86.502 23s28.5 30.333 28.5 55s-5.66699 42.834 -17 54.501s-33 17.5 -65 17.5s-62.667 -17.667 -92 -53c-21.333 4 -32 14.667 -32 32c0 12.667 7 24.334 21 35.001c32.667 24.667 71.167 37 115.5 37s77.833 -9.66699 100.5 -29
s34 -45.333 34 -78c0 -53.333 -28.667 -89.333 -86 -108c32 -10 55.667 -25.167 71 -45.5s23 -43.166 23 -68.499c0 -36 -14.667 -67.667 -44 -95s-71.333 -41 -126 -41c-32.667 0 -61.5 5.66699 -86.5 17s-37.5 25.166 -37.5 41.499s9.33301 27.5 28 33.5
c26 -27.333 60 -41 102 -41c29.333 0 53.166 7.5 71.499 22.5s27.5 35.833 27.5 62.5c0 60 -39.333 90 -118 90c-10.667 0 -17.334 2.16699 -20.001 6.5s-4 9.66602 -4 15.999s0.333008 11.166 1 14.499c7.33301 0 13.333 0.333008 18 1zM586.002 185
c22 -1.33301 71.667 -2.00098 149 -2.00098c0 52.667 0.666992 115.667 2 189l-34.5 -37c-17 -18 -29.5 -31.667 -37.5 -41c-28.667 -33.333 -55 -69.666 -79 -108.999zM733.002 41.999l2 87c-89.333 0 -150.666 2.33301 -183.999 7c-12.667 0.666992 -19 12.667 -19 36
c0 11.333 0.333008 19 1 23c23.333 39.333 55.5 84 96.5 134s75.5 87.333 103.5 112c8 7.33301 23 11 45 11c4 0 11.333 -0.666992 22 -2c0 -1.33301 -0.666992 -13.333 -2 -36c-4 -69.333 -6 -144.666 -6 -225.999c32 2 54.667 6 68 12
c5.33301 -10.667 8 -22.834 8 -36.501s-5.66699 -22.5 -17 -26.5s-31 -6.33301 -59 -7c0 -54 5.33301 -98 16 -132c-10.667 -5.33301 -22.834 -8 -36.501 -8s-23.5 4 -29.5 12s-9 21.333 -9 40zM255.002 -57.001l292 585c42.667 85.333 75.667 156 99 212
c12 0 23.167 -2.66699 33.5 -8s15.5 -13 15.5 -23c0 -6 -18.667 -46 -56 -120l-233.5 -465.5c-49 -98.333 -84.833 -175.166 -107.5 -230.499c-13.333 0 -24.833 2.66699 -34.5 8s-14.5 11.666 -14.5 18.999s2 15 6 23z" />
    <glyph glyph-name="questiondown" unicode="&#xbf;" horiz-adv-x="357" 
d="M163 266c14 6.66699 26.667 10.0029 38 10.0029c30.667 0 46 -22.667 46 -68c0 -40 -18 -80.333 -54 -121l-45 -50c-36 -40.667 -54 -82.334 -54 -125.001c0 -28 11.667 -49 35 -63c14 -8 32.333 -12 55 -12s45.5 6.83301 68.5 20.5s37.5 31.834 43.5 54.501
c30.667 -4.66699 46 -19.334 46 -44.001c0 -26.667 -14.667 -47.834 -44 -63.501s-65.5 -23.5 -108.5 -23.5s-79.5 9 -109.5 27c-40 23.333 -60 58.666 -60 105.999c0 30 5.33301 57 16 81s23.5 43.667 38.5 59s30.167 30 45.5 44c36 34 54 69 54 105
c0 20 -3.66699 41 -11 63zM200 475.003c16.667 0 31 -6 43 -18s18 -27 18 -45s-6 -33.167 -18 -45.5s-26.333 -18.5 -43 -18.5s-30.834 6.16699 -42.501 18.5s-17.5 27.5 -17.5 45.5s5.83301 33 17.5 45s25.834 18 42.501 18z" />
    <glyph glyph-name="Agrave" unicode="&#xc0;" horiz-adv-x="551" 
d="M197 894c24.667 -27.333 50.666 -51.499 77.999 -72.499l59 -46c12 -9.66699 18 -19.5 18 -29.5s-5.33301 -19.667 -16 -29c-18.667 14 -44.167 30 -76.5 48s-56.666 33 -72.999 45s-24.5 25.667 -24.5 41s11.667 29.666 35 42.999zM387.999 268.001
c-22.667 59.333 -56.999 159.667 -102.999 301c-6 -15.333 -21.333 -58 -46 -128s-46.334 -127.667 -65.001 -173c52 -1.33301 95.667 -2 131 -2s63 0.666992 83 2zM409 209.002c-74.667 -1.33301 -120.001 -2 -136.001 -2s-57.333 0.666992 -124 2
c-44.667 -112.667 -72.667 -189.334 -84 -230.001c-22 4.66699 -37.5 10 -46.5 16s-13.5 13.5 -13.5 22.5s14.333 46.833 43 113.5c96 226 162.333 402.333 199 529c12.667 2 27 3 43 3s27.333 -2.83301 34 -8.5s13.667 -20.5 21 -44.5
c42 -135.333 84.167 -258.166 126.5 -368.499s74.833 -187.5 97.5 -231.5c-18.667 -13.333 -34.667 -20 -48 -20c-21.333 0 -35.666 9 -42.999 27c-12.667 32.667 -35.667 96.667 -69 192z" />
    <glyph glyph-name="Aacute" unicode="&#xc1;" horiz-adv-x="551" 
d="M391 894c23.333 -13.333 35 -27.667 35 -43s-7.83301 -28.5 -23.5 -39.5s-42.667 -27.667 -81 -50s-61.833 -37.5 -70.5 -45.5c-10.667 9.33301 -16 19.333 -16 30s5.33301 20.167 16 28.5l57.5 43.5c27.667 20.667 55.167 46 82.5 76zM388 267.999
c-22.667 59.333 -56.999 159.667 -102.999 301c-6 -15.333 -21.333 -58 -46 -128s-46.334 -127.667 -65.001 -173c52 -1.33301 95.667 -2 131 -2s63 0.666992 83 2zM409.001 209c-74.667 -1.33301 -120.001 -2 -136.001 -2s-57.333 0.666992 -124 2
c-44.667 -112.667 -72.667 -189.334 -84 -230.001c-22 4.66699 -37.5 10 -46.5 16s-13.5 13.5 -13.5 22.5s14.333 46.833 43 113.5c96 226 162.333 402.333 199 529c12.667 2 27 3 43 3s27.333 -2.83301 34 -8.5s13.667 -20.5 21 -44.5
c42 -135.333 84.167 -258.166 126.5 -368.499s74.833 -187.5 97.5 -231.5c-18.667 -13.333 -34.667 -20 -48 -20c-21.333 0 -35.666 9 -42.999 27c-12.667 32.667 -35.667 96.667 -69 192z" />
    <glyph glyph-name="Acircumflex" unicode="&#xc2;" horiz-adv-x="551" 
d="M303 871c31.333 -20 60.834 -42.5 88.501 -67.5s41.5 -45 41.5 -60s-7.66699 -25.833 -23 -32.5c-12.667 16 -28 31.333 -46 46s-33 25.667 -45 33l-18 10l-18.5 -15.5l-20 -16.5l-18.5 -14.5l-18.5 -14c-5 -3.66699 -10.167 -7.16699 -15.5 -10.5
c-10 -6.66699 -18.333 -10 -25 -10s-14.334 6 -23.001 18c42.667 51.333 89.667 96 141 134zM388.001 268c-22.667 59.333 -56.999 159.667 -102.999 301c-6 -15.333 -21.333 -58 -46 -128s-46.334 -127.667 -65.001 -173c52 -1.33301 95.667 -2 131 -2s63 0.666992 83 2z
M409.002 209.001c-74.667 -1.33301 -120.001 -2 -136.001 -2s-57.333 0.666992 -124 2c-44.667 -112.667 -72.667 -189.334 -84 -230.001c-22 4.66699 -37.5 10 -46.5 16s-13.5 13.5 -13.5 22.5s14.333 46.833 43 113.5c96 226 162.333 402.333 199 529c12.667 2 27 3 43 3
s27.333 -2.83301 34 -8.5s13.667 -20.5 21 -44.5c42 -135.333 84.167 -258.166 126.5 -368.499s74.833 -187.5 97.5 -231.5c-18.667 -13.333 -34.667 -20 -48 -20c-21.333 0 -35.666 9 -42.999 27c-12.667 32.667 -35.667 96.667 -69 192z" />
    <glyph glyph-name="Atilde" unicode="&#xc3;" horiz-adv-x="551" 
d="M388 268c-22.667 59.333 -56.999 159.667 -102.999 301c-6 -15.333 -21.333 -58 -46 -128s-46.334 -127.667 -65.001 -173c52 -1.33301 95.667 -2 131 -2s63 0.666992 83 2zM409.001 209.001c-74.667 -1.33301 -120.001 -2 -136.001 -2s-57.333 0.666992 -124 2
c-44.667 -112.667 -72.667 -189.334 -84 -230.001c-22 4.66699 -37.5 10 -46.5 16s-13.5 13.5 -13.5 22.5s14.333 46.833 43 113.5c96 226 162.333 402.333 199 529c12.667 2 27 3 43 3s27.333 -2.83301 34 -8.5s13.667 -20.5 21 -44.5
c42 -135.333 84.167 -258.166 126.5 -368.499s74.833 -187.5 97.5 -231.5c-18.667 -13.333 -34.667 -20 -48 -20c-21.333 0 -35.666 9 -42.999 27c-12.667 32.667 -35.667 96.667 -69 192zM438 798.001c0 -18.667 -10.332 -36.667 -30.999 -54s-40.334 -26 -59.001 -26
s-40.5 7.5 -65.5 22.5s-43.5 22.5 -55.5 22.5s-31.667 -14 -59 -42c-10.667 4.66699 -16 11.667 -16 21c0 18 10.5 35.833 31.5 53.5s43.167 26.5 66.5 26.5c12 0 31 -7.5 57 -22.5s45.667 -22.5 59 -22.5s32 14 56 42c10.667 -4 16 -11 16 -21z" />
    <glyph glyph-name="Adieresis" unicode="&#xc4;" horiz-adv-x="551" 
d="M388 268c-22.667 59.333 -56.999 159.667 -102.999 301c-6 -15.333 -21.333 -58 -46 -128s-46.334 -127.667 -65.001 -173c52 -1.33301 95.667 -2 131 -2s63 0.666992 83 2zM409.001 209.001c-74.667 -1.33301 -120.001 -2 -136.001 -2s-57.333 0.666992 -124 2
c-44.667 -112.667 -72.667 -189.334 -84 -230.001c-22 4.66699 -37.5 10 -46.5 16s-13.5 13.5 -13.5 22.5s14.333 46.833 43 113.5c96 226 162.333 402.333 199 529c12.667 2 27 3 43 3s27.333 -2.83301 34 -8.5s13.667 -20.5 21 -44.5
c42 -135.333 84.167 -258.166 126.5 -368.499s74.833 -187.5 97.5 -231.5c-18.667 -13.333 -34.667 -20 -48 -20c-21.333 0 -35.666 9 -42.999 27c-12.667 32.667 -35.667 96.667 -69 192zM400 727.501c-10.667 -10.333 -22.834 -15.499 -36.501 -15.499s-25.5 5 -35.5 15
s-15 22.667 -15 38s5.33301 28.166 16 38.499s22.834 15.5 36.501 15.5s25.5 -5.16699 35.5 -15.5s15 -23 15 -38s-5.33301 -27.667 -16 -38zM222 727.502c-10.667 -10.333 -22.834 -15.499 -36.501 -15.499s-25.5 5 -35.5 15s-15 22.667 -15 38s5.33301 28.166 16 38.499
s22.834 15.5 36.501 15.5s25.5 -5.16699 35.5 -15.5s15 -23 15 -38s-5.33301 -27.667 -16 -38z" />
    <glyph glyph-name="Aring" unicode="&#xc5;" horiz-adv-x="551" 
d="M361 736.5c-16 -16.333 -37.167 -24.5 -63.5 -24.5s-47.666 8.16699 -63.999 24.5s-24.5 37.833 -24.5 64.5s8.16699 48.167 24.5 64.5s37.666 24.5 63.999 24.5s47.5 -8.16699 63.5 -24.5s24 -37.833 24 -64.5s-8 -48.167 -24 -64.5zM331 758.5c8 9 12 22 12 39
s-4 31.167 -12 42.5s-19.167 17 -33.5 17s-25.666 -4.66699 -33.999 -14s-12.5 -22.333 -12.5 -39s4.16699 -30.667 12.5 -42s19.666 -17 33.999 -17s25.5 4.5 33.5 13.5zM388 268c-22.667 59.333 -56.999 159.667 -102.999 301c-6 -15.333 -21.333 -58 -46 -128
s-46.334 -127.667 -65.001 -173c52 -1.33301 95.667 -2 131 -2s63 0.666992 83 2zM409.001 209.001c-74.667 -1.33301 -120.001 -2 -136.001 -2s-57.333 0.666992 -124 2c-44.667 -112.667 -72.667 -189.334 -84 -230.001c-22 4.66699 -37.5 10 -46.5 16
s-13.5 13.5 -13.5 22.5s14.333 46.833 43 113.5c96 226 162.333 402.333 199 529c12.667 2 27 3 43 3s27.333 -2.83301 34 -8.5s13.667 -20.5 21 -44.5c42 -135.333 84.167 -258.166 126.5 -368.499s74.833 -187.5 97.5 -231.5c-18.667 -13.333 -34.667 -20 -48 -20
c-21.333 0 -35.666 9 -42.999 27c-12.667 32.667 -35.667 96.667 -69 192z" />
    <glyph glyph-name="AE" unicode="&#xc6;" horiz-adv-x="764" 
d="M353 578c-10 -19.333 -32.333 -64.833 -67 -136.5s-64 -129.5 -88 -173.5c52 -1.33301 92 -2 120 -2h40v158c0 52.667 -1.66699 104 -5 154zM429 599c2.66699 -29.333 4.00391 -100.001 4.00391 -212.001h79c56 0 96 1.33301 120 4c2.66699 -5.33301 4 -14.833 4 -28.5
s-3.5 -23.167 -10.5 -28.5s-18.667 -8.33301 -35 -9s-39.5 -1 -69.5 -1h-88c0 -145.333 2.33301 -232.666 7 -261.999c29.333 -1.33301 53 -2 71 -2c112 0 183.667 7.66699 215 23c5.33301 -13.333 8 -27 8 -41s-3 -23.667 -9 -29c-12 -10 -63.333 -15 -154 -15
s-145.834 0.5 -165.501 1.5s-32.834 5.83301 -39.501 14.5s-10 23.667 -10 45s0.666992 70.666 2 147.999h-68c-16 0 -57.333 0.666992 -124 2c-58.667 -112.667 -94.334 -185.667 -107.001 -219c-39.333 6 -59 19.667 -59 41c0 8.66699 22 52.334 66 131.001l88 159
c65.333 121.333 118.666 232.333 159.999 333c79.333 8 164.5 12 255.5 12s142.5 -5 154.5 -15c6 -5.33301 9 -15 9 -29s-2.66699 -27.667 -8 -41c-38 14 -100 21 -186 21c-35.333 0 -72 -1 -110 -3z" />
    <glyph glyph-name="Ccedilla" unicode="&#xc7;" horiz-adv-x="602" 
d="M514 134c29.333 -12 44.001 -29 44.001 -51s-18.167 -42.667 -54.5 -62s-81.5 -29.666 -135.5 -30.999c-2.66699 -10.667 -4 -17.167 -4 -19.5s0.166992 -4.5 0.5 -6.5s1.16602 -3.66699 2.49902 -5s2.33301 -2.66602 3 -3.99902s2.16699 -2.83301 4.5 -4.5
s4.16602 -2.83398 5.49902 -3.50098c4.66699 -3.33301 8.33398 -5.66602 11.001 -6.99902c31.333 -18 47 -41 47 -69s-11.5 -52.167 -34.5 -72.5s-51.5 -30.5 -85.5 -30.5c-23.333 0 -35 8.33301 -35 25c0 10.667 4.33301 20.334 13 29.001c10 -6 20.333 -9 31 -9
c33.333 0 50 13.333 50 40c0 15.333 -10.167 31.5 -30.5 48.5s-30.5 31.5 -30.5 43.5s3.66699 27.667 11 47c-84.667 6.66699 -152.167 41 -202.5 103s-75.5 143.667 -75.5 245s28.333 182.166 85 242.499s133.334 90.5 230.001 90.5c52 0 95.667 -10.5 131 -31.5
s53 -46.833 53 -77.5c0 -27.333 -19 -44 -57 -50c-12.667 32.667 -32.667 57.167 -60 73.5s-56.333 24.5 -87 24.5c-62.667 0 -113.834 -24.833 -153.501 -74.5s-59.5 -114.334 -59.5 -194.001s20 -148.334 60 -206.001s96 -86.5 168 -86.5c32 0 61.833 7 89.5 21
s49.5 34.667 65.5 62z" />
    <glyph glyph-name="Egrave" unicode="&#xc8;" horiz-adv-x="486" 
d="M135 899c24.667 -27.333 50.666 -51.499 77.999 -72.499l59 -46c12 -9.66699 18 -19.5 18 -29.5s-5.33301 -19.667 -16 -29c-18.667 14 -44.167 30 -76.5 48s-56.666 33 -72.999 45s-24.5 25.667 -24.5 41s11.667 29.666 35 42.999zM77.999 57.001l2.00195 166.999v200
c0 95.333 -4.66699 173 -14 233c71.333 6 149.5 9 234.5 9s133.5 -5 145.5 -15c6 -5.33301 9 -15 9 -29s-2.66699 -27.667 -8 -41c-38 14 -100 21 -186 21c-35.333 0 -72 -1 -110 -3c2.66699 -29.333 4 -100 4 -212h79c56 0 96 1.33301 120 4
c2.66699 -5.33301 4 -14.833 4 -28.5s-3.5 -23.167 -10.5 -28.5s-18.667 -8.33301 -35 -9s-39.5 -1 -69.5 -1h-88c0 -145.333 2.33301 -232.666 7 -261.999c29.333 -1.33301 53 -2 71 -2c112 0 183.667 7.66699 215 23c5.33301 -13.333 8 -27 8 -41s-3 -23.667 -9 -29
c-12 -10 -63.333 -15 -154 -15s-145.834 0.5 -165.501 1.5s-32.834 5.83301 -39.501 14.5s-10 23 -10 43z" />
    <glyph glyph-name="Eacute" unicode="&#xc9;" horiz-adv-x="486" 
d="M366 899c23.333 -13.333 35 -27.667 35 -43s-7.83301 -28.5 -23.5 -39.5s-42.667 -27.667 -81 -50s-61.833 -37.5 -70.5 -45.5c-10.667 9.33301 -16 19.333 -16 30s5.33301 20.167 16 28.5l57.5 43.5c27.667 20.667 55.167 46 82.5 76zM78 56.999l2.00195 166.999v200
c0 95.333 -4.66699 173 -14 233c71.333 6 149.5 9 234.5 9s133.5 -5 145.5 -15c6 -5.33301 9 -15 9 -29s-2.66699 -27.667 -8 -41c-38 14 -100 21 -186 21c-35.333 0 -72 -1 -110 -3c2.66699 -29.333 4 -100 4 -212h79c56 0 96 1.33301 120 4
c2.66699 -5.33301 4 -14.833 4 -28.5s-3.5 -23.167 -10.5 -28.5s-18.667 -8.33301 -35 -9s-39.5 -1 -69.5 -1h-88c0 -145.333 2.33301 -232.666 7 -261.999c29.333 -1.33301 53 -2 71 -2c112 0 183.667 7.66699 215 23c5.33301 -13.333 8 -27 8 -41s-3 -23.667 -9 -29
c-12 -10 -63.333 -15 -154 -15s-145.834 0.5 -165.501 1.5s-32.834 5.83301 -39.501 14.5s-10 23 -10 43z" />
    <glyph glyph-name="Ecircumflex" unicode="&#xca;" horiz-adv-x="486" 
d="M251 869c31.333 -20 60.834 -42.5 88.501 -67.5s41.5 -45 41.5 -60s-7.66699 -25.833 -23 -32.5c-12.667 16 -28 31.5 -46 46.5s-33 25.833 -45 32.5l-18 10l-18.5 -15.5l-20 -16.5l-18.5 -14.5l-18.5 -14c-5 -3.66699 -10.167 -7.16699 -15.5 -10.5
c-10 -6.66699 -18.333 -10 -25 -10s-14.334 6 -23.001 18c42.667 51.333 89.667 96 141 134zM78.001 57l2.00195 166.999v200c0 95.333 -4.66699 173 -14 233c71.333 6 149.5 9 234.5 9s133.5 -5 145.5 -15c6 -5.33301 9 -15 9 -29s-2.66699 -27.667 -8 -41
c-38 14 -100 21 -186 21c-35.333 0 -72 -1 -110 -3c2.66699 -29.333 4 -100 4 -212h79c56 0 96 1.33301 120 4c2.66699 -5.33301 4 -14.833 4 -28.5s-3.5 -23.167 -10.5 -28.5s-18.667 -8.33301 -35 -9s-39.5 -1 -69.5 -1h-88c0 -145.333 2.33301 -232.666 7 -261.999
c29.333 -1.33301 53 -2 71 -2c112 0 183.667 7.66699 215 23c5.33301 -13.333 8 -27 8 -41s-3 -23.667 -9 -29c-12 -10 -63.333 -15 -154 -15s-145.834 0.5 -165.501 1.5s-32.834 5.83301 -39.501 14.5s-10 23 -10 43z" />
    <glyph glyph-name="Edieresis" unicode="&#xcb;" horiz-adv-x="486" 
d="M78 57l2.00195 166.999v200c0 95.333 -4.66699 173 -14 233c71.333 6 149.5 9 234.5 9s133.5 -5 145.5 -15c6 -5.33301 9 -15 9 -29s-2.66699 -27.667 -8 -41c-38 14 -100 21 -186 21c-35.333 0 -72 -1 -110 -3c2.66699 -29.333 4 -100 4 -212h79c56 0 96 1.33301 120 4
c2.66699 -5.33301 4 -14.833 4 -28.5s-3.5 -23.167 -10.5 -28.5s-18.667 -8.33301 -35 -9s-39.5 -1 -69.5 -1h-88c0 -145.333 2.33301 -232.666 7 -261.999c29.333 -1.33301 53 -2 71 -2c112 0 183.667 7.66699 215 23c5.33301 -13.333 8 -27 8 -41s-3 -23.667 -9 -29
c-12 -10 -63.333 -15 -154 -15s-145.834 0.5 -165.501 1.5s-32.834 5.83301 -39.501 14.5s-10 23 -10 43zM367.002 727.499c-10.667 -10.333 -22.834 -15.499 -36.501 -15.499s-25.5 5 -35.5 15s-15 22.667 -15 38s5.33301 28.166 16 38.499s22.834 15.5 36.501 15.5
s25.5 -5.16699 35.5 -15.5s15 -23 15 -38s-5.33301 -27.667 -16 -38zM189.002 727.5c-10.667 -10.333 -22.834 -15.499 -36.501 -15.499s-25.5 5 -35.5 15s-15 22.667 -15 38s5.33301 28.166 16 38.499s22.834 15.5 36.501 15.5s25.5 -5.16699 35.5 -15.5s15 -23 15 -38
s-5.33301 -27.667 -16 -38z" />
    <glyph glyph-name="Igrave" unicode="&#xcc;" horiz-adv-x="221" 
d="M71 54l2 176.998v200c0 94 -2.33301 171.333 -7 232c11.333 2 25 3 41 3c32.667 0 49 -12.667 49 -38c0 -4 -0.666992 -17.333 -2 -40c-4 -69.333 -6 -130.666 -6 -183.999v-201c0 -90 6.33301 -156 19 -198c-12 -5.33301 -27.667 -8 -47 -8s-32.333 4.33301 -39 13
s-10 23.334 -10 44.001zM1 898.998c24.667 -27.333 50.666 -51.499 77.999 -72.499l59 -46c12 -9.66699 18 -19.5 18 -29.5s-5.33301 -19.667 -16 -29c-18.667 14 -44.167 30 -76.5 48s-56.666 33 -72.999 45s-24.5 25.667 -24.5 41s11.667 29.666 35 42.999z" />
    <glyph glyph-name="Iacute" unicode="&#xcd;" horiz-adv-x="221" 
d="M71 54l2 176.998v200c0 94 -2.33301 171.333 -7 232c11.333 2 25 3 41 3c32.667 0 49 -12.667 49 -38c0 -4 -0.666992 -17.333 -2 -40c-4 -69.333 -6 -130.666 -6 -183.999v-201c0 -90 6.33301 -156 19 -198c-12 -5.33301 -27.667 -8 -47 -8s-32.333 4.33301 -39 13
s-10 23.334 -10 44.001zM232 898.998c23.333 -13.333 35 -27.667 35 -43s-7.83301 -28.5 -23.5 -39.5s-42.667 -27.667 -81 -50s-61.833 -37.5 -70.5 -45.5c-10.667 9.33301 -16 19.333 -16 30s5.33301 20.167 16 28.5l57.5 43.5c27.667 20.667 55.167 46 82.5 76z" />
    <glyph glyph-name="Icircumflex" unicode="&#xce;" horiz-adv-x="221" 
d="M71 54l2 176.998v200c0 94 -2.33301 171.333 -7 232c11.333 2 25 3 41 3c32.667 0 49 -12.667 49 -38c0 -4 -0.666992 -17.333 -2 -40c-4 -69.333 -6 -130.666 -6 -183.999v-201c0 -90 6.33301 -156 19 -198c-12 -5.33301 -27.667 -8 -47 -8s-32.333 4.33301 -39 13
s-10 23.334 -10 44.001zM117 868.998c31.333 -20 60.833 -42.5 88.5 -67.5s41.5 -45 41.5 -60s-7.66699 -25.833 -23 -32.5c-12.667 16 -28 31.5 -46 46.5s-33 25.833 -45 32.5l-18 10l-18.5 -15.5l-20 -16.5l-18.5 -14.5l-18.5 -14
c-5 -3.66699 -10.167 -7.16699 -15.5 -10.5c-9.33301 -6.66699 -17.5 -10 -24.5 -10s-14.833 6 -23.5 18c42.667 51.333 89.667 96 141 134z" />
    <glyph glyph-name="Idieresis" unicode="&#xcf;" horiz-adv-x="221" 
d="M71 54l2 176.998v200c0 94 -2.33301 171.333 -7 232c11.333 2 25 3 41 3c32.667 0 49 -12.667 49 -38c0 -4 -0.666992 -17.333 -2 -40c-4 -69.333 -6 -130.666 -6 -183.999v-201c0 -90 6.33301 -156 19 -198c-12 -5.33301 -27.667 -8 -47 -8s-32.333 4.33301 -39 13
s-10 23.334 -10 44.001zM54 727.498c-10.667 -10.333 -22.834 -15.499 -36.501 -15.499s-25.5 5 -35.5 15s-15 22.667 -15 38s5.33301 28.166 16 38.499s22.834 15.5 36.501 15.5s25.5 -5.16699 35.5 -15.5s15 -23 15 -38s-5.33301 -27.667 -16 -38zM232 727.499
c-10.667 -10.333 -22.834 -15.499 -36.501 -15.499s-25.5 5 -35.5 15s-15 22.667 -15 38s5.33301 28.166 16 38.499s22.834 15.5 36.501 15.5s25.5 -5.16699 35.5 -15.5s15 -23 15 -38s-5.33301 -27.667 -16 -38z" />
    <glyph glyph-name="Eth" unicode="&#xd0;" horiz-adv-x="635" 
d="M153 608c2.66699 -46 3.99902 -100.335 3.99902 -163.002v-58h64c55.333 0 93.333 1.33301 114 4c2.66699 -8 4 -17.667 4 -29s-3 -20.166 -9 -26.499s-18.833 -9.83301 -38.5 -10.5s-64.834 -1 -135.501 -1c-2 -92.667 -6.33301 -171.667 -13 -237
c36 -24 77.667 -36 125 -36s86.333 8 117 24s54.334 37.667 71.001 65c30.667 50.667 46 108.334 46 173.001c0 99.333 -24.667 174 -74 224s-119.666 75 -210.999 75c-14.667 0 -36 -1.33301 -64 -4zM27.999 385.998l54.002 1c0 118 -4.33301 209.333 -13 274
c40 8 88.833 12 146.5 12s107.167 -5.66699 148.5 -17s79.166 -29.5 113.499 -54.5s61 -60.167 80 -105.5s28.5 -99.666 28.5 -162.999c0 -100 -26.667 -182.167 -80 -246.5s-127.333 -96.5 -222 -96.5s-167.334 21 -218.001 63c8.66699 56 13.667 146.333 15 271
c-38.667 0 -69.667 -1.33301 -93 -4c-2.66699 8 -4 17.667 -4 29s3 20.166 9 26.499s17.667 9.83301 35 10.5z" />
    <glyph glyph-name="Ntilde" unicode="&#xd1;" horiz-adv-x="618" 
d="M485 119c-4 48 -6 131.997 -6 251.997v60c0 94 -2.33301 171.333 -7 232c11.333 2 21.666 3 30.999 3c32.667 0 49 -12.667 49 -38c0 -4 -0.666992 -17.333 -2 -40c-4 -69.333 -6 -130.666 -6 -183.999v-171c0 -94 2.33301 -171.333 7 -232
c-10.667 -2.66699 -21.667 -4 -33 -4c-22.667 0 -40 9 -52 27c-27.333 42 -74.666 122.5 -141.999 241.5s-125 214.5 -173 286.5c-0.666992 -25.333 -1 -141.666 -1 -348.999c0 -90 6.33301 -156 19 -198c-12 -5.33301 -26 -8 -42 -8s-27.333 4.33301 -34 13
s-10 23.334 -10 44.001l2 177v200c0 111.333 -6.33301 187.333 -19 228c12.667 5.33301 27 8 43 8s27.667 -2.33301 35 -7c28.667 -17.333 79.667 -86.833 153 -208.5s136 -232.5 188 -332.5zM457 802.997c0 -18.667 -10.332 -36.667 -30.999 -54s-40.334 -26 -59.001 -26
s-40.5 7.5 -65.5 22.5s-43.5 22.5 -55.5 22.5s-31.667 -14 -59 -42c-10.667 4.66699 -16 11.667 -16 21c0 18 10.5 35.833 31.5 53.5s43.167 26.5 66.5 26.5c12 0 31 -7.5 57 -22.5s45.667 -22.5 59 -22.5s32 14 56 42c10.667 -4 16 -11 16 -21z" />
    <glyph glyph-name="Ograve" unicode="&#xd2;" horiz-adv-x="712" 
d="M240 899c24.667 -27.333 50.666 -51.499 77.999 -72.499l59 -46c12 -9.66699 18 -19.5 18 -29.5s-5.33301 -19.667 -16 -29c-18.667 14 -44.167 30 -76.5 48s-56.666 33 -72.999 45s-24.5 25.667 -24.5 41s11.667 29.666 35 42.999zM579.499 83.001
c-55.667 -62 -130.334 -93 -224.001 -93s-168.167 31 -223.5 93s-83 145 -83 249s27.667 186.833 83 248.5s129.833 92.5 223.5 92.5s168.334 -30.833 224.001 -92.5s83.5 -144.5 83.5 -248.5s-27.833 -187 -83.5 -249zM528.999 515.001
c-16.667 29.333 -40 52.832 -70 70.499s-64.333 26.5 -103 26.5c-68.667 0 -123.334 -23.5 -164.001 -70.5s-61 -106.833 -61 -179.5c0 -79.333 16.667 -149.666 50 -210.999c16.667 -30.667 39.834 -55 69.501 -73s64.167 -27 103.5 -27c72 0 127.5 24.167 166.5 72.5
s58.5 111 58.5 188s-16.667 144.833 -50 203.5z" />
    <glyph glyph-name="Oacute" unicode="&#xd3;" horiz-adv-x="712" 
d="M471 899c23.333 -13.333 35 -27.667 35 -43s-7.83301 -28.5 -23.5 -39.5s-42.667 -27.667 -81 -50s-61.833 -37.5 -70.5 -45.5c-10.667 9.33301 -16 19.333 -16 30s5.33301 20.167 16 28.5l57.5 43.5c27.667 20.667 55.167 46 82.5 76zM579.5 82.999
c-55.667 -62 -130.334 -93 -224.001 -93s-168.167 31 -223.5 93s-83 145 -83 249s27.667 186.833 83 248.5s129.833 92.5 223.5 92.5s168.334 -30.833 224.001 -92.5s83.5 -144.5 83.5 -248.5s-27.833 -187 -83.5 -249zM529 514.999c-16.667 29.333 -40 52.832 -70 70.499
s-64.333 26.5 -103 26.5c-68.667 0 -123.334 -23.5 -164.001 -70.5s-61 -106.833 -61 -179.5c0 -79.333 16.667 -149.666 50 -210.999c16.667 -30.667 39.834 -55 69.501 -73s64.167 -27 103.5 -27c72 0 127.5 24.167 166.5 72.5s58.5 111 58.5 188
s-16.667 144.833 -50 203.5z" />
    <glyph glyph-name="Ocircumflex" unicode="&#xd4;" horiz-adv-x="712" 
d="M356 868c31.333 -20 60.835 -42.501 88.502 -67.501s41.5 -45 41.5 -60s-7.66699 -25.833 -23 -32.5c-12.667 16 -28 31.333 -46 46s-33 25.334 -45 32.001l-18 11l-18.5 -15.5l-20 -16.5l-18.5 -14.5l-18.5 -14l-14.5 -10.5c-10.667 -6.66699 -19.334 -10 -26.001 -10
s-14.334 6 -23.001 18c42.667 51.333 89.667 96 141 134zM579.502 82.999c-55.667 -62 -130.334 -93 -224.001 -93s-168.167 31 -223.5 93s-83 145 -83 249s27.667 186.833 83 248.5s129.833 92.5 223.5 92.5s168.334 -30.833 224.001 -92.5s83.5 -144.5 83.5 -248.5
s-27.833 -187 -83.5 -249zM529.002 514.999c-16.667 29.333 -40 52.832 -70 70.499s-64.333 26.5 -103 26.5c-68.667 0 -123.334 -23.5 -164.001 -70.5s-61 -106.833 -61 -179.5c0 -79.333 16.667 -149.666 50 -210.999c16.667 -30.667 39.834 -55 69.501 -73
s64.167 -27 103.5 -27c72 0 127.5 24.167 166.5 72.5s58.5 111 58.5 188s-16.667 144.833 -50 203.5z" />
    <glyph glyph-name="Otilde" unicode="&#xd5;" horiz-adv-x="712" 
d="M499 803c0 -18.667 -10.332 -36.667 -30.999 -54s-40.334 -26 -59.001 -26s-40.5 7.5 -65.5 22.5s-43.5 22.5 -55.5 22.5s-31.667 -14 -59 -42c-10.667 4.66699 -16 11.667 -16 21c0 18 10.5 35.833 31.5 53.5s43.167 26.5 66.5 26.5c12 0 31 -7.5 57 -22.5
s45.667 -22.5 59 -22.5s32 14 56 42c10.667 -4 16 -11 16 -21zM579.501 83c-55.667 -62 -130.334 -93 -224.001 -93s-168.167 31 -223.5 93s-83 145 -83 249s27.667 186.833 83 248.5s129.833 92.5 223.5 92.5s168.334 -30.833 224.001 -92.5s83.5 -144.5 83.5 -248.5
s-27.833 -187 -83.5 -249zM529.001 515c-16.667 29.333 -40 52.832 -70 70.499s-64.333 26.5 -103 26.5c-68.667 0 -123.334 -23.5 -164.001 -70.5s-61 -106.833 -61 -179.5c0 -79.333 16.667 -149.666 50 -210.999c16.667 -30.667 39.834 -55 69.501 -73
s64.167 -27 103.5 -27c72 0 127.5 24.167 166.5 72.5s58.5 111 58.5 188s-16.667 144.833 -50 203.5z" />
    <glyph glyph-name="Odieresis" unicode="&#xd6;" horiz-adv-x="712" 
d="M579.5 83c-55.667 -62 -130.334 -93 -224.001 -93s-168.167 31 -223.5 93s-83 145 -83 249s27.667 186.833 83 248.5s129.833 92.5 223.5 92.5s168.334 -30.833 224.001 -92.5s83.5 -144.5 83.5 -248.5s-27.833 -187 -83.5 -249zM529 515
c-16.667 29.333 -40 52.832 -70 70.499s-64.333 26.5 -103 26.5c-68.667 0 -123.334 -23.5 -164.001 -70.5s-61 -106.833 -61 -179.5c0 -79.333 16.667 -149.666 50 -210.999c16.667 -30.667 39.834 -55 69.501 -73s64.167 -27 103.5 -27c72 0 127.5 24.167 166.5 72.5
s58.5 111 58.5 188s-16.667 144.833 -50 203.5zM480 727.499c-10.667 -10.333 -22.834 -15.499 -36.501 -15.499s-25.5 5 -35.5 15s-15 22.667 -15 38s5.33301 28.166 16 38.499s22.834 15.5 36.501 15.5s25.5 -5.16699 35.5 -15.5s15 -23 15 -38s-5.33301 -27.667 -16 -38z
M302 727.5c-10.667 -10.333 -22.834 -15.499 -36.501 -15.499s-25.5 5 -35.5 15s-15 22.667 -15 38s5.33301 28.166 16 38.499s22.834 15.5 36.501 15.5s25.5 -5.16699 35.5 -15.5s15 -23 15 -38s-5.33301 -27.667 -16 -38z" />
    <glyph glyph-name="multiply" unicode="&#xd7;" 
d="M307 252c73.333 -73.333 128.671 -125.001 166.004 -155.001c-14.667 -24.667 -31.667 -37 -51 -37c-8.66699 0 -16.834 3.83301 -24.501 11.5s-28.834 30.334 -63.501 68.001s-57.334 61.834 -68.001 72.501c-66 -64.667 -117.667 -120 -155 -166
c-25.333 17.333 -38 34.333 -38 51c0 8.66699 3.33301 16.334 10 23.001l143 133c-83.333 80 -138.333 131.667 -165 155c16 25.333 32.667 38 50 38c8.66699 0 15.834 -2.83301 21.501 -8.5s15.667 -16.334 30 -32.001l52.5 -56.5l52 -56
c73.333 73.333 125 128.666 155 165.999c9.33301 -5.33301 17.833 -12.666 25.5 -21.999s11.5 -18.666 11.5 -27.999s-3.83301 -17.833 -11.5 -25.5s-30.334 -28.834 -68.001 -63.501s-61.834 -57.334 -72.501 -68.001z" />
    <glyph glyph-name="Oslash" unicode="&#xd8;" horiz-adv-x="712" 
d="M579 313c0 94.667 -22.333 170 -67 226l-256 -464c28 -16 60.667 -24 98 -24c72 0 127.5 24.167 166.5 72.5s58.5 111.5 58.5 189.5zM131 362c0 -112 27.335 -196.667 82.002 -254l259 469c-32.667 23.333 -71.334 35 -116.001 35
c-68.667 0 -123.334 -23.5 -164.001 -70.5s-61 -106.833 -61 -179.5zM135.002 -33l42.001 75.999c-85.333 60 -128 156 -128 288c0 104.667 27.667 187.834 83 249.501s129.666 92.5 222.999 92.5c55.333 0 105 -11.333 149 -34c23.333 44 41 79 53 105
c11.333 -0.666992 21.833 -3.83398 31.5 -9.50098s14.5 -12.167 14.5 -19.5s-2 -14.666 -6 -21.999l-47 -85c75.333 -60.667 113 -153 113 -277c0 -103.333 -27.833 -186 -83.5 -248s-130.5 -93 -224.5 -93c-47.333 0 -90.666 8.33301 -129.999 25
c-20.667 -38.667 -37.334 -71.667 -50.001 -99c-30.667 4 -46 14.667 -46 32c0 4.66699 2 11 6 19z" />
    <glyph glyph-name="Ugrave" unicode="&#xd9;" horiz-adv-x="644" 
d="M209 899c24.667 -27.333 50.666 -51.499 77.999 -72.499l59 -46c12 -9.66699 18 -19.5 18 -29.5s-5.33301 -19.667 -16 -29c-18.667 14 -44.167 30 -76.5 48s-56.666 33 -72.999 45s-24.5 25.667 -24.5 41s11.667 29.666 35 42.999zM79.999 192.001l8.99902 309.002
c0 63.333 -5.66699 115.666 -17 156.999c13.333 5.33301 29 8 47 8s31.5 -3.83301 40.5 -11.5s13.5 -23.334 13.5 -47.001s-2.5 -84.334 -7.5 -182.001s-7.5 -171.667 -7.5 -222s13.5 -87.833 40.5 -112.5s57.5 -37 91.5 -37s69 8 105 24s65.333 34.667 88 56l1 128v169
c0 94 -2.33301 171.333 -7 232c11.333 2 25 3 41 3c32.667 0 49 -12.667 49 -38c0 -1.33301 -0.666992 -13.666 -2 -36.999c-4 -70 -6 -160.333 -6 -271s1 -183.5 3 -218.5s7.33301 -67.167 16 -96.5c-12 -5.33301 -27.5 -8 -46.5 -8s-32 4.16699 -39 12.5
s-10.5 23.833 -10.5 46.5v11c-26.667 -22.667 -58.667 -41.167 -96 -55.5s-71.666 -21.5 -102.999 -21.5c-62.667 0 -112.167 14.833 -148.5 44.5s-54.5 82.167 -54.5 157.5z" />
    <glyph glyph-name="Uacute" unicode="&#xda;" horiz-adv-x="644" 
d="M440 899c23.333 -13.333 35 -27.667 35 -43s-7.83301 -28.5 -23.5 -39.5s-42.667 -27.667 -81 -50s-61.833 -37.5 -70.5 -45.5c-10.667 9.33301 -16 19.333 -16 30s5.33301 20.167 16 28.5l57.5 43.5c27.667 20.667 55.167 46 82.5 76zM80 191.999l8.99902 309.002
c0 63.333 -5.66699 115.666 -17 156.999c13.333 5.33301 29 8 47 8s31.5 -3.83301 40.5 -11.5s13.5 -23.334 13.5 -47.001s-2.5 -84.334 -7.5 -182.001s-7.5 -171.667 -7.5 -222s13.5 -87.833 40.5 -112.5s57.5 -37 91.5 -37s69 8 105 24s65.333 34.667 88 56l1 128v169
c0 94 -2.33301 171.333 -7 232c11.333 2 25 3 41 3c32.667 0 49 -12.667 49 -38c0 -1.33301 -0.666992 -13.666 -2 -36.999c-4 -70 -6 -160.333 -6 -271s1 -183.5 3 -218.5s7.33301 -67.167 16 -96.5c-12 -5.33301 -27.5 -8 -46.5 -8s-32 4.16699 -39 12.5
s-10.5 23.833 -10.5 46.5v11c-26.667 -22.667 -58.667 -41.167 -96 -55.5s-71.666 -21.5 -102.999 -21.5c-62.667 0 -112.167 14.833 -148.5 44.5s-54.5 82.167 -54.5 157.5z" />
    <glyph glyph-name="Ucircumflex" unicode="&#xdb;" horiz-adv-x="644" 
d="M325 869c31.333 -20 60.833 -42.5 88.5 -67.5s41.5 -45 41.5 -60s-7.66699 -25.833 -23 -32.5c-12.667 16 -28 31.5 -46 46.5s-33 25.833 -45 32.5l-18 10l-18.5 -15.5l-20 -16.5l-18.5 -14.5l-18.5 -14c-5 -3.66699 -10.167 -7.16699 -15.5 -10.5
c-9.33301 -6.66699 -17.5 -10 -24.5 -10s-14.833 6 -23.5 18c42.667 51.333 89.667 96 141 134zM80 192l8.99902 309.002c0 63.333 -5.66699 115.666 -17 156.999c13.333 5.33301 29 8 47 8s31.5 -3.83301 40.5 -11.5s13.5 -23.334 13.5 -47.001s-2.5 -84.334 -7.5 -182.001
s-7.5 -171.667 -7.5 -222s13.5 -87.833 40.5 -112.5s57.5 -37 91.5 -37s69 8 105 24s65.333 34.667 88 56l1 128v169c0 94 -2.33301 171.333 -7 232c11.333 2 25 3 41 3c32.667 0 49 -12.667 49 -38c0 -1.33301 -0.666992 -13.666 -2 -36.999c-4 -70 -6 -160.333 -6 -271
s1 -183.5 3 -218.5s7.33301 -67.167 16 -96.5c-12 -5.33301 -27.5 -8 -46.5 -8s-32 4.16699 -39 12.5s-10.5 23.833 -10.5 46.5v11c-26.667 -22.667 -58.667 -41.167 -96 -55.5s-71.666 -21.5 -102.999 -21.5c-62.667 0 -112.167 14.833 -148.5 44.5
s-54.5 82.167 -54.5 157.5z" />
    <glyph glyph-name="Udieresis" unicode="&#xdc;" horiz-adv-x="644" 
d="M80 192l8.99902 309.002c0 63.333 -5.66699 115.666 -17 156.999c13.333 5.33301 29 8 47 8s31.5 -3.83301 40.5 -11.5s13.5 -23.334 13.5 -47.001s-2.5 -84.334 -7.5 -182.001s-7.5 -171.667 -7.5 -222s13.5 -87.833 40.5 -112.5s57.5 -37 91.5 -37s69 8 105 24
s65.333 34.667 88 56l1 128v169c0 94 -2.33301 171.333 -7 232c11.333 2 25 3 41 3c32.667 0 49 -12.667 49 -38c0 -1.33301 -0.666992 -13.666 -2 -36.999c-4 -70 -6 -160.333 -6 -271s1 -183.5 3 -218.5s7.33301 -67.167 16 -96.5c-12 -5.33301 -27.5 -8 -46.5 -8
s-32 4.16699 -39 12.5s-10.5 23.833 -10.5 46.5v11c-26.667 -22.667 -58.667 -41.167 -96 -55.5s-71.666 -21.5 -102.999 -21.5c-62.667 0 -112.167 14.833 -148.5 44.5s-54.5 82.167 -54.5 157.5zM445.999 727.502c-10.667 -10.333 -22.834 -15.499 -36.501 -15.499
s-25.5 5 -35.5 15s-15 22.667 -15 38s5.33301 28.166 16 38.499s22.834 15.5 36.501 15.5s25.5 -5.16699 35.5 -15.5s15 -23 15 -38s-5.33301 -27.667 -16 -38zM267.999 727.503c-10.667 -10.333 -22.834 -15.499 -36.501 -15.499s-25.5 5 -35.5 15s-15 22.667 -15 38
s5.33301 28.166 16 38.499s22.834 15.5 36.501 15.5s25.5 -5.16699 35.5 -15.5s15 -23 15 -38s-5.33301 -27.667 -16 -38z" />
    <glyph glyph-name="Yacute" unicode="&#xdd;" horiz-adv-x="501" 
d="M362 899c23.333 -13.333 35 -27.667 35 -43s-7.83301 -28.5 -23.5 -39.5s-42.667 -27.667 -81 -50s-61.833 -37.5 -70.5 -45.5c-10.667 9.33301 -16 19.333 -16 30s5.33301 20.167 16 28.5l57.5 43.5c27.667 20.667 55.167 46 82.5 76zM496 626.999
c0 -16.667 -25.332 -63.835 -75.999 -141.502s-95 -139.167 -133 -184.5v-85c0 -97.333 6.33301 -167.666 19 -210.999c-12 -5.33301 -27.667 -8 -47 -8s-32.333 4.33301 -39 13s-10 23.334 -10 44.001l2 178v62c-96.667 182 -170.667 290.333 -222 325
c10 13.333 17.333 22 22 26l14 12c8 6.66699 17 10 27 10c16.667 0 32.667 -11.333 48 -34c40 -58 93.333 -148.667 160 -272c32 42 66.167 98.167 102.5 168.5s55.166 117.833 56.499 142.5c50.667 -3.33301 76 -18.333 76 -45z" />
    <glyph glyph-name="Thorn" unicode="&#xde;" horiz-adv-x="512" 
d="M148 214c29.333 -16.667 64.667 -24.998 106 -24.998s74.833 13.167 100.5 39.5s38.5 61.833 38.5 106.5c0 61.333 -14.333 103.666 -43 126.999s-73.334 35 -134.001 35c-15.333 0 -37.666 -1.33301 -66.999 -4c-0.666992 -18.667 -1 -70.334 -1 -155.001v-124z
M71.001 54.002l2.00195 176.998v200c0 94 -2.33301 171.333 -7 232c11.333 2 25 3 41 3c32.667 0 49 -12.667 49 -38c0 -11.333 -1.33301 -35.666 -4 -72.999c21.333 2 40.333 3 57 3c178.667 0 268 -72 268 -216c0 -69.333 -20.833 -122.333 -62.5 -159
s-88.334 -55 -140.001 -55s-93.834 10.667 -126.501 32c0 -62 6.33301 -113.667 19 -155c-12 -5.33301 -27.667 -8 -47 -8s-32.333 4.33301 -39 13s-10 23.334 -10 44.001z" />
    <glyph glyph-name="germandbls" unicode="&#xdf;" horiz-adv-x="520" 
d="M151 196l1.00195 -147.006c0 -18.667 -3.5 -32 -10.5 -40s-18.5 -12 -34.5 -12s-30 2.66699 -42 8c13.333 44.667 20 110.334 20 197.001v262c0 68.667 17.167 120.667 51.5 156s73 53 116 53s77.833 -9.66699 104.5 -29s40 -46.333 40 -81
c0 -47.333 -15 -83.666 -45 -108.999c-12 -10.667 -24.333 -20 -37 -28c-30 -18.667 -45 -38 -45 -58c0 -23.333 24 -50 72 -80c20 -12 40.167 -24.833 60.5 -38.5s37.5 -31.167 51.5 -52.5s21 -44.666 21 -69.999c0 -36 -13.667 -67.833 -41 -95.5s-58.5 -41.5 -93.5 -41.5
s-64.333 7.66699 -88 23s-35.5 34.333 -35.5 57c0 19.333 15 33.333 45 42c4 -21.333 13.833 -37.666 29.5 -48.999s32.167 -17 49.5 -17s32.333 6.83301 45 20.5s19 30.334 19 50.001s-6.66699 38 -20 55s-29.5 31.833 -48.5 44.5l-57.5 38c-46 31.333 -69 68 -69 110
c0 17.333 6.16699 33.5 18.5 48.5s25.666 27.333 39.999 37s27.666 22.834 39.999 39.501s18.5 35.667 18.5 57s-6.83301 38.5 -20.5 51.5s-33 19.5 -58 19.5s-47.5 -10.5 -67.5 -31.5s-30 -52.5 -30 -94.5v-295z" />
    <glyph glyph-name="agrave" unicode="&#xe0;" horiz-adv-x="464" 
d="M119 702c24.667 -27.333 50.666 -51.499 77.999 -72.499l59 -46c12 -9.66699 18 -19.5 18 -29.5s-5.33301 -19.667 -16 -29c-18.667 14 -44.167 30 -76.5 48s-56.666 33 -72.999 45s-24.5 25.667 -24.5 41s11.667 29.666 35 42.999zM391.999 312.001l-2 -135.001
c0 -76.667 6.33301 -134 19 -172c-10.667 -5.33301 -23.5 -8 -38.5 -8s-25.5 3.5 -31.5 10.5s-10 18.167 -12 33.5c-41.333 -34 -84 -51 -128 -51c-102.667 0 -154 47 -154 141c0 34 8 59 24 75s38 28 66 36c50 13.333 113.333 22.333 190 27
c0 56.667 -7 95.834 -21 117.501s-43.667 32.5 -89 32.5c-18.667 0 -38 -6 -58 -18s-35 -29.333 -45 -52c-30.667 6 -46 19.333 -46 40c0 26 16 46.833 48 62.5s73 23.5 123 23.5s88.333 -11.833 115 -35.5s40 -66.167 40 -127.5zM323.999 218
c-19.333 -2 -33.8311 -3.66699 -43.498 -5s-22.667 -3 -39 -5s-28.5 -4 -36.5 -6s-17.833 -4.66699 -29.5 -8s-20.334 -7 -26.001 -11l-17.5 -13c-11.333 -9.33301 -17 -22.333 -17 -39c0 -30 8.66699 -52.167 26 -66.5s39.333 -21.5 66 -21.5
c45.333 0 83.666 15 114.999 45c-0.666992 9.33301 -1 26.333 -1 51s1 51 3 79z" />
    <glyph glyph-name="aacute" unicode="&#xe1;" horiz-adv-x="464" 
d="M350 702c23.333 -13.333 35 -27.667 35 -43s-7.83301 -28.5 -23.5 -39.5s-42.667 -27.667 -81 -50s-61.833 -37.5 -70.5 -45.5c-10.667 9.33301 -16 19.333 -16 30s5.33301 20.167 16 28.5l57.5 43.5c27.667 20.667 55.167 46 82.5 76zM392 311.999l-2 -135.001
c0 -76.667 6.33301 -134 19 -172c-10.667 -5.33301 -23.5 -8 -38.5 -8s-25.5 3.5 -31.5 10.5s-10 18.167 -12 33.5c-41.333 -34 -84 -51 -128 -51c-102.667 0 -154 47 -154 141c0 34 8 59 24 75s38 28 66 36c50 13.333 113.333 22.333 190 27
c0 56.667 -7 95.834 -21 117.501s-43.667 32.5 -89 32.5c-18.667 0 -38 -6 -58 -18s-35 -29.333 -45 -52c-30.667 6 -46 19.333 -46 40c0 26 16 46.833 48 62.5s73 23.5 123 23.5s88.333 -11.833 115 -35.5s40 -66.167 40 -127.5zM324 217.998
c-19.333 -2 -33.8311 -3.66699 -43.498 -5s-22.667 -3 -39 -5s-28.5 -4 -36.5 -6s-17.833 -4.66699 -29.5 -8s-20.334 -7 -26.001 -11l-17.5 -13c-11.333 -9.33301 -17 -22.333 -17 -39c0 -30 8.66699 -52.167 26 -66.5s39.333 -21.5 66 -21.5
c45.333 0 83.666 15 114.999 45c-0.666992 9.33301 -1 26.333 -1 51s1 51 3 79z" />
    <glyph glyph-name="acircumflex" unicode="&#xe2;" horiz-adv-x="464" 
d="M235 679c31.333 -20 60.833 -42.5 88.5 -67.5s41.5 -45 41.5 -60s-7.66699 -25.833 -23 -32.5c-12.667 16 -28 31.5 -46 46.5s-33 25.833 -45 32.5l-18 10l-18.5 -15.5l-20 -16.5l-18.5 -14.5l-18.5 -14c-5 -3.66699 -10.167 -7.16699 -15.5 -10.5
c-9.33301 -6.66699 -17.5 -10 -24.5 -10s-14.833 6 -23.5 18c42.667 51.333 89.667 96 141 134zM392 312l-2 -135.001c0 -76.667 6.33301 -134 19 -172c-10.667 -5.33301 -23.5 -8 -38.5 -8s-25.5 3.5 -31.5 10.5s-10 18.167 -12 33.5c-41.333 -34 -84 -51 -128 -51
c-102.667 0 -154 47 -154 141c0 34 8 59 24 75s38 28 66 36c50 13.333 113.333 22.333 190 27c0 56.667 -7 95.834 -21 117.501s-43.667 32.5 -89 32.5c-18.667 0 -38 -6 -58 -18s-35 -29.333 -45 -52c-30.667 6 -46 19.333 -46 40c0 26 16 46.833 48 62.5s73 23.5 123 23.5
s88.333 -11.833 115 -35.5s40 -66.167 40 -127.5zM324 217.999c-19.333 -2 -33.8311 -3.66699 -43.498 -5s-22.667 -3 -39 -5s-28.5 -4 -36.5 -6s-17.833 -4.66699 -29.5 -8s-20.334 -7 -26.001 -11l-17.5 -13c-11.333 -9.33301 -17 -22.333 -17 -39
c0 -30 8.66699 -52.167 26 -66.5s39.333 -21.5 66 -21.5c45.333 0 83.666 15 114.999 45c-0.666992 9.33301 -1 26.333 -1 51s1 51 3 79z" />
    <glyph glyph-name="atilde" unicode="&#xe3;" horiz-adv-x="464" 
d="M377 620c0 -18.667 -10.332 -36.667 -30.999 -54s-40.334 -26 -59.001 -26s-40.5 7.5 -65.5 22.5s-43.5 22.5 -55.5 22.5s-31.667 -14 -59 -42c-10.667 4.66699 -16 11.667 -16 21c0 18 10.5 35.833 31.5 53.5s43.167 26.5 66.5 26.5c12 0 31 -7.5 57 -22.5
s45.667 -22.5 59 -22.5s32 14 56 42c10.667 -4 16 -11 16 -21zM392.001 312l-2 -135.001c0 -76.667 6.33301 -134 19 -172c-10.667 -5.33301 -23.5 -8 -38.5 -8s-25.5 3.5 -31.5 10.5s-10 18.167 -12 33.5c-41.333 -34 -84 -51 -128 -51c-102.667 0 -154 47 -154 141
c0 34 8 59 24 75s38 28 66 36c50 13.333 113.333 22.333 190 27c0 56.667 -7 95.834 -21 117.501s-43.667 32.5 -89 32.5c-18.667 0 -38 -6 -58 -18s-35 -29.333 -45 -52c-30.667 6 -46 19.333 -46 40c0 26 16 46.833 48 62.5s73 23.5 123 23.5s88.333 -11.833 115 -35.5
s40 -66.167 40 -127.5zM324.001 217.999c-19.333 -2 -33.8311 -3.66699 -43.498 -5s-22.667 -3 -39 -5s-28.5 -4 -36.5 -6s-17.833 -4.66699 -29.5 -8s-20.334 -7 -26.001 -11l-17.5 -13c-11.333 -9.33301 -17 -22.333 -17 -39c0 -30 8.66699 -52.167 26 -66.5
s39.333 -21.5 66 -21.5c45.333 0 83.666 15 114.999 45c-0.666992 9.33301 -1 26.333 -1 51s1 51 3 79z" />
    <glyph glyph-name="adieresis" unicode="&#xe4;" horiz-adv-x="464" 
d="M392 312l-2 -135.001c0 -76.667 6.33301 -134 19 -172c-10.667 -5.33301 -23.5 -8 -38.5 -8s-25.5 3.5 -31.5 10.5s-10 18.167 -12 33.5c-41.333 -34 -84 -51 -128 -51c-102.667 0 -154 47 -154 141c0 34 8 59 24 75s38 28 66 36c50 13.333 113.333 22.333 190 27
c0 56.667 -7 95.834 -21 117.501s-43.667 32.5 -89 32.5c-18.667 0 -38 -6 -58 -18s-35 -29.333 -45 -52c-30.667 6 -46 19.333 -46 40c0 26 16 46.833 48 62.5s73 23.5 123 23.5s88.333 -11.833 115 -35.5s40 -66.167 40 -127.5zM324 217.999
c-19.333 -2 -33.8311 -3.66699 -43.498 -5s-22.667 -3 -39 -5s-28.5 -4 -36.5 -6s-17.833 -4.66699 -29.5 -8s-20.334 -7 -26.001 -11l-17.5 -13c-11.333 -9.33301 -17 -22.333 -17 -39c0 -30 8.66699 -52.167 26 -66.5s39.333 -21.5 66 -21.5
c45.333 0 83.666 15 114.999 45c-0.666992 9.33301 -1 26.333 -1 51s1 51 3 79zM356.002 536.499c-10.667 -10.333 -22.834 -15.499 -36.501 -15.499s-25.5 5 -35.5 15s-15 22.667 -15 38s5.33301 28.166 16 38.499s22.834 15.5 36.501 15.5s25.5 -5.16699 35.5 -15.5
s15 -23 15 -38s-5.33301 -27.667 -16 -38zM178.002 536.5c-10.667 -10.333 -22.834 -15.499 -36.501 -15.499s-25.5 5 -35.5 15s-15 22.667 -15 38s5.33301 28.166 16 38.499s22.834 15.5 36.501 15.5s25.5 -5.16699 35.5 -15.5s15 -23 15 -38s-5.33301 -27.667 -16 -38z
" />
    <glyph glyph-name="aring" unicode="&#xe5;" horiz-adv-x="464" 
d="M298 544.5c-16 -16.333 -37.167 -24.5 -63.5 -24.5s-47.666 8.16699 -63.999 24.5s-24.5 37.833 -24.5 64.5s8.16699 48.167 24.5 64.5s37.666 24.5 63.999 24.5s47.5 -8.16699 63.5 -24.5s24 -37.833 24 -64.5s-8 -48.167 -24 -64.5zM268 566.5c8 9 12 22 12 39
s-4 31.167 -12 42.5s-19.167 17 -33.5 17s-25.666 -4.66699 -33.999 -14s-12.5 -22.333 -12.5 -39s4.16699 -30.667 12.5 -42s19.666 -17 33.999 -17s25.5 4.5 33.5 13.5zM392 312l-2 -135.001c0 -76.667 6.33301 -134 19 -172c-10.667 -5.33301 -23.5 -8 -38.5 -8
s-25.5 3.5 -31.5 10.5s-10 18.167 -12 33.5c-41.333 -34 -84 -51 -128 -51c-102.667 0 -154 47 -154 141c0 34 8 59 24 75s38 28 66 36c50 13.333 113.333 22.333 190 27c0 56.667 -7 95.834 -21 117.501s-43.667 32.5 -89 32.5c-18.667 0 -38 -6 -58 -18
s-35 -29.333 -45 -52c-30.667 6 -46 19.333 -46 40c0 26 16 46.833 48 62.5s73 23.5 123 23.5s88.333 -11.833 115 -35.5s40 -66.167 40 -127.5zM324 217.999c-19.333 -2 -33.8311 -3.66699 -43.498 -5s-22.667 -3 -39 -5s-28.5 -4 -36.5 -6s-17.833 -4.66699 -29.5 -8
s-20.334 -7 -26.001 -11l-17.5 -13c-11.333 -9.33301 -17 -22.333 -17 -39c0 -30 8.66699 -52.167 26 -66.5s39.333 -21.5 66 -21.5c45.333 0 83.666 15 114.999 45c-0.666992 9.33301 -1 26.333 -1 51s1 51 3 79z" />
    <glyph glyph-name="ae" unicode="&#xe6;" horiz-adv-x="749" 
d="M207 43c52 0 99.001 22 141.001 66c-15.333 32 -23.333 68.333 -24 109c-108.667 -10 -173.334 -26 -194.001 -48c-10 -10.667 -15 -23.667 -15 -39c0 -30 8.66699 -52.167 26 -66.5s39.333 -21.5 66 -21.5zM543.001 420c-39.333 0 -73.167 -13.6689 -101.5 -41.002
s-43.166 -69.666 -44.499 -126.999c95.333 0 158.666 7 189.999 21c32 14.667 48 37.334 48 68.001c0 21.333 -8.83301 39.833 -26.5 55.5s-39.5 23.5 -65.5 23.5zM547 474.998c46.667 0 84.5029 -13.1689 113.503 -39.502s43.5 -54.833 43.5 -85.5
s-4.66699 -54.667 -14 -72s-21.5 -31 -36.5 -41s-36.833 -17.667 -65.5 -23c-42 -8 -105.667 -12 -191 -12c5.33301 -46 22.166 -83.5 50.499 -112.5s64.666 -43.5 108.999 -43.5s78.833 16 103.5 48c20.667 -12 31 -26.667 31 -44s-14 -31.666 -42 -42.999s-60 -17 -96 -17
c-80.667 0 -141.667 27.667 -183 83c-22 -28 -48.833 -48.833 -80.5 -62.5s-61.834 -20.5 -90.501 -20.5c-102.667 0 -154 47 -154 141c0 34 8 59 24 75s38 28 66 36c50 13.333 113.333 22.333 190 27c0 56.667 -7 95.834 -21 117.501s-43.667 32.5 -89 32.5
c-18.667 0 -38 -6 -58 -18s-35 -29.333 -45 -52c-30.667 6 -46 19.333 -46 40c0 26 16 46.833 48 62.5s69.333 23.5 112 23.5c80 0 130.333 -26 151 -78c43.333 52 100 78 170 78z" />
    <glyph glyph-name="ccedilla" unicode="&#xe7;" horiz-adv-x="446" 
d="M161 93.5c30 -31.667 66.834 -47.502 110.501 -47.502s78.167 16 103.5 48c20.667 -12 31 -26.667 31 -44s-14 -31.666 -42 -42.999s-60 -17 -96 -17h-7c-2.66699 -10.667 -4 -17.167 -4 -19.5s0.166992 -4.5 0.5 -6.5s1.16602 -3.66699 2.49902 -5
s2.33301 -2.66602 3 -3.99902s2.16699 -2.83301 4.5 -4.5s3.83301 -2.83398 4.5 -3.50098c5.33301 -3.33301 9.33301 -5.66602 12 -6.99902c31.333 -18 47 -41 47 -69s-11.5 -52.167 -34.5 -72.5s-51.5 -30.5 -85.5 -30.5c-23.333 0 -35 8.33301 -35 25
c0 10.667 4.33301 20.334 13 29.001c10 -6 20.333 -9 31 -9c33.333 0 50 13.333 50 40c0 15.333 -10.167 31.5 -30.5 48.5s-30.5 31.333 -30.5 43s4 28.5 12 50.5c-51.333 9.33301 -93.5 33.333 -126.5 72s-49.5 92 -49.5 160c0 42 6.66699 79.5 20 112.5s31 59.167 53 78.5
c44.667 38 93.667 57 147 57c32 0 63.667 -7.66699 95 -23s47 -36 47 -62s-15.333 -41.333 -46 -46c-7.33301 24 -22 42.5 -44 55.5s-44.667 19.5 -68 19.5c-37.333 0 -68.833 -16.5 -94.5 -49.5s-38.5 -79.333 -38.5 -139s15 -105.334 45 -137.001z" />
    <glyph glyph-name="egrave" unicode="&#xe8;" horiz-adv-x="470" 
d="M159 702c24.667 -27.333 50.666 -51.499 77.999 -72.499l59 -46c12 -9.66699 18 -19.5 18 -29.5s-5.33301 -19.667 -16 -29c-18.667 14 -44.167 30 -76.5 48s-56.666 33 -72.999 45s-24.5 25.667 -24.5 41s11.667 29.666 35 42.999zM267.999 475.001
c46.667 0 84.498 -13.167 113.498 -39.5s43.5 -54.833 43.5 -85.5s-4.66699 -54.667 -14 -72s-21.5 -31 -36.5 -41s-36.5 -17.667 -64.5 -23c-42.667 -8 -106.667 -12 -192 -12c5.33301 -48 19.833 -86 43.5 -114s58.834 -42 105.501 -42s79.667 17.333 99 52
c26.667 -10.667 40 -25.334 40 -44.001s-15.167 -34 -45.5 -46s-64.166 -18 -101.499 -18c-62.667 0 -114 19.833 -154 59.5s-60 99.334 -60 179.001s22.167 140.667 66.5 183s96.5 63.5 156.5 63.5zM263.997 420.001c-40 0 -74.167 -13.668 -102.5 -41.001
s-43.166 -69.666 -44.499 -126.999c95.333 0 158.666 7 189.999 21c13.333 6 24.833 14.667 34.5 26s14.5 26.5 14.5 45.5s-8.83301 36.333 -26.5 52s-39.5 23.5 -65.5 23.5z" />
    <glyph glyph-name="eacute" unicode="&#xe9;" horiz-adv-x="470" 
d="M360 702c23.333 -13.333 35 -27.667 35 -43s-7.83301 -28.5 -23.5 -39.5s-42.667 -27.667 -81 -50s-61.833 -37.5 -70.5 -45.5c-10.667 9.33301 -16 19.333 -16 30s5.33301 20.167 16 28.5l57.5 43.5c27.667 20.667 55.167 46 82.5 76zM268 474.999
c46.667 0 84.498 -13.167 113.498 -39.5s43.5 -54.833 43.5 -85.5s-4.66699 -54.667 -14 -72s-21.5 -31 -36.5 -41s-36.5 -17.667 -64.5 -23c-42.667 -8 -106.667 -12 -192 -12c5.33301 -48 19.833 -86 43.5 -114s58.834 -42 105.501 -42s79.667 17.333 99 52
c26.667 -10.667 40 -25.334 40 -44.001s-15.167 -34 -45.5 -46s-64.166 -18 -101.499 -18c-62.667 0 -114 19.833 -154 59.5s-60 99.334 -60 179.001s22.167 140.667 66.5 183s96.5 63.5 156.5 63.5zM263.998 419.999c-40 0 -74.167 -13.668 -102.5 -41.001
s-43.166 -69.666 -44.499 -126.999c95.333 0 158.666 7 189.999 21c13.333 6 24.833 14.667 34.5 26s14.5 26.5 14.5 45.5s-8.83301 36.333 -26.5 52s-39.5 23.5 -65.5 23.5z" />
    <glyph glyph-name="ecircumflex" unicode="&#xea;" horiz-adv-x="470" 
d="M265 679c31.333 -20 60.833 -42.5 88.5 -67.5s41.5 -45 41.5 -60s-7.66699 -25.833 -23 -32.5c-12.667 16 -28 31.5 -46 46.5s-33 25.833 -45 32.5l-18 10l-18.5 -15.5l-20 -16.5l-18.5 -14.5l-18.5 -14c-5 -3.66699 -10.167 -7.16699 -15.5 -10.5
c-9.33301 -6.66699 -17.5 -10 -24.5 -10s-14.833 6 -23.5 18c42.667 51.333 89.667 96 141 134zM268 475c46.667 0 84.498 -13.167 113.498 -39.5s43.5 -54.833 43.5 -85.5s-4.66699 -54.667 -14 -72s-21.5 -31 -36.5 -41s-36.5 -17.667 -64.5 -23
c-42.667 -8 -106.667 -12 -192 -12c5.33301 -48 19.833 -86 43.5 -114s58.834 -42 105.501 -42s79.667 17.333 99 52c26.667 -10.667 40 -25.334 40 -44.001s-15.167 -34 -45.5 -46s-64.166 -18 -101.499 -18c-62.667 0 -114 19.833 -154 59.5s-60 99.334 -60 179.001
s22.167 140.667 66.5 183s96.5 63.5 156.5 63.5zM263.998 420c-40 0 -74.167 -13.668 -102.5 -41.001s-43.166 -69.666 -44.499 -126.999c95.333 0 158.666 7 189.999 21c13.333 6 24.833 14.667 34.5 26s14.5 26.5 14.5 45.5s-8.83301 36.333 -26.5 52
s-39.5 23.5 -65.5 23.5z" />
    <glyph glyph-name="edieresis" unicode="&#xeb;" horiz-adv-x="470" 
d="M268 475c46.667 0 84.498 -13.167 113.498 -39.5s43.5 -54.833 43.5 -85.5s-4.66699 -54.667 -14 -72s-21.5 -31 -36.5 -41s-36.5 -17.667 -64.5 -23c-42.667 -8 -106.667 -12 -192 -12c5.33301 -48 19.833 -86 43.5 -114s58.834 -42 105.501 -42s79.667 17.333 99 52
c26.667 -10.667 40 -25.334 40 -44.001s-15.167 -34 -45.5 -46s-64.166 -18 -101.499 -18c-62.667 0 -114 19.833 -154 59.5s-60 99.334 -60 179.001s22.167 140.667 66.5 183s96.5 63.5 156.5 63.5zM263.998 420c-40 0 -74.167 -13.668 -102.5 -41.001
s-43.166 -69.666 -44.499 -126.999c95.333 0 158.666 7 189.999 21c13.333 6 24.833 14.667 34.5 26s14.5 26.5 14.5 45.5s-8.83301 36.333 -26.5 52s-39.5 23.5 -65.5 23.5zM386.998 536.499c-10.667 -10.333 -22.834 -15.499 -36.501 -15.499s-25.5 5 -35.5 15
s-15 22.667 -15 38s5.33301 28.166 16 38.499s22.834 15.5 36.501 15.5s25.5 -5.16699 35.5 -15.5s15 -23 15 -38s-5.33301 -27.667 -16 -38zM208.998 536.5c-10.667 -10.333 -22.834 -15.499 -36.501 -15.499s-25.5 5 -35.5 15s-15 22.667 -15 38s5.33301 28.166 16 38.499
s22.834 15.5 36.501 15.5s25.5 -5.16699 35.5 -15.5s15 -23 15 -38s-5.33301 -27.667 -16 -38z" />
    <glyph glyph-name="igrave" unicode="&#xec;" horiz-adv-x="213" 
d="M11 702c24.667 -27.333 50.666 -51.499 77.999 -72.499l59 -46c12 -9.66699 18 -19.5 18 -29.5s-5.33301 -19.667 -16 -29c-18.667 14 -44.167 30 -76.5 48s-56.666 33 -72.999 45s-24.5 25.667 -24.5 41s11.667 29.666 35 42.999zM70.999 54.001l2 176.998
c0 95.333 -2.33301 173.333 -7 234c10.667 2 22 3 34 3c31.333 0 47 -12.667 47 -38c0 -3.33301 -0.666992 -16.666 -2 -39.999c-4 -71.333 -6 -142.833 -6 -214.5s6.33301 -128.5 19 -170.5c-12 -5.33301 -26.167 -8 -42.5 -8s-27.833 4.33301 -34.5 13
s-10 23.334 -10 44.001z" />
    <glyph glyph-name="iacute" unicode="&#xed;" horiz-adv-x="213" 
d="M192 702c23.333 -13.333 35 -27.667 35 -43s-7.83301 -28.5 -23.5 -39.5s-42.667 -27.667 -81 -50s-61.833 -37.5 -70.5 -45.5c-10.667 9.33301 -16 19.333 -16 30s5.33301 20.167 16 28.5l57.5 43.5c27.667 20.667 55.167 46 82.5 76zM71 53.999l2 176.998
c0 95.333 -2.33301 173.333 -7 234c10.667 2 22 3 34 3c31.333 0 47 -12.667 47 -38c0 -3.33301 -0.666992 -16.666 -2 -39.999c-4 -71.333 -6 -142.833 -6 -214.5s6.33301 -128.5 19 -170.5c-12 -5.33301 -26.167 -8 -42.5 -8s-27.833 4.33301 -34.5 13
s-10 23.334 -10 44.001z" />
    <glyph glyph-name="icircumflex" unicode="&#xee;" horiz-adv-x="213" 
d="M110 679c31.333 -20 60.835 -42.5 88.502 -67.5s41.5 -45 41.5 -60s-7.66699 -25.833 -23 -32.5c-12.667 16 -28 31.5 -46 46.5s-33 25.833 -45 32.5l-18 10l-18.5 -15.5l-20 -16.5l-18.5 -14.5l-18.5 -14l-14.5 -10.5c-10.667 -6.66699 -19.334 -10 -26.001 -10
s-14.334 6 -23.001 18c42.667 51.333 89.667 96 141 134zM71.002 54l2 176.998c0 95.333 -2.33301 173.333 -7 234c10.667 2 22 3 34 3c31.333 0 47 -12.667 47 -38c0 -3.33301 -0.666992 -16.666 -2 -39.999c-4 -71.333 -6 -142.833 -6 -214.5s6.33301 -128.5 19 -170.5
c-12 -5.33301 -26.167 -8 -42.5 -8s-27.833 4.33301 -34.5 13s-10 23.334 -10 44.001z" />
    <glyph glyph-name="idieresis" unicode="&#xef;" horiz-adv-x="213" 
d="M71 54l2 176.998c0 95.333 -2.33301 173.333 -7 234c10.667 2 22 3 34 3c31.333 0 47 -12.667 47 -38c0 -3.33301 -0.666992 -16.666 -2 -39.999c-4 -71.333 -6 -142.833 -6 -214.5s6.33301 -128.5 19 -170.5c-12 -5.33301 -26.167 -8 -42.5 -8s-27.833 4.33301 -34.5 13
s-10 23.334 -10 44.001zM231 536.498c-10.667 -10.333 -22.834 -15.499 -36.501 -15.499s-25.5 5 -35.5 15s-15 22.667 -15 38s5.33301 28.166 16 38.499s22.834 15.5 36.501 15.5s25.5 -5.16699 35.5 -15.5s15 -23 15 -38s-5.33301 -27.667 -16 -38zM53 536.499
c-10.667 -10.333 -22.834 -15.499 -36.501 -15.499s-25.5 5 -35.5 15s-15 22.667 -15 38s5.33301 28.166 16 38.499s22.834 15.5 36.501 15.5s25.5 -5.16699 35.5 -15.5s15 -23 15 -38s-5.33301 -27.667 -16 -38z" />
    <glyph glyph-name="eth" unicode="&#xf0;" horiz-adv-x="529" 
d="M371 93c26 31.333 39 74.334 39 129.001s-13.333 101.167 -40 139.5s-63 57.5 -109 57.5s-81.833 -15.833 -107.5 -47.5s-38.5 -74.834 -38.5 -129.501s13 -101 39 -139s62.167 -57 108.5 -57s82.5 15.667 108.5 47zM279 586.001l-104 -77
c-17.333 11.333 -26 22.5 -26 33.5s5.33301 20.167 16 27.5l69 46c-38 21.333 -82.667 36.333 -134 45c-0.666992 3.33301 -1 8.33301 -1 15c0 14.667 8 22 24 22s39.833 -4.66699 71.5 -14s60.5 -21 86.5 -35c48 34 84.333 61.333 109 82
c14.667 -13.333 22 -25.666 22 -36.999s-5.66699 -20.333 -17 -27l-34 -23.5l-35 -24.5c56.667 -45.333 96.5 -98.833 119.5 -160.5s34.5 -137.167 34.5 -226.5c0 -73.333 -20 -132 -60 -176s-92.5 -66 -157.5 -66s-117.5 22 -157.5 66s-60 102.667 -60 176
s20 132.166 60 176.499s92.333 66.5 157 66.5c50.667 0 91.667 -13.667 123 -41c-24 64 -59.333 114.667 -106 152z" />
    <glyph glyph-name="ntilde" unicode="&#xf1;" horiz-adv-x="519" 
d="M371 48l6 258.998c0 37.333 -9.16699 65.333 -27.5 84s-41.833 28 -70.5 28c-45.333 0 -90 -18.333 -134 -55c1.33301 -90.667 2 -162.5 2 -215.5s2 -102.167 6 -147.5c-10.667 -2 -22 -3 -34 -3c-30 0 -45 12.667 -45 38c0 2.66699 0.833008 27.167 2.5 73.5
s2.5 92.5 2.5 138.5c0 109.333 -6.33301 180 -19 212c13.333 5.33301 25.333 8 36 8c30.667 0 46 -16.667 46 -50c20 15.333 45.667 28.666 77 39.999s64.333 17 99 17s64.5 -11.167 89.5 -33.5s37.5 -58.166 37.5 -107.499l-3 -178c0 -61.333 5.66699 -111.666 17 -150.999
c-13.333 -5.33301 -27.5 -8 -42.5 -8s-26.333 3.83301 -34 11.5s-11.5 20.834 -11.5 39.501zM405 609.998c0 -18.667 -10.332 -36.667 -30.999 -54s-40.334 -26 -59.001 -26s-40.5 7.5 -65.5 22.5s-43.5 22.5 -55.5 22.5s-31.667 -14 -59 -42
c-10.667 4.66699 -16 11.667 -16 21c0 18 10.5 35.833 31.5 53.5s43.167 26.5 66.5 26.5c12 0 31 -7.5 57 -22.5s45.667 -22.5 59 -22.5s32 14 56 42c10.667 -4 16 -11 16 -21z" />
    <glyph glyph-name="ograve" unicode="&#xf2;" horiz-adv-x="525" 
d="M147 702c24.667 -27.333 50.666 -51.499 77.999 -72.499l59 -46c12 -9.66699 18 -19.5 18 -29.5s-5.33301 -19.667 -16 -29c-18.667 14 -44.167 30 -76.5 48s-56.666 33 -72.999 45s-24.5 25.667 -24.5 41s11.667 29.666 35 42.999zM419.999 56.001
c-40 -44 -92.5 -66 -157.5 -66s-117.5 22 -157.5 66s-60 102.667 -60 176s20 132.166 60 176.499s92.5 66.5 157.5 66.5s117.5 -22.167 157.5 -66.5s60 -103.166 60 -176.499s-20 -132 -60 -176zM370.999 93.001c26 31.333 39 74.334 39 129.001s-13.333 101.167 -40 139.5
s-63 57.5 -109 57.5s-81.833 -15.833 -107.5 -47.5s-38.5 -74.834 -38.5 -129.501s13 -101 39 -139s62.167 -57 108.5 -57s82.5 15.667 108.5 47z" />
    <glyph glyph-name="oacute" unicode="&#xf3;" horiz-adv-x="525" 
d="M378 702c23.333 -13.333 35 -27.667 35 -43s-7.83301 -28.5 -23.5 -39.5s-42.667 -27.667 -81 -50s-61.833 -37.5 -70.5 -45.5c-10.667 9.33301 -16 19.333 -16 30s5.33301 20.167 16 28.5l57.5 43.5c27.667 20.667 55.167 46 82.5 76zM420 55.999
c-40 -44 -92.5 -66 -157.5 -66s-117.5 22 -157.5 66s-60 102.667 -60 176s20 132.166 60 176.499s92.5 66.5 157.5 66.5s117.5 -22.167 157.5 -66.5s60 -103.166 60 -176.499s-20 -132 -60 -176zM371 92.999c26 31.333 39 74.334 39 129.001s-13.333 101.167 -40 139.5
s-63 57.5 -109 57.5s-81.833 -15.833 -107.5 -47.5s-38.5 -74.834 -38.5 -129.501s13 -101 39 -139s62.167 -57 108.5 -57s82.5 15.667 108.5 47z" />
    <glyph glyph-name="ocircumflex" unicode="&#xf4;" horiz-adv-x="525" 
d="M263 679c31.333 -20 60.834 -42.5 88.501 -67.5s41.5 -45 41.5 -60s-7.66699 -25.833 -23 -32.5c-12.667 16 -28 31.5 -46 46.5s-33 25.833 -45 32.5l-18 10l-18.5 -15.5l-20 -16.5l-18.5 -14.5l-18.5 -14c-5 -3.66699 -10.167 -7.16699 -15.5 -10.5
c-10 -6.66699 -18.333 -10 -25 -10s-14.334 6 -23.001 18c42.667 51.333 89.667 96 141 134zM420.001 56c-40 -44 -92.5 -66 -157.5 -66s-117.5 22 -157.5 66s-60 102.667 -60 176s20 132.166 60 176.499s92.5 66.5 157.5 66.5s117.5 -22.167 157.5 -66.5
s60 -103.166 60 -176.499s-20 -132 -60 -176zM371.001 93c26 31.333 39 74.334 39 129.001s-13.333 101.167 -40 139.5s-63 57.5 -109 57.5s-81.833 -15.833 -107.5 -47.5s-38.5 -74.834 -38.5 -129.501s13 -101 39 -139s62.167 -57 108.5 -57s82.5 15.667 108.5 47z" />
    <glyph glyph-name="otilde" unicode="&#xf5;" horiz-adv-x="525" 
d="M420 56c-40 -44 -92.5 -66 -157.5 -66s-117.5 22 -157.5 66s-60 102.667 -60 176s20 132.166 60 176.499s92.5 66.5 157.5 66.5s117.5 -22.167 157.5 -66.5s60 -103.166 60 -176.499s-20 -132 -60 -176zM371 93c26 31.333 39 74.334 39 129.001
s-13.333 101.167 -40 139.5s-63 57.5 -109 57.5s-81.833 -15.833 -107.5 -47.5s-38.5 -74.834 -38.5 -129.501s13 -101 39 -139s62.167 -57 108.5 -57s82.5 15.667 108.5 47zM405 610.001c0 -18.667 -10.332 -36.667 -30.999 -54s-40.334 -26 -59.001 -26
s-40.5 7.5 -65.5 22.5s-43.5 22.5 -55.5 22.5s-31.667 -14 -59 -42c-10.667 4.66699 -16 11.667 -16 21c0 18 10.5 35.833 31.5 53.5s43.167 26.5 66.5 26.5c12 0 31 -7.5 57 -22.5s45.667 -22.5 59 -22.5s32 14 56 42c10.667 -4 16 -11 16 -21z" />
    <glyph glyph-name="odieresis" unicode="&#xf6;" horiz-adv-x="525" 
d="M420 56c-40 -44 -92.5 -66 -157.5 -66s-117.5 22 -157.5 66s-60 102.667 -60 176s20 132.166 60 176.499s92.5 66.5 157.5 66.5s117.5 -22.167 157.5 -66.5s60 -103.166 60 -176.499s-20 -132 -60 -176zM371 93c26 31.333 39 74.334 39 129.001
s-13.333 101.167 -40 139.5s-63 57.5 -109 57.5s-81.833 -15.833 -107.5 -47.5s-38.5 -74.834 -38.5 -129.501s13 -101 39 -139s62.167 -57 108.5 -57s82.5 15.667 108.5 47zM387 536.501c-10.667 -10.333 -22.834 -15.499 -36.501 -15.499s-25.5 5 -35.5 15
s-15 22.667 -15 38s5.33301 28.166 16 38.499s22.834 15.5 36.501 15.5s25.5 -5.16699 35.5 -15.5s15 -23 15 -38s-5.33301 -27.667 -16 -38zM209 536.502c-10.667 -10.333 -22.834 -15.499 -36.501 -15.499s-25.5 5 -35.5 15s-15 22.667 -15 38s5.33301 28.166 16 38.499
s22.834 15.5 36.501 15.5s25.5 -5.16699 35.5 -15.5s15 -23 15 -38s-5.33301 -27.667 -16 -38z" />
    <glyph glyph-name="divide" unicode="&#xf7;" 
d="M430 216l-155.999 8c-76 0 -143.333 -2.66699 -202 -8c-2 10 -3 20.167 -3 30.5s3 19.833 9 28.5s15 13 27 13c2 0 23 -1.16699 63 -3.5s89 -3.5 147 -3.5s107.333 2.33301 148 7c2 -6 3 -15.5 3 -28.5s-3.33301 -23.5 -10 -31.5s-15.334 -12 -26.001 -12zM271.001 367
c-15.333 0 -28.333 5.33301 -39 16s-16 24.167 -16 40.5s5.33301 30 16 41s23.667 16.5 39 16.5s28.166 -5.5 38.499 -16.5s15.5 -24.667 15.5 -41s-5.16699 -29.833 -15.5 -40.5s-23.166 -16 -38.499 -16zM271.001 23c-15.333 0 -28.333 5.33301 -39 16
s-16 24.167 -16 40.5s5.33301 30 16 41s23.667 16.5 39 16.5s28.166 -5.5 38.499 -16.5s15.5 -24.667 15.5 -41s-5.16699 -29.833 -15.5 -40.5s-23.166 -16 -38.499 -16z" />
    <glyph glyph-name="oslash" unicode="&#xf8;" horiz-adv-x="525" 
d="M371.5 93.5c25.667 31.667 38.5 75 38.5 130s-14.333 102.167 -43 141.5l-168 -303c18.667 -10.667 40.667 -16 66 -16c45.333 0 80.833 15.833 106.5 47.5zM153 370.5c-25.333 -32.333 -38 -77.168 -38 -134.501s14.333 -103.666 43 -138.999l169 304
c-20.667 12 -43.334 18 -68.001 18c-45.333 0 -80.666 -16.167 -105.999 -48.5zM85 -33.002l38.999 70c-52.667 43.333 -79 108 -79 194c0 74 19.833 133.167 59.5 177.5s92.167 66.5 157.5 66.5c34 0 65.333 -6.66699 94 -20l51 103
c11.333 -0.666992 21.833 -3.66699 31.5 -9s14.5 -11.333 14.5 -18s-2 -14.667 -6 -24l-45 -81c52 -44.667 78 -106.5 78 -185.5s-20 -140.5 -60 -184.5s-92.667 -66 -158 -66c-33.333 0 -63.666 6 -90.999 18l-46 -92c-30.667 4 -46 14.667 -46 32c0 4.66699 2 11 6 19z
" />
    <glyph glyph-name="ugrave" unicode="&#xf9;" horiz-adv-x="518" 
d="M146 702c24.667 -27.333 50.666 -51.499 77.999 -72.499l59 -46c12 -9.66699 18 -19.5 18 -29.5s-5.33301 -19.667 -16 -29c-18.667 14 -44.167 30 -76.5 48s-56.666 33 -72.999 45s-24.5 25.667 -24.5 41s11.667 29.666 35 42.999zM442.999 430.001l-4.00098 -226.999
c0 -84.667 6.33301 -150.667 19 -198c-13.333 -5.33301 -25.666 -8 -36.999 -8c-30.667 0 -46 16.667 -46 50c-48 -38 -101 -57 -159 -57c-94.667 0 -142 47 -142 141l3 178c0 60.667 -5.66699 111 -17 151c13.333 5.33301 27.5 8 42.5 8s26.333 -3.83301 34 -11.5
s11.5 -20.834 11.5 -39.501l-6 -259c0 -36 8.83301 -63.667 26.5 -83s40.5 -29 68.5 -29c48 0 93 18.333 135 55c-0.666992 28.667 -1 82 -1 160s-2.33301 146 -7 204c10.667 2 22 3 34 3c30 0 45 -12.667 45 -38z" />
    <glyph glyph-name="uacute" unicode="&#xfa;" horiz-adv-x="518" 
d="M377 702c23.333 -13.333 35 -27.667 35 -43s-7.83301 -28.5 -23.5 -39.5s-42.667 -27.667 -81 -50s-61.833 -37.5 -70.5 -45.5c-10.667 9.33301 -16 19.333 -16 30s5.33301 20.167 16 28.5l57.5 43.5c27.667 20.667 55.167 46 82.5 76zM443 429.999l-4.00098 -226.999
c0 -84.667 6.33301 -150.667 19 -198c-13.333 -5.33301 -25.666 -8 -36.999 -8c-30.667 0 -46 16.667 -46 50c-48 -38 -101 -57 -159 -57c-94.667 0 -142 47 -142 141l3 178c0 60.667 -5.66699 111 -17 151c13.333 5.33301 27.5 8 42.5 8s26.333 -3.83301 34 -11.5
s11.5 -20.834 11.5 -39.501l-6 -259c0 -36 8.83301 -63.667 26.5 -83s40.5 -29 68.5 -29c48 0 93 18.333 135 55c-0.666992 28.667 -1 82 -1 160s-2.33301 146 -7 204c10.667 2 22 3 34 3c30 0 45 -12.667 45 -38z" />
    <glyph glyph-name="ucircumflex" unicode="&#xfb;" horiz-adv-x="518" 
d="M262 679c31.333 -20 60.835 -42.5 88.502 -67.5s41.5 -45 41.5 -60s-7.66699 -25.833 -23 -32.5c-12.667 16 -28 31.5 -46 46.5s-33 25.833 -45 32.5l-18 10l-18.5 -15.5l-20 -16.5l-18.5 -14.5l-18.5 -14l-14.5 -10.5c-10.667 -6.66699 -19.334 -10 -26.001 -10
s-14.334 6 -23.001 18c42.667 51.333 89.667 96 141 134zM443.002 430l-4.00098 -226.999c0 -84.667 6.33301 -150.667 19 -198c-13.333 -5.33301 -25.666 -8 -36.999 -8c-30.667 0 -46 16.667 -46 50c-48 -38 -101 -57 -159 -57c-94.667 0 -142 47 -142 141l3 178
c0 60.667 -5.66699 111 -17 151c13.333 5.33301 27.5 8 42.5 8s26.333 -3.83301 34 -11.5s11.5 -20.834 11.5 -39.501l-6 -259c0 -36 8.83301 -63.667 26.5 -83s40.5 -29 68.5 -29c48 0 93 18.333 135 55c-0.666992 28.667 -1 82 -1 160s-2.33301 146 -7 204
c10.667 2 22 3 34 3c30 0 45 -12.667 45 -38z" />
    <glyph glyph-name="udieresis" unicode="&#xfc;" horiz-adv-x="518" 
d="M443 430l-4.00098 -226.999c0 -84.667 6.33301 -150.667 19 -198c-13.333 -5.33301 -25.666 -8 -36.999 -8c-30.667 0 -46 16.667 -46 50c-48 -38 -101 -57 -159 -57c-94.667 0 -142 47 -142 141l3 178c0 60.667 -5.66699 111 -17 151c13.333 5.33301 27.5 8 42.5 8
s26.333 -3.83301 34 -11.5s11.5 -20.834 11.5 -39.501l-6 -259c0 -36 8.83301 -63.667 26.5 -83s40.5 -29 68.5 -29c48 0 93 18.333 135 55c-0.666992 28.667 -1 82 -1 160s-2.33301 146 -7 204c10.667 2 22 3 34 3c30 0 45 -12.667 45 -38zM382.999 536.501
c-10.667 -10.333 -22.834 -15.499 -36.501 -15.499s-25.5 5 -35.5 15s-15 22.667 -15 38s5.33301 28.166 16 38.499s22.834 15.5 36.501 15.5s25.5 -5.16699 35.5 -15.5s15 -23 15 -38s-5.33301 -27.667 -16 -38zM204.999 536.502
c-10.667 -10.333 -22.834 -15.499 -36.501 -15.499s-25.5 5 -35.5 15s-15 22.667 -15 38s5.33301 28.166 16 38.499s22.834 15.5 36.501 15.5s25.5 -5.16699 35.5 -15.5s15 -23 15 -38s-5.33301 -27.667 -16 -38z" />
    <glyph glyph-name="yacute" unicode="&#xfd;" horiz-adv-x="441" 
d="M336 702c23.333 -13.333 35 -27.667 35 -43s-7.83301 -28.5 -23.5 -39.5s-42.667 -27.667 -81 -50s-61.833 -37.5 -70.5 -45.5c-10.667 9.33301 -16 19.333 -16 30s5.33301 20.167 16 28.5l57.5 43.5c27.667 20.667 55.167 46 82.5 76zM376 474.999
c23.333 0 35.001 -14.4971 35.001 -43.4971s-11.833 -81 -35.5 -156s-51.834 -147.167 -84.501 -216.5c-58.667 -124.667 -114 -219.334 -166 -284.001c-13.333 -17.333 -26.333 -26 -39 -26c-18.667 0 -37 13.333 -55 40c20 12.667 46.667 38.5 80 77.5
s62.333 78.167 87 117.5c-23.333 77.333 -55 165.5 -95 264.5s-74.333 162.167 -103 189.5c23.333 21.333 42.5 32 57.5 32s27.833 -10.667 38.5 -32c16 -32 39.667 -87.833 71 -167.5s54.666 -145.834 69.999 -198.501c28.667 62 53.834 128.667 75.501 200
s32.5 127.666 32.5 168.999c0 3.33301 -0.666992 13 -2 29c10 3.33301 21 5 33 5z" />
    <glyph glyph-name="thorn" unicode="&#xfe;" horiz-adv-x="505" 
d="M134 365l1 -289c30.667 -20 70.667 -30 120 -30c30 0 55.667 10 77 30c38 37.333 57 93.333 57 168c0 60 -11.5 104.167 -34.5 132.5s-54.5 42.5 -94.5 42.5s-82 -18 -126 -54zM64 -196l3 425v244c0 118 -2.33301 207 -7 267c10.667 2 22.334 3 35.001 3
c30.667 0 46 -12.667 46 -38c0 -3.33301 -0.333008 -18.333 -1 -45c-4 -96 -6 -175.667 -6 -239c50 36 100.667 54 152 54s93.166 -17.833 125.499 -53.5s48.5 -89.834 48.5 -162.501c0 -104 -31.667 -180.667 -95 -230c-33.333 -26 -71.5 -39 -114.5 -39
s-82.167 11.333 -117.5 34c0 -113.333 2.33301 -183.5 7 -210.5s9 -46.5 13 -58.5c-12 -5.33301 -26.5 -8 -43.5 -8s-28.833 4.33301 -35.5 13s-10 23.334 -10 44.001z" />
    <glyph glyph-name="ydieresis" unicode="&#xff;" horiz-adv-x="441" 
d="M332 536.5c-10.667 -10.333 -22.834 -15.499 -36.501 -15.499s-25.5 5 -35.5 15s-15 22.667 -15 38s5.33301 28.166 16 38.499s22.834 15.5 36.501 15.5s25.5 -5.16699 35.5 -15.5s15 -23 15 -38s-5.33301 -27.667 -16 -38zM154 536.501
c-10.667 -10.333 -22.834 -15.499 -36.501 -15.499s-25.5 5 -35.5 15s-15 22.667 -15 38s5.33301 28.166 16 38.499s22.834 15.5 36.501 15.5s25.5 -5.16699 35.5 -15.5s15 -23 15 -38s-5.33301 -27.667 -16 -38zM376 475.002c23.333 0 35.001 -14.4971 35.001 -43.4971
s-11.833 -81 -35.5 -156s-51.834 -147.167 -84.501 -216.5c-58.667 -124.667 -114 -219.334 -166 -284.001c-13.333 -17.333 -26.333 -26 -39 -26c-18.667 0 -37 13.333 -55 40c20 12.667 46.667 38.5 80 77.5s62.333 78.167 87 117.5c-23.333 77.333 -55 165.5 -95 264.5
s-74.333 162.167 -103 189.5c23.333 21.333 42.5 32 57.5 32s27.833 -10.667 38.5 -32c16 -32 39.667 -87.833 71 -167.5s54.666 -145.834 69.999 -198.501c28.667 62 53.834 128.667 75.501 200s32.5 127.666 32.5 168.999c0 3.33301 -0.666992 13 -2 29
c10 3.33301 21 5 33 5z" />
    <glyph glyph-name="dotlessi" unicode="&#x131;" horiz-adv-x="213" 
d="M71 54l2 176.998c0 95.333 -2.33301 173.333 -7 234c10.667 2 22 3 34 3c31.333 0 47 -12.667 47 -38c0 -3.33301 -0.666992 -16.666 -2 -39.999c-4 -71.333 -6 -142.833 -6 -214.5s6.33301 -128.5 19 -170.5c-12 -5.33301 -26.167 -8 -42.5 -8s-27.833 4.33301 -34.5 13
s-10 23.334 -10 44.001z" />
    <glyph glyph-name="Lslash" unicode="&#x141;" horiz-adv-x="429" 
d="M73 265c-24 -18.667 -52.667 -43.001 -86 -73.001c-21.333 12.667 -32 25.667 -32 39c0 8 5 16 15 24l103 78v98c0 94 -2.33301 171.333 -7 232c11.333 2 25 3 41 3c32.667 0 49 -12.667 49 -38c0 -3.33301 -0.666992 -16.666 -2 -39.999c-4 -71.333 -6 -137 -6 -197
c47.333 37.333 90.666 73.666 129.999 108.999c21.333 -10.667 32 -23.334 32 -38.001c0 -9.33301 -5 -17.666 -15 -24.999l-147 -113c0 -145.333 2.33301 -232.666 7 -261.999c28 -1.33301 50 -2 66 -2c104 0 171 7.66699 201 23c4.66699 -14 7 -27.833 7 -41.5
s-3 -23.167 -9 -28.5c-11.333 -10 -59.666 -15 -144.999 -15s-137.5 0.5 -156.5 1.5s-31.667 5.83301 -38 14.5s-9.5 23 -9.5 43l2 167v41z" />
    <glyph glyph-name="lslash" unicode="&#x142;" horiz-adv-x="213" 
d="M68 301l-105.001 -88.998c-21.333 12.667 -32 25.667 -32 39c0 8 5 16 15 24l122 93v83c0 157.333 -2.66699 253.666 -8 288.999c10.667 2 22.334 3 35.001 3c30.667 0 46 -12.667 46 -38c0 -3.33301 -0.333008 -18.333 -1 -45c-4 -96 -6 -176.333 -6 -241
c39.333 31.333 79.333 65 120 101c21.333 -10.667 32 -23.334 32 -38.001c0 -9.33301 -5 -17.666 -15 -24.999l-137 -105v-150c0 -88.667 6.33301 -154.334 19 -197.001c-12 -5.33301 -26 -8 -42 -8s-27.5 4 -34.5 12s-10.5 21.333 -10.5 40
c0 45.333 0.666992 129.333 2 252z" />
    <glyph glyph-name="OE" unicode="&#x152;" horiz-adv-x="880" 
d="M472 81l2.00195 142.999v200c0 50 -1.66699 101.667 -5 155c-32.667 22 -70.334 33 -113.001 33c-68.667 0 -123.334 -23.5 -164.001 -70.5s-61 -106.833 -61 -179.5c0 -79.333 16.667 -149.666 50 -210.999c16.667 -30.667 39.834 -55 69.501 -73s65.667 -27 108 -27
s80.166 10 113.499 30zM545.002 598.999c2.66699 -29.333 4 -100.001 4 -212.001h79c56 0 96 1.33301 120 4c2.66699 -5.33301 4 -14.833 4 -28.5s-3.5 -23.167 -10.5 -28.5s-18.667 -8.33301 -35 -9s-39.5 -1 -69.5 -1h-88c0 -145.333 2.33301 -232.666 7 -261.999
c29.333 -1.33301 53 -2 71 -2c112 0 183.667 7.66699 215 23c5.33301 -13.333 8 -27 8 -41s-3 -23.667 -9 -29c-12 -10 -66 -15 -162 -15h-42c-81.333 0 -136.666 3.66699 -165.999 11c-36.667 -12.667 -75.334 -19 -116.001 -19c-93.333 0 -167.666 31 -222.999 93
s-83 145 -83 249s27.667 186.833 83 248.5s129.666 92.5 222.999 92.5c36 0 71 -5.33301 105 -16c71.333 6 149.5 9 234.5 9s133.5 -5 145.5 -15c6 -5.33301 9 -15 9 -29s-2.66699 -27.667 -8 -41c-38 14 -100 21 -186 21c-35.333 0 -72 -1 -110 -3z" />
    <glyph glyph-name="oe" unicode="&#x153;" horiz-adv-x="832" 
d="M626 420c-39.333 0 -73.167 -13.6689 -101.5 -41.002s-43.166 -69.666 -44.499 -126.999c95.333 0 158.666 7 189.999 21c32 14.667 48 37.334 48 68.001c0 21.333 -8.83301 39.833 -26.5 55.5s-39.5 23.5 -65.5 23.5zM370.999 92.998c26 31.333 39 74.334 39 129.001
s-13.333 101.167 -40 139.5s-63 57.5 -109 57.5s-81.833 -15.833 -107.5 -47.5s-38.5 -74.834 -38.5 -129.501s13 -101 39 -139s62.167 -57 108.5 -57s82.5 15.667 108.5 47zM261.999 -10.001c-64.667 0 -116.998 22 -156.998 66s-60 102.667 -60 176s20 132.166 60 176.499
s92.333 66.5 157 66.5c82 0 142.667 -33.333 182 -100c20.667 32.667 47.667 57.5 81 74.5s70.833 25.5 112.5 25.5s77 -13.167 106 -39.5s43.5 -54.833 43.5 -85.5s-4.66699 -54.667 -14 -72s-21.5 -31 -36.5 -41s-36.5 -17.667 -64.5 -23
c-42.667 -8 -106.667 -12 -192 -12c5.33301 -46 22.166 -83.5 50.499 -112.5s64.666 -43.5 108.999 -43.5s78.833 16 103.5 48c20.667 -12 31 -26.667 31 -44s-14 -31.666 -42 -42.999s-60 -17 -96 -17c-87.333 0 -151.333 32.667 -192 98
c-40 -65.333 -100.667 -98 -182 -98z" />
    <glyph glyph-name="Scaron" unicode="&#x160;" horiz-adv-x="518" 
d="M276 716c-31.333 20 -60.833 42.501 -88.5 67.501s-41.5 45 -41.5 60s7.66699 25.833 23 32.5c12.667 -16 28 -31.333 46 -46s33 -25.334 45 -32.001l18 -11l18.5 15.5l20 16.5l18.5 14.5l18.5 14l14.5 10.5c10 6.66699 18.5 10 25.5 10s14.833 -6 23.5 -18
c-42.667 -51.333 -89.667 -96 -141 -134zM401 533.001c-11.333 22 -31.6621 40.1719 -60.9951 54.5049s-60.333 21.5 -93 21.5s-60.5 -9.33301 -83.5 -28s-34.5 -43.334 -34.5 -74.001s6.33301 -54.334 19 -71.001s29.167 -29.334 49.5 -38.001s42.666 -16.167 66.999 -22.5
s48.666 -13.5 72.999 -21.5s46.666 -18 66.999 -30s36.833 -29.667 49.5 -53s19 -52 19 -86s-6.66699 -64.167 -20 -90.5s-31.333 -46.833 -54 -61.5c-44 -28.667 -94.167 -43 -150.5 -43s-104.333 9.16699 -144 27.5s-59.5 40.5 -59.5 66.5c0 15.333 8.33301 28.333 25 39
c5.33301 3.33301 14 8 26 14c12.667 -24.667 35.5 -44.834 68.5 -60.501s67.333 -23.5 103 -23.5s66.834 10.167 93.501 30.5s40 48.333 40 84s-11.833 63 -35.5 82s-52.334 33 -86.001 42s-67.334 18.833 -101.001 29.5s-62.334 29.167 -86.001 55.5
s-35.5 61.833 -35.5 106.5c0 61.333 20.167 108.333 60.5 141s91.833 49 154.5 49c46 0 88.5 -8 127.5 -24s58.5 -38 58.5 -66c0 -26.667 -19 -43.334 -57 -50.001z" />
    <glyph glyph-name="scaron" unicode="&#x161;" horiz-adv-x="409" 
d="M222 526c-31.333 20 -60.833 42.501 -88.5 67.501s-41.5 45 -41.5 60s7.66699 25.833 23 32.5c12.667 -16 28 -31.333 46 -46s33 -25.334 45 -32.001l18 -11l18.5 15.5l20 16.5l18.5 14.5l18.5 14l14.5 10.5c10 6.66699 18.5 10 25.5 10s14.833 -6 23.5 -18
c-42.667 -51.333 -89.667 -96 -141 -134zM310 354.001c-7.33301 19.333 -22.3291 34.999 -44.9961 46.999s-45.834 18 -69.501 18s-43.834 -6.16699 -60.501 -18.5s-25 -29.666 -25 -51.999s8.83301 -39.5 26.5 -51.5s39.167 -20.833 64.5 -26.5s50.666 -12 75.999 -19
s46.833 -20.167 64.5 -39.5s26.5 -45 26.5 -77c0 -47.333 -17 -83.333 -51 -108s-72.833 -37 -116.5 -37s-81.334 7.66699 -113.001 23s-47.5 34.333 -47.5 57c0 19.333 15 33.333 45 42c7.33301 -21.333 23.166 -37.666 47.499 -48.999s50.833 -17 79.5 -17
s51.834 6.33301 69.501 19s26.5 31.167 26.5 55.5s-8.83301 42.166 -26.5 53.499s-39.167 19.5 -64.5 24.5s-50.666 11.167 -75.999 18.5s-46.833 21.333 -64.5 42s-26.5 49.5 -26.5 86.5s17.167 67.833 51.5 92.5s70.166 37 107.499 37s71 -7 101 -21s45 -32.333 45 -55
s-15 -37.667 -45 -45z" />
    <glyph glyph-name="Ydieresis" unicode="&#x178;" horiz-adv-x="501" 
d="M496 627c0 -16.667 -25.332 -63.835 -75.999 -141.502s-95 -139.167 -133 -184.5v-85c0 -97.333 6.33301 -167.666 19 -210.999c-12 -5.33301 -27.667 -8 -47 -8s-32.333 4.33301 -39 13s-10 23.334 -10 44.001l2 178v62c-96.667 182 -170.667 290.333 -222 325
c10 13.333 17.333 22 22 26l14 12c8 6.66699 17 10 27 10c16.667 0 32.667 -11.333 48 -34c40 -58 93.333 -148.667 160 -272c32 42 66.167 98.167 102.5 168.5s55.166 117.833 56.499 142.5c50.667 -3.33301 76 -18.333 76 -45zM374.001 727.499
c-10.667 -10.333 -22.834 -15.499 -36.501 -15.499s-25.5 5 -35.5 15s-15 22.667 -15 38s5.33301 28.166 16 38.499s22.834 15.5 36.501 15.5s25.5 -5.16699 35.5 -15.5s15 -23 15 -38s-5.33301 -27.667 -16 -38zM196.001 727.5
c-10.667 -10.333 -22.834 -15.499 -36.501 -15.499s-25.5 5 -35.5 15s-15 22.667 -15 38s5.33301 28.166 16 38.499s22.834 15.5 36.501 15.5s25.5 -5.16699 35.5 -15.5s15 -23 15 -38s-5.33301 -27.667 -16 -38z" />
    <glyph glyph-name="Zcaron" unicode="&#x17d;" 
d="M297 716c-31.333 20 -60.833 42.501 -88.5 67.501s-41.5 45 -41.5 60s7.66699 25.833 23 32.5c12.667 -16 28 -31.333 46 -46s33 -25.334 45 -32.001l18 -11l18.5 15.5l20 16.5l18.5 14.5l18.5 14c5 3.66699 10.167 7.16699 15.5 10.5c9.33301 6.66699 17.5 10 24.5 10
s14.833 -6 23.5 -18c-42.667 -51.333 -89.667 -96 -141 -134zM499 648.001c10.667 -12 16.001 -25.667 16.001 -41s-5.66699 -30.333 -17 -45l-404 -505c24 -2.66699 51 -4 81 -4c129.333 0 234.666 10.667 315.999 32c6.66699 -17.333 10 -32.5 10 -45.5
s-5.66699 -22.167 -17 -27.5c-25.333 -12 -90 -18 -194 -18s-186 4 -246 12c-12 16 -18 33.667 -18 53s8.33301 39.333 25 60l377 481c-31.333 4 -72 6 -122 6c-94 0 -177.333 -9 -250 -27c-6.66699 16 -10 30 -10 42c0 18.667 9.66699 30.667 29 36
c28 6.66699 86.833 10 176.5 10s172.167 -6.33301 247.5 -19z" />
    <glyph glyph-name="zcaron" unicode="&#x17e;" horiz-adv-x="429" 
d="M229 525c-31.333 20 -60.833 42.5 -88.5 67.5s-41.5 45 -41.5 60s7.66699 25.833 23 32.5c12.667 -16 28 -31.333 46 -46s33 -25.667 45 -33l18 -10l18.5 15.5l20 16.5l18.5 14.5l18.5 14c5 3.66699 10.167 7.16699 15.5 10.5c9.33301 6.66699 17.5 10 24.5 10
s14.833 -6 23.5 -18c-42.667 -51.333 -89.667 -96 -141 -134zM378 451c10.667 -10.667 16 -25.833 16 -45.5s-5.66699 -35.167 -17 -46.5l-295 -307c22.667 -2 45 -3 67 -3c71.333 0 145.333 10 222 30c6 -12 9 -23.833 9 -35.5s-2.83301 -20.334 -8.5 -26.001
s-11.5 -9.5 -17.5 -11.5c-30 -8 -78.833 -12 -146.5 -12s-123.5 4 -167.5 12c-10 14 -15 31 -15 51s7.33301 37.333 22 52l291 299c-37.333 4 -73.333 6 -108 6c-69.333 0 -128 -8 -176 -24c-6 14.667 -8.66699 29.334 -8 44.001s9 24.5 25 29.5s56.833 7.5 122.5 7.5
s127.167 -6.66699 184.5 -20z" />
    <glyph glyph-name="florin" unicode="&#x192;" 
d="M370 373l-90.001 2.99805l-15 -246c-6.66699 -124 -37 -201.333 -91 -232c-22 -12 -48 -18 -78 -18s-51.833 5 -65.5 15s-20.5 21.333 -20.5 34s4.66699 24 14 34s23 16.333 41 19c8.66699 -31.333 26.334 -47 53.001 -47s45 11.333 55 34s16.667 60.667 20 114l18 294
c-12.667 0 -33.667 -1.33301 -63 -4c-2 6 -3 11.333 -3 16c0 16 10.333 24.333 31 25l37 1c9.33301 126 42.666 205.667 99.999 239c24 13.333 51.833 20 83.5 20s54.834 -5 69.501 -15s22 -21.333 22 -34s-4.66699 -24 -14 -34s-23 -16.333 -41 -19
c-9.33301 31.333 -29.5 47 -60.5 47s-52.333 -11.333 -64 -34s-19.167 -60.667 -22.5 -114l-3 -52c59.333 3.33301 104.333 7.33301 135 12c2.66699 -5.33301 4 -14.166 4 -26.499s-4.16699 -20.666 -12.5 -24.999s-21.5 -6.5 -39.5 -6.5z" />
    <glyph glyph-name="circumflex" unicode="&#x2c6;" horiz-adv-x="277" 
d="M139 679c31.333 -20 60.833 -42.5 88.5 -67.5s41.5 -45 41.5 -60s-7.66699 -25.833 -23 -32.5c-12.667 16 -28 31.5 -46 46.5s-33 25.833 -45 32.5l-18 10l-18.5 -15.5l-20 -16.5l-18.5 -14.5l-18.5 -14c-5 -3.66699 -10.167 -7.16699 -15.5 -10.5
c-9.33301 -6.66699 -17.5 -10 -24.5 -10s-14.833 6 -23.5 18c42.667 51.333 89.667 96 141 134z" />
    <glyph glyph-name="caron" unicode="&#x2c7;" horiz-adv-x="277" 
d="M156 519c-31.333 20 -60.833 42.5 -88.5 67.5s-41.5 45 -41.5 60s7.66699 25.833 23 32.5c12.667 -16 28 -31.333 46 -46s33 -25.667 45 -33l18 -10l18.5 15.5l20 16.5l18.5 14.5l18.5 14l14.5 10.5c10 6.66699 18.5 10 25.5 10s14.833 -6 23.5 -18
c-42.667 -51.333 -89.667 -96 -141 -134z" />
    <glyph glyph-name="breve" unicode="&#x2d8;" horiz-adv-x="272" 
d="M136 599c28.667 0 50.167 7.16699 64.5 21.5s25.833 36.5 34.5 66.5c24.667 -2 37 -12 37 -30c0 -26 -12.833 -53 -38.5 -81s-58.167 -42 -97.5 -42s-71.833 14 -97.5 42s-38.5 55 -38.5 81c-0 18 12.333 28 37 30c8.66699 -30 20.167 -52.167 34.5 -66.5
s35.833 -21.5 64.5 -21.5z" />
    <glyph glyph-name="dotaccent" unicode="&#x2d9;" horiz-adv-x="103" 
d="M87 536.5c-10.667 -10.333 -22.834 -15.499 -36.501 -15.499s-25.5 5 -35.5 15s-15 22.667 -15 38s5.33301 28.166 16 38.499s22.834 15.5 36.501 15.5s25.5 -5.16699 35.5 -15.5s15 -23 15 -38s-5.33301 -27.667 -16 -38z" />
    <glyph glyph-name="ring" unicode="&#x2da;" horiz-adv-x="153" 
d="M109 610c0 15.333 -3.16797 27.834 -9.50098 37.501s-15.166 14.5 -26.499 14.5c-25.333 0 -38 -14.333 -38 -43c0 -14.667 3.5 -26.834 10.5 -36.501s16.167 -14.5 27.5 -14.5c24 0 36 14 36 42zM72.999 520.001c-28 0 -50.833 8.66699 -68.5 26s-26.5 40.333 -26.5 69
s8.83301 51.667 26.5 69s40.5 26 68.5 26s50.5 -8.66699 67.5 -26s25.5 -40.333 25.5 -69s-8.5 -51.667 -25.5 -69s-39.5 -26 -67.5 -26z" />
    <glyph glyph-name="ogonek" unicode="&#x2db;" horiz-adv-x="470" 
d="M328 15l27 -8c-37.333 -18.667 -62.833 -38.667 -76.5 -60s-20.5 -42.833 -20.5 -64.5s4.33301 -37.334 13 -47.001s19.667 -14.5 33 -14.5c23.333 0 42.333 11.333 57 34c15.333 -9.33301 23 -19.666 23 -30.999s-9.16699 -21.333 -27.5 -30s-40 -13 -65 -13
s-47 7.16699 -66 21.5s-28.5 37.5 -28.5 69.5s11.167 59.333 33.5 82s54.833 43 97.5 61z" />
    <glyph glyph-name="tilde" unicode="&#x2dc;" horiz-adv-x="286" 
d="M286 610c0 -18.667 -10.332 -36.667 -30.999 -54s-40.334 -26 -59.001 -26s-40.5 7.5 -65.5 22.5s-43.5 22.5 -55.5 22.5s-31.667 -14 -59 -42c-10.667 4.66699 -16 11.667 -16 21c0 18 10.5 35.833 31.5 53.5s43.167 26.5 66.5 26.5c12 0 31 -7.5 57 -22.5
s45.667 -22.5 59 -22.5s32 14 56 42c10.667 -4 16 -11 16 -21z" />
    <glyph glyph-name="hungarumlaut" unicode="&#x2dd;" horiz-adv-x="401" 
d="M163 702c23.333 -13.333 35 -27.8311 35 -43.498s-8 -28.834 -24 -39.501s-43 -27.334 -81 -50.001s-61.333 -37.667 -70 -45c-10.667 9.33301 -16 19.333 -16 30s5.83301 20.667 17.5 30l59 45c27.667 20.667 54.167 45 79.5 73zM353 702.002
c23.333 -13.333 35 -27.8311 35 -43.498s-8 -28.834 -24 -39.501s-43 -27.334 -81 -50.001s-61.333 -37.667 -70 -45c-10.667 9.33301 -16 19.333 -16 30s5.83301 20.667 17.5 30l59 45c27.667 20.667 54.167 45 79.5 73z" />
    <glyph glyph-name="pi" unicode="&#x3c0;" horiz-adv-x="512" 
d="M173 244l2.00098 -195.001c0 -18.667 -3 -32 -9 -40s-16.167 -12 -30.5 -12s-26.833 2.66699 -37.5 8c12.667 28.667 19 73 19 133v31c0 71.333 -1.16699 128.833 -3.5 172.5s-3.5 67.5 -3.5 71.5c-34.667 -1.33301 -65.334 -7.33301 -92.001 -18
c-5.33301 10.667 -8 20.5 -8 29.5s0.833008 16 2.5 21s6.5 9.83301 14.5 14.5s19.667 7 35 7l218 -2h71c60 0 104.333 6.33301 133 19c5.33301 -9.33301 8 -20.666 8 -33.999s-4 -23 -12 -29s-21.333 -9 -40 -9h-51c-4.66699 -107.333 -7 -188.333 -7 -243v-31
c0 -60 6.33301 -104.333 19 -133c-12 -5.33301 -26 -8 -42 -8s-27.5 4 -34.5 12s-10.5 21.333 -10.5 40l2 195c0 84 0.333008 140.333 1 169c-16 0.666992 -38.667 1 -68 1h-76v-170z" />
    <glyph glyph-name="endash" unicode="&#x2013;" horiz-adv-x="595" 
d="M529 225l-150.999 8h-143c-76 0 -143.333 -2.66699 -202 -8c-2 10 -3 20.167 -3 30.5s3 19.833 9 28.5s15 13 27 13c2 0 23 -1.16699 63 -3.5s74.667 -3.5 104 -3.5h142c84.667 0 147 2.33301 187 7c2 -6 3 -15.5 3 -28.5s-3.33301 -23.5 -10 -31.5
s-15.334 -12 -26.001 -12z" />
    <glyph glyph-name="emdash" unicode="&#x2014;" horiz-adv-x="755" 
d="M66 294l107 -4h445c42 0 76.667 2.33301 104 7c2 -6 3 -15.333 3 -28s-3.33301 -22.667 -10 -30s-15.334 -11 -26.001 -11l-100 5h-445c-41.333 0 -78.333 -2.66699 -111 -8c-2 10 -3 20.167 -3 30.5s2.83301 19.333 8.5 27s14.834 11.5 27.501 11.5z" />
    <glyph glyph-name="quoteleft" unicode="&#x2018;" horiz-adv-x="177" 
d="M79 619c0 -32.667 16.333 -52.3311 49 -58.998c6.66699 -10.667 10 -22.334 10 -35.001s-5.66699 -23.834 -17 -33.501s-25.333 -14.5 -42 -14.5s-31.167 7.66699 -43.5 23s-18.5 41.5 -18.5 78.5s11.5 73.167 34.5 108.5s50.167 53 81.5 53c17.333 0 26 -10 26 -30
c0 -5.33301 -0.333008 -9.33301 -1 -12h-5c-21.333 0 -39 -8 -53 -24s-21 -34.333 -21 -55z" />
    <glyph glyph-name="quoteright" unicode="&#x2019;" horiz-adv-x="244" 
d="M122 598c0 32.667 -16.333 52.3311 -49 58.998c-6.66699 10.667 -10 22.334 -10 35.001s5.66699 23.834 17 33.501s25.333 14.5 42 14.5s31.167 -7.66699 43.5 -23s18.5 -41.5 18.5 -78.5s-11.5 -73.167 -34.5 -108.5s-50.167 -53 -81.5 -53c-17.333 0 -26 10 -26 30
c0 5.33301 0.333008 9.33301 1 12h5c21.333 0 39 8 53 24s21 34.333 21 55z" />
    <glyph glyph-name="quotesinglbase" unicode="&#x201a;" horiz-adv-x="218" 
d="M106 -22c0 32.667 -16.333 52.3311 -49 58.998c-6.66699 10.667 -10 22.334 -10 35.001s5.66699 23.834 17 33.501s25.333 14.5 42 14.5s31.167 -7.66699 43.5 -23s18.5 -41.5 18.5 -78.5s-11.5 -73.167 -34.5 -108.5s-50.167 -53 -81.5 -53c-17.333 0 -26 10 -26 30
c0 5.33301 0.333008 9.33301 1 12h5c21.333 0 39 8 53 24s21 34.333 21 55z" />
    <glyph glyph-name="quotedblleft" unicode="&#x201c;" horiz-adv-x="409" 
d="M289 617c0 -32.667 16.333 -52.3311 49 -58.998c6.66699 -10.667 10 -22.334 10 -35.001s-5.66699 -23.834 -17 -33.501s-25.333 -14.5 -42 -14.5s-31.167 7.66699 -43.5 23s-18.5 41.5 -18.5 78.5s11.5 73.167 34.5 108.5s50.167 53 81.5 53c17.333 0 26 -10 26 -30
c0 -5.33301 -0.333008 -9.33301 -1 -12h-5c-21.333 0 -39 -8 -53 -24s-21 -34.333 -21 -55zM92 617.003c0 -32.667 16.333 -52.3311 49 -58.998c6.66699 -10.667 10 -22.334 10 -35.001s-5.66699 -23.834 -17 -33.501s-25.333 -14.5 -42 -14.5s-31.167 7.66699 -43.5 23
s-18.5 41.5 -18.5 78.5s11.5 73.167 34.5 108.5s50.167 53 81.5 53c17.333 0 26 -10 26 -30c0 -5.33301 -0.333008 -9.33301 -1 -12h-5c-21.333 0 -39 -8 -53 -24s-21 -34.333 -21 -55z" />
    <glyph glyph-name="quotedblright" unicode="&#x201d;" horiz-adv-x="455" 
d="M130 598c0 32.667 -16.333 52.3311 -49 58.998c-6.66699 10.667 -10 22.334 -10 35.001s5.66699 23.834 17 33.501s25.333 14.5 42 14.5s31.167 -7.66699 43.5 -23s18.5 -41.5 18.5 -78.5s-11.5 -73.167 -34.5 -108.5s-50.167 -53 -81.5 -53c-17.333 0 -26 10 -26 30
c0 5.33301 0.333008 9.33301 1 12h5c21.333 0 39 8 53 24s21 34.333 21 55zM323 597.997c0 32.667 -16.333 52.3311 -49 58.998c-6.66699 10.667 -10 22.334 -10 35.001s5.66699 23.834 17 33.501s25.333 14.5 42 14.5s31.167 -7.66699 43.5 -23s18.5 -41.5 18.5 -78.5
s-11.5 -73.167 -34.5 -108.5s-50.167 -53 -81.5 -53c-17.333 0 -26 10 -26 30c0 5.33301 0.333008 9.33301 1 12h5c21.333 0 39 8 53 24s21 34.333 21 55z" />
    <glyph glyph-name="quotedblbase" unicode="&#x201e;" horiz-adv-x="411" 
d="M106 -22c0 32.667 -16.333 52.3311 -49 58.998c-6.66699 10.667 -10 22.334 -10 35.001s5.66699 23.834 17 33.501s25.333 14.5 42 14.5s31.167 -7.66699 43.5 -23s18.5 -41.5 18.5 -78.5s-11.5 -73.167 -34.5 -108.5s-50.167 -53 -81.5 -53c-17.333 0 -26 10 -26 30
c0 5.33301 0.333008 9.33301 1 12h5c21.333 0 39 8 53 24s21 34.333 21 55zM299 -22.0029c0 32.667 -16.333 52.3311 -49 58.998c-6.66699 10.667 -10 22.334 -10 35.001s5.66699 23.834 17 33.501s25.333 14.5 42 14.5s31.167 -7.66699 43.5 -23s18.5 -41.5 18.5 -78.5
s-11.5 -73.167 -34.5 -108.5s-50.167 -53 -81.5 -53c-17.333 0 -26 10 -26 30c0 5.33301 0.333008 9.33301 1 12h5c21.333 0 39 8 53 24s21 34.333 21 55z" />
    <glyph glyph-name="dagger" unicode="&#x2020;" horiz-adv-x="455" 
d="M353 430l-95.9971 6.00098c3.33301 -195.333 7.16602 -320 11.499 -374s6.5 -85.5 6.5 -94.5s-4 -20 -12 -33s-16 -23.167 -24 -30.5l-12 -10c-31.333 25.333 -47 51 -47 77c0 6.66699 1 23 3 49c6.66699 82 11.667 221 15 417c-24.667 -0.666992 -53 -2.66699 -85 -6
s-53.667 -5.33301 -65 -6c-2 10.667 -3 22 -3 34c0 31.333 12.667 47 38 47c3.33301 0 9.66602 -0.666992 18.999 -2c32 -6.66699 64 -10.334 96 -11.001c0 9.33301 -4.33301 67.333 -13 174c18 4 32.333 6 43 6s24.667 -2 42 -6c-8.66699 -106.667 -13 -164.667 -13 -174
c46.667 0.666992 95 8.66699 145 24c5.33301 -12 8 -26.167 8 -42.5s-4.33301 -27.833 -13 -34.5s-23.334 -10 -44.001 -10z" />
    <glyph glyph-name="daggerdbl" unicode="&#x2021;" horiz-adv-x="456" 
d="M257 436l14.001 -154.999l-13 -150c24.667 0.666992 53 2.66699 85 6s53.667 5.33301 65 6c2 -10.667 3 -22 3 -34c0 -31.333 -12.667 -47 -38 -47c-3.33301 0 -9.66602 0.666992 -18.999 2c-32 6.66699 -64 10.334 -96 11.001c0 -9.33301 4.33301 -67.333 13 -174
c-18 -4 -32.333 -6 -43 -6s-24.667 2 -42 6c8.66699 106.667 13 164.667 13 174c-46.667 -0.666992 -95 -8.66699 -145 -24c-5.33301 12 -8 26.167 -8 42.5s4.33301 27.833 13 34.5s23.334 10 44.001 10l96 -6c-0.666992 20 -3.33398 46.333 -8.00098 79s-7 56.167 -7 70.5
s2.16699 38.666 6.5 72.999s6.83301 61.833 7.5 82.5c-24.667 -0.666992 -53 -2.66699 -85 -6s-53.667 -5.33301 -65 -6c-2 10.667 -3 22 -3 34c0 31.333 12.667 47 38 47c3.33301 0 9.66602 -0.666992 18.999 -2c32 -6.66699 64 -10.334 96 -11.001
c0 9.33301 -4.33301 67.333 -13 174c18 4 32.333 6 43 6s24.667 -2 42 -6c-8.66699 -106.667 -13 -164.667 -13 -174c46.667 0.666992 95 8.66699 145 24c5.33301 -12 8 -26.167 8 -42.5s-4.33301 -27.833 -13 -34.5s-23.334 -10 -44.001 -10z" />
    <glyph glyph-name="bullet" unicode="&#x2022;" horiz-adv-x="268" 
d="M211.5 187c-21 -21.333 -46.668 -32 -77.001 -32s-56.166 10.667 -77.499 32s-32 48.166 -32 80.499s10.833 59.666 32.5 81.999s47.5 33.5 77.5 33.5s55.5 -11.167 76.5 -33.5s31.5 -49.666 31.5 -81.999s-10.5 -59.166 -31.5 -80.499z" />
    <glyph glyph-name="ellipsis" unicode="&#x2026;" horiz-adv-x="765" 
d="M103 -10c-16.667 0 -31 6 -43 18s-18 27 -18 45s6 33.167 18 45.5s26.333 18.5 43 18.5s30.834 -6.16699 42.501 -18.5s17.5 -27.5 17.5 -45.5s-5.83301 -33 -17.5 -45s-25.834 -18 -42.501 -18zM665 -10c-16.667 0 -31 6 -43 18s-18 27 -18 45s6 33.167 18 45.5
s26.333 18.5 43 18.5s30.834 -6.16699 42.501 -18.5s17.5 -27.5 17.5 -45.5s-5.83301 -33 -17.5 -45s-25.834 -18 -42.501 -18zM384 -10c-16.667 0 -31 6 -43 18s-18 27 -18 45s6 33.167 18 45.5s26.333 18.5 43 18.5s30.834 -6.16699 42.501 -18.5s17.5 -27.5 17.5 -45.5
s-5.83301 -33 -17.5 -45s-25.834 -18 -42.501 -18z" />
    <glyph glyph-name="perthousand" unicode="&#x2030;" horiz-adv-x="1092" 
d="M151 25l296.001 467c50.667 80.667 90.667 147.334 120 200.001c11.333 -0.666992 21.666 -4 30.999 -10s14 -12.833 14 -20.5s-2.33301 -15.167 -7 -22.5l-296 -468c-47.333 -74.667 -87.333 -141.334 -120 -200.001c-28.667 6 -44 16 -46 30c0 8 2.66699 16 8 24z
M1003.5 35c-25.667 -30 -60.334 -45 -104.001 -45s-78.334 15 -104.001 45s-38.5 70.5 -38.5 121.5s12.833 91.333 38.5 121s60.334 44.5 104.001 44.5s78.334 -15 104.001 -45s38.5 -70.333 38.5 -121s-12.833 -91 -38.5 -121zM955.001 71
c14 20.667 20.999 46.833 20.999 78.5s-6.66699 60.167 -20 85.5s-31.666 38 -54.999 38s-42.5 -10 -57.5 -30s-22.5 -45.833 -22.5 -77.5s6.83301 -60.5 20.5 -86.5s32.5 -39 56.5 -39s43 10.333 57 31zM663.5 34.999c-25.667 -30 -60.334 -45 -104.001 -45
s-78.334 15 -104.001 45s-38.5 70.5 -38.5 121.5s12.833 91.333 38.5 121s60.334 44.5 104.001 44.5s78.334 -15 104.001 -45s38.5 -70.333 38.5 -121s-12.833 -91 -38.5 -121zM615 70.999c14 20.667 20.999 46.833 20.999 78.5s-6.66699 60.167 -20 85.5
s-31.666 38 -54.999 38s-42.5 -10 -57.5 -30s-22.5 -45.833 -22.5 -77.5s6.83301 -60.5 20.5 -86.5s32.5 -39 56.5 -39s43 10.333 57 31zM296.499 377.998c-25.667 -30 -60.334 -45 -104.001 -45s-78.334 15 -104.001 45s-38.5 70.5 -38.5 121.5s12.833 91.333 38.5 121
s60.334 44.5 104.001 44.5s78.334 -15 104.001 -45s38.5 -70.333 38.5 -121s-12.833 -91 -38.5 -121zM247.999 413.998c14 20.667 20.999 46.833 20.999 78.5s-6.66699 60.167 -20 85.5s-31.666 38 -54.999 38s-42.5 -10 -57.5 -30s-22.5 -45.833 -22.5 -77.5
s6.83301 -60.5 20.5 -86.5s32.5 -39 56.5 -39s43 10.333 57 31z" />
    <glyph glyph-name="guilsinglleft" unicode="&#x2039;" horiz-adv-x="285" 
d="M119 235c23.333 -28.667 46.833 -60.6689 70.5 -96.002s35.5 -57.5 35.5 -66.5s-6.66699 -18.5 -20 -28.5c-44 36.667 -99 100.334 -165 191.001c66 90.667 121 154.334 165 191.001c13.333 -10 20 -19.5 20 -28.5s-11.833 -31.167 -35.5 -66.5
s-47.167 -67.333 -70.5 -96z" />
    <glyph glyph-name="guilsinglright" unicode="&#x203a;" horiz-adv-x="285" 
d="M146 235c-23.333 28.667 -46.833 60.6689 -70.5 96.002s-35.5 57.5 -35.5 66.5s6.66699 18.5 20 28.5c44 -36.667 99 -100.334 165 -191.001c-66 -90.667 -121 -154.334 -165 -191.001c-13.333 10 -20 19.5 -20 28.5s11.833 31.167 35.5 66.5s47.167 67.333 70.5 96z" />
    <glyph glyph-name="fraction" unicode="&#x2044;" horiz-adv-x="292" 
d="M307 740c32.667 -4 49 -14.333 49 -31c0 -4.66699 -2 -11 -6 -19l-292 -585c-44.667 -89.333 -77.667 -160 -99 -212l-21 3c-18.667 6.66699 -28 15.667 -28 27c0 5.33301 2 12 6 20l292 585c42.667 85.333 75.667 156 99 212z" />
    <glyph glyph-name="Euro" unicode="&#x20ac;" 
d="M90 292c-0.666992 8.66699 -1.00098 21 -1.00098 37s0.333008 27.333 1 34c-14 -0.666992 -37.667 -2.33398 -71 -5.00098c-2 6.66699 -3 12.334 -3 17.001c0 18 9 27 27 27h50c6 47.333 18.667 88.833 38 124.5s42.333 63.834 69 84.501
c54.667 41.333 115.667 62 183 62c88 0 132 -15.667 132 -47c0 -21.333 -7.33301 -36.333 -22 -45c-33.333 24 -72.5 36 -117.5 36s-88.5 -18.5 -130.5 -55.5s-68.667 -90.167 -80 -159.5h127c69.333 0 123.333 1.66699 162 5l2 -15c0 -19.333 -9 -29 -27 -29h-268
c-0.666992 -6.66699 -1 -15.834 -1 -27.501s0.666992 -26.167 2 -43.5h130c69.333 0 123.333 1.66699 162 5l2 -15c0 -19.333 -9 -29 -27 -29h-262c12.667 -66.667 39.5 -117.5 80.5 -152.5s83.833 -52.5 128.5 -52.5s83.667 12 117 36c14.667 -8.66699 22 -23.667 22 -45
c0 -32 -44 -48 -132 -48c-66 0 -125.667 19.667 -179 59c-27.333 19.333 -50.666 46.5 -69.999 81.5s-32.333 75.5 -39 121.5c-14.667 -0.666992 -40 -2.33398 -76 -5.00098c-2 6.66699 -3 12.334 -3 17.001c0 18 9 27 27 27h47z" />
    <glyph glyph-name="trademark" unicode="&#x2122;" horiz-adv-x="861" 
d="M421 330l0.999023 105.999v120c0 32.667 -3 64 -9 94c16 4 29 6 39 6c18.667 0 34 -10.333 46 -31c34 -60 68.667 -140 104 -240c27.333 82.667 62.333 162.667 105 240c11.333 20.667 27 31 47 31c12 0 24.667 -2.66699 38 -8c-6 -25.333 -9 -57.333 -9 -96v-150
c0 -42 4 -77 12 -105c-12 -4 -24.333 -6 -37 -6s-21.334 3 -26.001 9s-7 17.167 -7 33.5s0.166992 46 0.5 89s0.5 87.833 0.5 134.5c-32 -71.333 -64 -158.666 -96 -261.999c-5.33301 -2 -14.666 -3 -27.999 -3s-22.666 6.33301 -27.999 19l-35 89
c-31.333 81.333 -53 133 -65 155v-153c0 -42 4 -77 12 -105c-12 -4 -23.5 -6 -34.5 -6s-18.833 3 -23.5 9s-7 16 -7 30zM130.999 651.999l125.002 -0.00195312c56 0 93.333 1 112 3c2.66699 -10.667 4 -18 4 -22c0 -19.333 -9.66699 -29 -29 -29h-78v-192
c0 -49.333 4.33301 -87.666 13 -114.999c-14.667 -4 -27.834 -6 -39.501 -6s-19.834 3 -24.501 9s-7 16 -7 30v274c-44.667 0 -79 -1 -103 -3c-2.66699 8 -4 16.5 -4 25.5s2.5 15.333 7.5 19s12.833 5.83398 23.5 6.50098z" />
    <glyph glyph-name="Omega" unicode="&#x2126;" horiz-adv-x="836" 
d="M418 677c86 0 158.5 -28.5 217.5 -85.5s88.5 -130.5 88.5 -220.5c0 -130 -65 -233.667 -195 -311h181c14 19.333 32.667 53.333 56 102c2 0.666992 4.33301 1 7 1c12 0 18 -5.33301 18 -16c0 -18 -9 -67 -27 -147h-221c-38.667 0 -58 20 -58 60c0 1.33301 1 12 3 32
c102 61.333 153 151 153 269c-0.666992 76.667 -20.5 139.167 -59.5 187.5s-93.5 72.5 -163.5 72.5s-124.5 -24.167 -163.5 -72.5s-58.833 -110.833 -59.5 -187.5c0 -118 51 -207.667 153 -269c2 -10 3 -21 3 -33c0 -39.333 -19.333 -59 -58 -59h-221
c-18 80 -27 129 -27 147c0 10.667 6 16 18 16c2.66699 0 5 -0.333008 7 -1c23.333 -48.667 42 -82.667 56 -102h181c-130 77.333 -195 181 -195 311c0 90 29.5 163.5 88.5 220.5s131.5 85.5 217.5 85.5z" />
    <glyph glyph-name="partialdiff" unicode="&#x2202;" horiz-adv-x="519" 
d="M389 296c-41.333 33.333 -82.499 50 -123.499 50s-75.333 -16.833 -103 -50.5s-41.5 -76.167 -41.5 -127.5c0 -35.333 8.5 -64.5 25.5 -87.5s42.667 -34.5 77 -34.5s64.166 13 89.499 39c44.667 46 70 116.333 76 211zM105.001 598
c-6.66699 14 -10.001 26.667 -10.001 38c0 24.667 19 37 57 37c102.667 0 179.5 -31 230.5 -93s76.5 -147.667 76.5 -257c0 -84 -17.667 -159 -53 -225c-18 -32.667 -42.833 -58.834 -74.5 -78.501s-67.834 -29.5 -108.501 -29.5c-56 0 -98.833 18.667 -128.5 56
s-44.5 85 -44.5 143s18.833 107.833 56.5 149.5s82.834 62.5 135.501 62.5s102.334 -18.333 149.001 -55c-1.33301 84.667 -19 150.334 -53 197.001s-81.667 70 -143 70c-27.333 0 -57.333 -5 -90 -15z" />
    <glyph glyph-name="Delta" unicode="&#x2206;" horiz-adv-x="663" 
d="M110 70c42 -6.66699 111 -10 207 -10s164.333 3.33301 205 10c-109.333 256 -176 417.667 -200 485zM40 40l81 180c78.667 173.333 136.667 307 174 401c6 14.667 20 22 42 22c5.33301 0 14 -1 26 -3l260 -600c0 -26.667 -9.33301 -40 -28 -40h-527
c-18.667 -0 -28 13.333 -28 40z" />
    <glyph glyph-name="product" unicode="&#x220f;" horiz-adv-x="683" 
d="M77 664l177 -2.00098h190c89.333 0 166.666 2 231.999 6c2 -9.33301 3 -20.333 3 -33c0 -26 -12.667 -39 -38 -39l-112 4c0 -4 -1 -18.667 -3 -44c-3.33301 -56 -5 -114 -5 -174v-179c0 -90 6.33301 -156 19 -198c-12 -5.33301 -27.667 -8 -47 -8s-32.333 4.33301 -39 13
s-10 23.334 -10 44.001l2 177v371h-29c-94 0 -157.333 -0.333008 -190 -1v-370l2 -177c0 -20.667 -3 -35.334 -9 -44.001s-17.667 -13 -35 -13s-31.333 2.66699 -42 8c12.667 42 19 108 19 198v179c0 59.333 -1.33301 109.833 -4 151.5s-4 63.834 -4 66.501
c-52.667 -2 -94.667 -6.33301 -126 -13c-5.33301 9.33301 -8 21.833 -8 37.5s4.33301 26.167 13 31.5s23.334 8 44.001 8z" />
    <glyph glyph-name="summation" unicode="&#x2211;" horiz-adv-x="629" 
d="M456 598l-307.999 0.999023l158 -278c2.66699 -5.33301 4 -11.666 4 -18.999s-8 -24 -24 -50l-151 -243h363c14 19.333 32.667 53.333 56 102c2 0.666992 4.33301 1 7 1c12 0 18 -5.33301 18 -16c0 -21.333 -9.66699 -74 -29 -158h-510c-4 0 -7.33301 1.66699 -10 5
s-4.33398 8 -5.00098 14l211 329l-200 344c0 8 2 14.667 6 20s9.33301 8 16 8h447c15.333 -68 23 -112 23 -132c0 -10.667 -6 -16 -18 -16c-2.66699 0 -5 0.333008 -7 1c-19.333 40.667 -35 69.667 -47 87z" />
    <glyph glyph-name="minus" unicode="&#x2212;" 
d="M430 215l-155.999 8c-76 0 -143.333 -2.66699 -202 -8c-2 10 -3 20.167 -3 30.5s3 19.833 9 28.5s15 13 27 13c2 0 23 -1.16699 63 -3.5s89 -3.5 147 -3.5s107.333 2.33301 148 7c2 -6 3 -15.5 3 -28.5s-3.33301 -23.5 -10 -31.5s-15.334 -12 -26.001 -12z" />
    <glyph glyph-name="radical" unicode="&#x221a;" horiz-adv-x="557" 
d="M161 481l179.002 -388.998l124 645c4.66699 0.666992 11 1 19 1c20.667 0 31 -7.33301 31 -22c0 -1.33301 -47 -239.333 -141 -714c-2.66699 -13.333 -7.33398 -22.333 -14.001 -27s-16.334 -7 -29.001 -7h-6l-210 451c-12 -4.66699 -34.333 -16.334 -67 -35.001
c-11.333 5.33301 -17 12.666 -17 21.999s3.66699 16.333 11 21c44 26.667 84 44.667 120 54z" />
    <glyph glyph-name="infinity" unicode="&#x221e;" horiz-adv-x="733" 
d="M607 195c17.333 18 26.002 40.833 26.002 68.5s-8.83301 49.5 -26.5 65.5s-36.834 24 -57.501 24s-40.167 -5.16699 -58.5 -15.5s-32.333 -19.833 -42 -28.5s-22.167 -20.667 -37.5 -36l-9 -9c55.333 -64 101.666 -96 138.999 -96c26.667 0 48.667 9 66 27z
M126.502 194.5c17.667 -17.667 37.167 -26.5 58.5 -26.5s41.5 5.16699 60.5 15.5s34.167 20.5 45.5 30.5s25.333 23.667 42 41c-7.33301 10 -16.5 21 -27.5 33s-28.333 25.833 -52 41.5s-47 23.5 -70 23.5s-42.667 -9.33301 -59 -28s-24.5 -40.667 -24.5 -66
s8.83301 -46.833 26.5 -64.5zM82.502 366c28.333 28 61.5 42.002 99.5 42.002s70.833 -9.16699 98.5 -27.5s56.834 -44.5 87.501 -78.5c23.333 23.333 41.666 40.833 54.999 52.5s32 23.5 56 35.5s48 18 72 18c40.667 0 74.5 -13.833 101.5 -41.5
s40.5 -63.334 40.5 -107.001s-15 -78.834 -45 -105.501s-65.667 -40 -107 -40c-28.667 0 -56.5 8 -83.5 24s-57.833 42 -92.5 78c-19.333 -20 -36.666 -36.333 -51.999 -49s-34.833 -24.667 -58.5 -36s-47.167 -17 -70.5 -17c-40.667 0 -74.834 14 -102.501 42
s-41.5 63 -41.5 105s14.167 77 42.5 105z" />
    <glyph glyph-name="integral" unicode="&#x222b;" horiz-adv-x="296" 
d="M181 548l9 -377.998c0 -122 -13 -210 -39 -264s-65 -81 -117 -81c-19.333 0 -34.833 5 -46.5 15s-17.5 22.167 -17.5 36.5s5.66699 26 17 35s23.333 14.167 36 15.5c12 -31.333 28 -47 48 -47c34 0 51 50.667 51 152c0 41.333 -2.66699 101.666 -8 180.999
s-8 141.666 -8 186.999c0 226 52 339 156 339c19.333 0 34.833 -5 46.5 -15s17.5 -22.167 17.5 -36.5s-5.66699 -26 -17 -35s-23.333 -14.167 -36 -15.5c-12 31.333 -28 47 -48 47c-29.333 0 -44 -45.333 -44 -136z" />
    <glyph glyph-name="approxequal" unicode="&#x2248;" 
d="M483 199c21.333 -6 31.998 -17.833 31.998 -35.5s-11.833 -37 -35.5 -58s-51.5 -31.5 -83.5 -31.5s-63.667 6.5 -95 19.5s-60.166 26 -86.499 39s-48.333 19.5 -66 19.5s-33.334 -3.66699 -47.001 -11s-23.5 -14.666 -29.5 -21.999s-13 -17.333 -21 -30
c-21.333 6 -32 17.833 -32 35.5s11.833 37 35.5 58s53.334 31.5 89.001 31.5s79.5 -13 131.5 -39s87.833 -39 107.5 -39s36.334 3.66699 50.001 11s23.5 14.666 29.5 21.999s13 17.333 21 30zM482.998 399c21.333 -6 31.998 -17.833 31.998 -35.5s-11.833 -37 -35.5 -58
s-51.5 -31.5 -83.5 -31.5s-63.667 6.5 -95 19.5s-60.166 26 -86.499 39s-48.333 19.5 -66 19.5s-33.334 -3.66699 -47.001 -11s-23.5 -14.666 -29.5 -21.999s-13 -17.333 -21 -30c-21.333 6 -32 17.833 -32 35.5s11.833 37 35.5 58s53.334 31.5 89.001 31.5
s79.5 -13 131.5 -39s87.833 -39 107.5 -39s36.334 3.66699 50.001 11s23.5 14.666 29.5 21.999s13 17.333 21 30z" />
    <glyph glyph-name="notequal" unicode="&#x2260;" 
d="M105 188c2.66699 0 32.333 -1.66699 89 -5l79 141c-75.333 0 -142.333 -2.66699 -201 -8c-2 10 -3 20.167 -3 30.5s3 19.833 9 28.5s15 13 27 13c2 0 23 -1.16699 63 -3.5s74.667 -3.5 104 -3.5h33c34 62 64.333 121 91 177c11.333 -0.666992 21.833 -3.66699 31.5 -9
s14.5 -11.833 14.5 -19.5s-2 -15.167 -6 -22.5l-70 -125c40 1.33301 72.333 3.33301 97 6c2 -6 3 -15.5 3 -28.5s-3.33301 -23.5 -10 -31.5s-16 -12 -28 -12s-44 2 -96 6l-78 -141h18c86.667 0 150.334 2.33301 191.001 7c2 -6 3 -15.5 3 -28.5s-3.33301 -23.5 -10 -31.5
s-15.334 -12 -26.001 -12l-156 8h-52l-3 -6c-35.333 -64 -64.333 -119.333 -87 -166c-30.667 4 -46 14.667 -46 32c0 4.66699 2 11 6 19l67 119c-14.667 -0.666992 -43.667 -2.66699 -87 -6c-2 10 -3 20.167 -3 30.5s3 19.833 9 28.5s15 13 27 13z" />
    <glyph glyph-name="lessequal" unicode="&#x2264;" 
d="M143 73l117.002 -4.00098c60 0 110.333 2.33301 151 7c2 -6 3 -14.667 3 -26s-3.33301 -21 -10 -29s-15.334 -12 -26.001 -12l-116 5c-42.667 0 -93.334 -2.66699 -152.001 -8c-2 10 -3 19.333 -3 28s3 17.334 9 26.001s15 13 27 13zM191.002 299.999
c11.333 -9.33301 45.5029 -33.3301 102.503 -71.9971s90.5 -61.667 100.5 -69c-4.66699 -10.667 -11.334 -19.834 -20.001 -27.501s-17.667 -11.5 -27 -11.5s-19 4.33301 -29 13l-212 167l212 167c11.333 8.66699 21.166 13 29.499 13s17.166 -3.83301 26.499 -11.5
s16 -16.834 20 -27.501c-11.333 -8.66699 -33.5 -24.334 -66.5 -47.001l-91.5 -63z" />
    <glyph glyph-name="greaterequal" unicode="&#x2265;" 
d="M257 14l-115.998 -4.99902c-10.667 0 -19.334 4 -26.001 12s-10 17.667 -10 29s1 20 3 26c40.667 -4.66699 91 -7 151 -7l117 4c12 0 21 -4.33301 27 -13s9 -17.334 9 -26.001s-1 -18 -3 -28c-58.667 5.33301 -109.334 8 -152.001 8zM328.002 300.001l-44.9971 30.9971
l-91.5 63c-33 22.667 -55.167 38.334 -66.5 47.001c4 10.667 10.667 19.834 20 27.501s18.166 11.5 26.499 11.5s18.166 -4.33301 29.499 -13l212 -167l-212 -167c-10 -8.66699 -19.667 -13 -29 -13s-18.333 3.83301 -27 11.5s-15.334 16.834 -20.001 27.501
c10 7.33301 43.5 30.333 100.5 69s91.167 62.667 102.5 72z" />
    <glyph glyph-name="lozenge" unicode="&#x25ca;" horiz-adv-x="512" 
d="M414 343l-158 296l-158 -296l158 -296zM35 343l176 325c6.66699 12 21.834 18 45.501 18s38.5 -6 44.5 -18l176 -325l-176 -325c-8 -12 -23.333 -18 -46 -18s-37.334 6 -44.001 18z" />
    <glyph glyph-name="Lslashsmall" unicode="&#xf6f9;" horiz-adv-x="414" 
d="M89 185l-86.002 -72.998c-21.333 12.667 -32 25.667 -32 39c0 8 5 16 15 24l104 79v82c0 69.333 -2 129.666 -6 180.999c10.667 1.33301 23.667 2 39 2c30.667 0 46 -10 46 -30c0 -2.66699 -0.333008 -13 -1 -31c-4 -66 -6 -115.667 -6 -149
c35.333 27.333 79.333 64.333 132 111c21.333 -10.667 32 -23.334 32 -38.001c0 -9.33301 -5 -17.666 -15 -24.999l-149 -116c0 -102.667 2 -164.667 6 -186c22.667 -1.33301 40.334 -2 53.001 -2c83.333 0 137.333 6 162 18c4 -12.667 6 -24.834 6 -36.501
s-2.33301 -19.834 -7 -24.501c-10 -7.33301 -53 -11 -129 -11l-126 1c-15.333 0.666992 -25.666 4.33398 -30.999 11.001s-8 15.5 -8 26.5s0.166992 31.833 0.5 62.5s0.5 59 0.5 85z" />
    <glyph glyph-name="OEsmall" unicode="&#xf6fa;" horiz-adv-x="844" 
d="M315 47c54.667 0 97.335 17.333 128.002 52s46.667 80 48 136v17c-2 59.333 -17.333 110.333 -46 153s-70.834 64 -126.501 64s-99.334 -17.667 -131.001 -53s-47.5 -80.333 -47.5 -135c0 -89.333 24.333 -155.333 73 -198c27.333 -24 61.333 -36 102 -36zM663.001 -1
l-132.001 1c-16.667 0.666992 -27.834 4.33398 -33.501 11.001s-8.5 17.667 -8.5 33v8c-45.333 -39.333 -105 -59 -179 -59s-134 24 -180 72s-69 112.5 -69 193.5s23 145.5 69 193.5s105.333 72 178 72s131.667 -19 177 -57l-6 45c65.333 4.66699 132.333 7 201 7
s106.834 -3.16699 114.501 -9.5s11.5 -15.5 11.5 -27.5s-2.33301 -24 -7 -36c-32 10.667 -82 16 -150 16c-26 0 -55.667 -0.666992 -89 -2c2 -16 3 -67.667 3 -155h64c44.667 0 76.667 1 96 3c2 -4.66699 3 -12.834 3 -24.501s-2.83301 -20 -8.5 -25s-15 -7.83301 -28 -8.5
s-31.5 -1 -55.5 -1h-71c0 -107.333 2 -172 6 -194c24 -1.33301 43.333 -2 58 -2c88.667 0 146.334 6 173.001 18c4.66699 -12 7 -24 7 -36s-2.66699 -20.333 -8 -25c-10 -7.33301 -55.333 -11 -136 -11z" />
    <glyph glyph-name="Scaronsmall" unicode="&#xf6fd;" horiz-adv-x="454" 
d="M230 564c-31.333 20 -60.835 42.501 -88.502 67.501s-41.5 45 -41.5 60s7.66699 25.833 23 32.5c12.667 -16 28 -31.333 46 -46s33 -25.334 45 -32.001l18 -11l18.5 15.5l20 16.5l18.5 14.5l18.5 14l14.5 10.5c10.667 6.66699 19.334 10 26.001 10s14.334 -6 23.001 -18
c-42.667 -51.333 -89.667 -96 -141 -134zM341.998 404.001c-9.33301 18.667 -25.666 34.1641 -48.999 46.4971s-48 18.5 -74 18.5s-48.5 -6.83301 -67.5 -20.5s-28.5 -32.167 -28.5 -55.5s7 -41.5 21 -54.5s31.5 -22.167 52.5 -27.5s43.667 -11.666 68 -18.999
s47 -15.166 68 -23.499s38.5 -22.666 52.5 -42.999s21 -45.5 21 -75.5c0 -54 -18.833 -93.667 -56.5 -119s-81 -38 -130 -38s-90.333 7.33301 -124 22s-50.5 31.5 -50.5 50.5s15 35.833 45 50.5c10.667 -20 29.5 -36.333 56.5 -49s55 -19 84 -19s54.333 7.16699 76 21.5
s32.5 34 32.5 59s-9.66699 44.333 -29 58s-42.833 23.834 -70.5 30.501s-55.334 14.5 -83.001 23.5s-51.167 24.333 -70.5 46s-29 50.167 -29 85.5c0 49.333 17 87 51 113s73.833 39 119.5 39s84.667 -6.5 117 -19.5s48.5 -31.333 48.5 -55s-17 -38.834 -51 -45.501z" />
    <glyph glyph-name="Zcaronsmall" unicode="&#xf6ff;" horiz-adv-x="471" 
d="M244 564c-31.333 20 -60.835 42.501 -88.502 67.501s-41.5 45 -41.5 60s7.66699 25.833 23 32.5c12.667 -16 28 -31.333 46 -46s33 -25.334 45 -32.001l18 -11l18.5 15.5l20 16.5l18.5 14.5l18.5 14l14.5 10.5c10.667 6.66699 19.334 10 26.001 10s14.334 -6 23.001 -18
c-42.667 -51.333 -89.667 -96 -141 -134zM432.998 505.001c8.66699 -10 13.002 -20.833 13.002 -32.5s-4.66699 -23.167 -14 -34.5l-328 -389c18.667 -1.33301 38 -2 58 -2c105.333 0 192.666 8.33301 261.999 25c5.33301 -16 8 -29.333 8 -40s-4.66699 -18 -14 -22
c-20.667 -9.33301 -74.334 -14 -161.001 -14s-156.667 2.66699 -210 8c-10 13.333 -15 27.5 -15 42.5s6.66699 30.167 20 45.5l306 370c-18 2 -57.167 3 -117.5 3s-120.5 -7 -180.5 -21c-5.33301 14.667 -8 28.5 -8 41.5s7.66699 21.833 23 26.5
c22.667 5.33301 70.5 8 143.5 8s144.5 -5 214.5 -15z" />
    <glyph glyph-name="exclamsmall" unicode="&#xf721;" horiz-adv-x="261" 
d="M121 -10c-16.667 0 -31 6 -43 18s-18 27 -18 45s6 33.167 18 45.5s26.333 18.5 43 18.5s30.834 -6.16699 42.501 -18.5s17.5 -27.5 17.5 -45.5s-5.83301 -33 -17.5 -45s-25.834 -18 -42.501 -18zM79 310c0 122.667 -6 202.666 -18 239.999c18.667 6.66699 36 10 52 10
c31.333 0 47 -12.667 47 -38c0 -14 -3 -41.833 -9 -83.5s-9 -80.167 -9 -115.5v-33c0 -39.333 5.33301 -69.666 16 -90.999c-13.333 -6.66699 -25.666 -10 -36.999 -10c-26.667 0 -40.334 12.333 -41.001 37c-0.666992 6.66699 -1 34.667 -1 84z" />
    <glyph glyph-name="dollaroldstyle" unicode="&#xf724;" 
d="M161.5 496c-19 -16 -28.501 -38 -28.501 -66s8.83301 -49.333 26.5 -64s42.834 -27 75.501 -37v193c-30 -1.33301 -54.5 -10 -73.5 -26zM360.999 73.5c22.667 18.333 34 43.001 34 74.001s-10 53.167 -30 66.5s-49.667 25.333 -89 36v-206
c34 1.33301 62.333 11.166 85 29.499zM394.999 458.001c-9.33301 16 -25.165 29.6689 -47.498 41.002s-46.5 18.666 -72.5 21.999v-203c15.333 -4 24.166 -6.33301 26.499 -7l25 -7c14.333 -4 23.166 -6.83301 26.499 -8.5s11 -4.83398 23 -9.50098
s19.833 -8.66699 23.5 -12s9.66699 -7.83301 18 -13.5s14 -11.5 17 -17.5s6.83301 -12.667 11.5 -20c7.33301 -11.333 11 -29 11 -53c0 -58 -17 -101.167 -51 -129.5s-77.333 -44.833 -130 -49.5c1.33301 -26.667 2.66602 -45.667 3.99902 -57l-15 -2
c-19.333 0 -29 9 -29 27v31c-47.333 1.33301 -88.5 9.66602 -123.5 24.999s-52.5 33.666 -52.5 54.999c0 11.333 3.66699 20.333 11 27s18.333 13.334 33 20.001c10 -18 27.333 -33.5 52 -46.5s51.334 -21.167 80.001 -24.5v213c-64 15.333 -108 36.666 -132 63.999
c-22.667 26 -34 60.333 -34 103s15.167 76.834 45.5 102.501s70.166 41.5 119.499 47.5c-1.33301 34.667 -2.66602 59.334 -3.99902 74.001c7.33301 2 13 3 17 3c18 0 27 -9 27 -27v-47c41.333 0 79.833 -7 115.5 -21s53.5 -33.333 53.5 -58c0 -22 -16.333 -36 -49 -42z" />
    <glyph glyph-name="ampersandsmall" unicode="&#xf726;" horiz-adv-x="506" 
d="M153 408c0 -19.333 14 -53.002 42 -101.002c24.667 18.667 42.5 35.834 53.5 51.501s16.5 32.834 16.5 51.501c0 41.333 -17.667 62 -53 62c-39.333 0 -59 -21.333 -59 -64zM158.5 76.998c19 -17.333 41.833 -25.999 68.5 -25.999s50 5.33301 70 16
c-48.667 46.667 -93 97.667 -133 153c-22.667 -20.667 -34 -45.334 -34 -74.001s9.5 -51.667 28.5 -69zM378 241.999c28 0 42 -18.6689 42 -56.002s-8.66699 -70.666 -26 -99.999c28 -18 54.667 -27.333 80 -28c1.33301 -6.66699 2 -15.167 2 -25.5
s-3.83301 -19.5 -11.5 -27.5s-19.5 -12 -35.5 -12c-27.333 0 -56.333 11.667 -87 35c-34 -23.333 -73.667 -35 -119 -35s-85.333 12.833 -120 38.5s-52 61.834 -52 108.501c0 28.667 6.83301 52.167 20.5 70.5s34.167 36.833 61.5 55.5c-15.333 26.667 -28.333 51 -39 73
s-16 43 -16 63c0 38 13.333 68.333 40 91s59.667 34 99 34s69.666 -10.333 90.999 -31s32 -43.167 32 -67.5s-3 -44.833 -9 -61.5s-15.667 -31.667 -29 -45c-19.333 -19.333 -45.666 -39.666 -78.999 -60.999c39.333 -54.667 79 -100.334 119 -137.001
c4 11.333 6 26.5 6 45.5s-4 38.833 -12 59.5c18.667 8.66699 32.667 13 42 13z" />
    <glyph glyph-name="zerooldstyle" unicode="&#xf730;" horiz-adv-x="525" 
d="M262 -10c-66.667 0 -119.5 22 -158.5 66s-58.5 103 -58.5 177s19.5 132.833 58.5 176.5s91.833 65.5 158.5 65.5s119.667 -21.833 159 -65.5s59 -102.5 59 -176.5s-19.667 -133 -59 -177s-92.333 -66 -159 -66zM377.5 96.5c29.667 33.667 44.5 75.5 44.5 125.5
s-14.167 95.333 -42.5 136s-66.666 61 -114.999 61s-87.333 -16.833 -117 -50.5s-44.5 -75.5 -44.5 -125.5s14.167 -95.333 42.5 -136s66.666 -61 114.999 -61s87.333 16.833 117 50.5z" />
    <glyph glyph-name="oneoldstyle" unicode="&#xf731;" horiz-adv-x="347" 
d="M153 57l2.00098 193c0 58.667 -1 113 -3 163c-55.333 -6.66699 -90 -11.334 -104 -14.001c-1.33301 6.66699 -2 12.334 -2 17.001c0 24.667 13 39 39 43c64 10.667 99.667 16 107 16s15.166 -3 23.499 -9s12.5 -13.333 12.5 -22s-0.666992 -23.667 -2 -45
c-4 -64 -6 -122.667 -6 -176v-34c0 -60.667 2.33301 -105.667 7 -135c25.333 0 53.333 1.33301 84 4c2.66699 -8 4 -15.333 4 -22c0 -25.333 -13 -38 -39 -38l-137 2c-37.333 0 -66.333 -0.333008 -87 -1c-3.33301 10 -5 18 -5 24c0 22.667 19.333 34 58 34h48z" />
    <glyph glyph-name="twooldstyle" unicode="&#xf732;" horiz-adv-x="482" 
d="M126 61c52 0 111.328 1.66797 177.995 5.00098s114 8.66602 142 15.999c8 -11.333 12 -23.333 12 -36c0 -28 -25 -43 -75 -45s-100.5 -3 -151.5 -3s-102.5 0.666992 -154.5 2c-30.667 0 -46 15 -46 45c0 5.33301 0.333008 9.33301 1 12
c10.667 7.33301 34.334 22.5 71.001 45.5s64.334 41.333 83.001 55s40.667 31.167 66 52.5c49.333 40.667 74 81.667 74 123c0 24.667 -9.16699 45 -27.5 61s-40.166 24 -65.499 24s-49.666 -7.66699 -72.999 -23s-42.333 -34.666 -57 -57.999
c-24 3.33301 -36 13.666 -36 30.999c0 23.333 18 47 54 71s77 36 123 36s83.333 -11.667 112 -35s43 -53.333 43 -90c0 -46 -22.667 -95 -68 -147s-113.666 -99.333 -204.999 -142z" />
    <glyph glyph-name="threeoldstyle" unicode="&#xf733;" horiz-adv-x="426" 
d="M95 207c62 0 108.496 11.668 139.496 35.001s46.5 49.333 46.5 78s-9.16699 52.5 -27.5 71.5s-40.666 28.5 -66.999 28.5s-50.666 -7 -72.999 -21s-40.166 -34 -53.499 -60c-12.667 0 -23 3.33301 -31 10s-12 14.334 -12 23.001c0 22.667 17.167 45.5 51.5 68.5
s75.333 34.5 123 34.5s86 -14.167 115 -42.5s43.5 -61.833 43.5 -100.5c0 -26.667 -8.16699 -51.834 -24.5 -75.501s-40.166 -41.834 -71.499 -54.501c36 -11.333 64.167 -31.5 84.5 -60.5s30.5 -61.833 30.5 -98.5c0 -59.333 -22 -107.833 -66 -145.5
s-104 -56.5 -180 -56.5c-33.333 0 -58.833 4.83301 -76.5 14.5s-26.5 23 -26.5 40s11 28.167 33 33.5c20 -20 47.667 -30 83 -30c50.667 0 90.334 12.167 119.001 36.5s43 56 43 95s-15 70 -45 93s-71 34.5 -123 34.5c-12.667 0 -21.834 2 -27.501 6s-8.5 13.667 -8.5 29z
" />
    <glyph glyph-name="fouroldstyle" unicode="&#xf734;" horiz-adv-x="500" 
d="M77 114c35.333 -2 72 -3.00098 110 -3.00098s75 1 111 3c0 82.667 1 176.334 3 281.001c-65.333 -65.333 -140 -159 -224 -281zM296 461.999c8.66699 8 25.332 12.002 49.999 12.002c4.66699 0 13 -0.666992 25 -2c0 -2 -1 -15.333 -3 -40c-4 -62.667 -6 -141 -6 -235
v-80c49.333 4 82 9.66699 98 17c5.33301 -12 8 -25.833 8 -41.5s-7.16699 -26 -21.5 -31s-42.166 -7.83301 -83.499 -8.5c0 -96 6.33301 -164 19 -204c-12 -5.33301 -26 -8 -42 -8s-27.333 4.33301 -34 13s-10 25.167 -10 49.5s0.666992 73.833 2 148.5
c-136 0 -222.333 2.33301 -259 7c-14.667 2 -22 15.667 -22 41c0 7.33301 0.666992 15.666 2 24.999c28 44.667 74 106.167 138 184.5s110.333 129.166 139 152.499z" />
    <glyph glyph-name="fiveoldstyle" unicode="&#xf735;" horiz-adv-x="447" 
d="M311 395c-49.333 0 -109 2 -179 6l-14 -161c20.667 3.33301 47.334 5 80.001 5c63.333 0 113 -16 149 -48s54 -79.167 54 -141.5s-22.167 -113.666 -66.5 -153.999s-105.833 -60.5 -184.5 -60.5c-37.333 0 -66.166 4.83301 -86.499 14.5s-30.5 23 -30.5 40
s11 28.167 33 33.5c21.333 -20 51 -30 89 -30c54.667 0 97.5 13.667 128.5 41s46.5 62.166 46.5 104.499s-13.833 77.5 -41.5 105.5s-69.834 42 -126.501 42c-34.667 0 -64.334 -1.66699 -89.001 -5c-6.66699 6.66699 -10 18 -10 34s4.33301 98 13 246
c18.667 -1.33301 66.667 -2 144 -2s129 2.66699 155 8c6.66699 -10 10 -21.333 10 -34c0 -29.333 -24.667 -44 -74 -44z" />
    <glyph glyph-name="sixoldstyle" unicode="&#xf736;" horiz-adv-x="488" 
d="M390 58.5c-35.333 -45.667 -85.667 -68.499 -151 -68.499s-114 23 -146 69s-48 102.667 -48 170s11.833 130 35.5 188s60.5 107 110.5 147s107.667 60 173 60c27.333 0 41 -11 41 -33c0 -6.66699 -1.33301 -16 -4 -28c-18.667 2.66699 -32.334 4 -41.001 4
c-52.667 0 -98 -16.333 -136 -49s-65.5 -72.334 -82.5 -119.001s-25.5 -95.667 -25.5 -147c0 -137.333 44.667 -206 134 -206c38.667 0 68.334 15 89.001 45s31 67.5 31 112.5s-10.5 80 -31.5 105s-48.167 37.5 -81.5 37.5c-18.667 0 -37 -4 -55 -12
c-6.66699 10.667 -10 20.667 -10 30s5.33301 17 16 23c18.667 9.33301 40.667 14 66 14c58 0 100.667 -17.5 128 -52.5s41 -80.667 41 -137s-17.667 -107.333 -53 -153z" />
    <glyph glyph-name="sevenoldstyle" unicode="&#xf737;" horiz-adv-x="422" 
d="M325 401c-103.333 -3.33301 -188.335 -4.99805 -255.002 -4.99805c-51.333 0 -77 14.667 -77 44c0 9.33301 3.33301 20.666 10 33.999c32.667 -5.33301 70 -8 112 -8c150 0 242.333 0.666992 277 2c5.33301 -10.667 8 -22.834 8 -36.501s-2 -26.5 -6 -38.5
c-11.333 -36 -42.166 -104.833 -92.499 -206.5s-90 -179 -119 -232s-48.667 -85.167 -59 -96.5s-21.5 -17 -33.5 -17c-21.333 0 -42.666 13 -63.999 39c56.667 58 113.167 138.833 169.5 242.5s99.5 196.5 129.5 278.5z" />
    <glyph glyph-name="eightoldstyle" unicode="&#xf738;" horiz-adv-x="504" 
d="M340.5 422c13.667 19.333 20.5 41.5 20.5 66.5s-10.833 44.5 -32.5 58.5s-47.5 21 -77.5 21s-55.833 -7 -77.5 -21s-32.5 -31.667 -32.5 -53c0 -50 43.667 -92 131 -126c32 16.667 54.833 34.667 68.5 54zM251 46c40.667 0 73.167 11.6699 97.5 35.0029
s36.5 51.666 36.5 84.999s-12.167 60.666 -36.5 81.999s-61.833 42.666 -112.5 63.999c-39.333 -16.667 -69 -36.5 -89 -59.5s-30 -51.5 -30 -85.5s12.167 -62.667 36.5 -86s56.833 -35 97.5 -35zM252 -9.99707c-66.667 0 -117.833 16.501 -153.5 49.501
s-53.5 72.667 -53.5 119s11.833 82.666 35.5 108.999s58.167 49.5 103.5 69.5c-38 18.667 -66.5 39.834 -85.5 63.501s-28.5 54.667 -28.5 93s17.667 69.666 53 93.999s79.833 36.5 133.5 36.5s96.5 -13.333 128.5 -40s48 -56.667 48 -90c0 -66.667 -37.333 -117 -112 -151
c42.667 -20.667 76.334 -45.167 101.001 -73.5s37 -65.5 37 -111.5s-17.833 -85.5 -53.5 -118.5s-86.834 -49.5 -153.501 -49.5z" />
    <glyph glyph-name="nineoldstyle" unicode="&#xf739;" horiz-adv-x="488" 
d="M98 406.5c35.333 45.667 85.667 68.499 151 68.499s114 -23 146 -69s48 -102.667 48 -170s-11.833 -130 -35.5 -188s-60.5 -107 -110.5 -147s-107.667 -60 -173 -60c-27.333 0 -41 11 -41 33c0 6.66699 1.33301 16 4 28c18.667 -2.66699 32.334 -4 41.001 -4
c52.667 0 98 16.333 136 49s65.5 72.334 82.5 119.001s25.5 95.667 25.5 147c0 137.333 -44.667 206 -134 206c-38.667 0 -68.334 -15 -89.001 -45s-31 -67.5 -31 -112.5s10.5 -80 31.5 -105s48.167 -37.5 81.5 -37.5c18.667 0 37 4 55 12
c6.66699 -10.667 10 -20.667 10 -30s-5.33301 -17 -16 -23c-18.667 -9.33301 -40.667 -14 -66 -14c-58 0 -100.667 17.5 -128 52.5s-41 80.667 -41 137s17.667 107.333 53 153z" />
    <glyph glyph-name="questionsmall" unicode="&#xf73f;" horiz-adv-x="325" 
d="M150 -9c-16.667 0 -31 6 -43 18s-18 27 -18 45s6 33.167 18 45.5s26.333 18.5 43 18.5s30.834 -6.16699 42.501 -18.5s17.5 -27.5 17.5 -45.5s-5.83301 -33 -17.5 -45s-25.834 -18 -42.501 -18zM188 200c-17.333 -6.66699 -30.332 -10.001 -38.999 -10.001
c-30 0 -45 18 -45 54c0 19.333 6.66699 38.666 20 57.999s27.833 35.5 43.5 48.5s30.167 28.833 43.5 47.5s20 36.667 20 54s-6.16699 30.5 -18.5 39.5s-28 13.5 -47 13.5s-37.667 -6.16699 -56 -18.5s-29.833 -28.166 -34.5 -47.499c-33.333 4.66699 -50 19 -50 43
s12.833 43.167 38.5 57.5s57 21.5 94 21.5s70.833 -8.33301 101.5 -25s46 -42.667 46 -78c0 -41.333 -15 -76 -45 -104c-12.667 -11.333 -25.334 -22 -38.001 -32c-30 -24 -45 -48.333 -45 -73c0 -13.333 3.66699 -29.666 11 -48.999z" />
    <glyph glyph-name="Asmall" unicode="&#xf761;" horiz-adv-x="467" 
d="M311 211c-12.667 30 -39.668 101 -81.001 213c-33.333 -96 -59.666 -166.667 -78.999 -212c40 -1.33301 73.167 -2 99.5 -2s46.5 0.333008 60.5 1zM129.999 159c-34 -80.667 -55.667 -138.999 -65 -174.999c-39.333 5.33301 -59 15.666 -59 30.999c0 8.66699 11 38 33 88
s49.5 117.5 82.5 202.5s57.5 154.5 73.5 208.5c10.667 2 23.167 3 37.5 3s24.5 -2.16699 30.5 -6.5s12.167 -14.833 18.5 -31.5l45 -120.5l69.5 -180c22.667 -56.333 49.334 -113.5 80.001 -171.5c-18.667 -9.33301 -35.834 -14 -51.501 -14s-27.167 6.66699 -34.5 20
c-4 9.33301 -23.667 58 -59 146c-57.333 -1.33301 -92.5 -2 -105.5 -2s-44.833 0.666992 -95.5 2z" />
    <glyph glyph-name="Bsmall" unicode="&#xf762;" horiz-adv-x="488" 
d="M203 470l-51 -3.00098c2 -31.333 3 -86.666 3 -165.999c16 -1.33301 30 -2 42 -2c92.667 0 139 28 139 84c0 58 -44.333 87 -133 87zM144 73.999c25.333 -18.667 55.833 -27.999 91.5 -27.999s64.667 9 87 27s33.5 43.667 33.5 77s-12.5 59.166 -37.5 77.499
s-54.5 27.5 -88.5 27.5s-59 -1.33301 -75 -4c0 -54 -3.66699 -113 -11 -177zM70 41c8.66699 59.333 13 142 13 248s-3.33301 181.333 -10 226c37.333 6 84 9 140 9s103.333 -10.333 142 -31s58 -56 58 -106s-24 -85 -72 -105c60.667 -24 91 -68.667 91 -134
c0 -48.667 -17 -86.667 -51 -114s-76 -41 -126 -41c-81.333 0 -143 16 -185 48z" />
    <glyph glyph-name="Csmall" unicode="&#xf763;" horiz-adv-x="516" 
d="M433 113c26 -10.667 39 -25.833 39 -45.5s-15.667 -37 -47 -52s-70.666 -22.5 -117.999 -22.5c-78 0 -140.667 24.333 -188 73s-71 113.667 -71 195s23.5 145.5 70.5 192.5s111.167 70.5 192.5 70.5c43.333 0 79.666 -8.16699 108.999 -24.5s44 -36.666 44 -60.999
s-18.333 -39.5 -55 -45.5c-9.33301 24.667 -24.833 43.5 -46.5 56.5s-44.5 19.5 -68.5 19.5c-48.667 0 -88.667 -18.667 -120 -56s-47 -86 -47 -146s15.667 -111.667 47 -155s75.333 -65 132 -65c25.333 0 49.5 5.66699 72.5 17s41.167 27.666 54.5 48.999z" />
    <glyph glyph-name="Dsmall" unicode="&#xf764;" horiz-adv-x="552" 
d="M70 41c7.33301 44.667 11.333 121.834 12 231.501s-2.33301 190.5 -9 242.5c32 6 72.333 9 121 9s90.167 -4.33301 124.5 -13s66.166 -23 95.499 -43c60 -40.667 90 -110.334 90 -209.001c0 -77.333 -22.333 -141 -67 -191s-106.667 -75 -186 -75
s-139.666 16 -180.999 48zM202 470l-50 -3.00195c2 -26.667 3 -82.167 3 -166.5s-3.66699 -159.5 -11 -225.5c27.333 -18 59.666 -27 96.999 -27s68 6 92 18s42.333 28 55 48c24 38.667 36 82.334 36 131.001c0 74.667 -19.167 130.834 -57.5 168.501
s-93.166 56.5 -164.499 56.5z" />
    <glyph glyph-name="Esmall" unicode="&#xf765;" horiz-adv-x="447" 
d="M92 44l2 135.998v153c0 76 -4 135.667 -12 179c65.333 4.66699 132.333 7 201 7s106.834 -3.16699 114.501 -9.5s11.5 -15.5 11.5 -27.5s-2.33301 -24 -7 -36c-32 10.667 -82 16 -150 16c-26 0 -55.667 -0.666992 -89 -2c2 -16 3 -67.667 3 -155h64
c44.667 0 76.667 1 96 3c2 -5.33301 3 -13.666 3 -24.999s-2.83301 -19.5 -8.5 -24.5s-15 -7.83301 -28 -8.5s-31.5 -1 -55.5 -1h-71c0 -107.333 2 -172 6 -194c24 -1.33301 43.333 -2 58 -2c88 0 145.667 6 173 18c4.66699 -12 7 -24 7 -36s-2.66699 -20.333 -8 -25
c-10 -7.33301 -55.333 -11 -136 -11l-132 1c-16.667 0.666992 -27.834 4.33398 -33.501 11.001s-8.5 17.667 -8.5 33z" />
    <glyph glyph-name="Fsmall" unicode="&#xf766;" horiz-adv-x="409" 
d="M92 39l2 138v157c0 75.333 -4 134.666 -12 177.999c65.333 4.66699 132.333 7 201 7s106.834 -3.16699 114.501 -9.5s11.5 -15.5 11.5 -27.5s-2.33301 -24 -7 -36c-32 10.667 -82 16 -150 16c-22 0 -51.667 -0.666992 -89 -2c2 -18 3 -51.333 3 -100v-63h64
c44.667 0 76.667 1 96 3c2 -5.33301 3 -14.666 3 -27.999s-4.33301 -21.833 -13 -25.5s-28.334 -5.5 -59.001 -5.5h-91v-85c0 -70 5.33301 -121.333 16 -154c-13.333 -4 -28.5 -6 -45.5 -6s-28.667 3.33301 -35 10s-9.5 17.667 -9.5 33z" />
    <glyph glyph-name="Gsmall" unicode="&#xf767;" horiz-adv-x="528" 
d="M472 66c0 -18.667 -15.8311 -35.502 -47.498 -50.502s-70.834 -22.5 -117.501 -22.5c-78 0 -140.667 24.333 -188 73s-71 113.667 -71 195s23.5 145.5 70.5 192.5s111.167 70.5 192.5 70.5c43.333 0 79.666 -8.16699 108.999 -24.5s44 -36.666 44 -60.999
s-18.333 -39.5 -55 -45.5c-10 25.333 -25.667 44.333 -47 57s-44 19 -68 19c-48.667 0 -88.667 -18.667 -120 -56s-47 -86 -47 -146s15.5 -111.667 46.5 -155s74.167 -65 129.5 -65c40 0 73.333 10.333 100 31c-1.33301 60.667 -3.33301 114.334 -6 161.001
c10.667 1.33301 22 2 34 2c31.333 0 47 -9.66699 47 -29c0 -0.666992 -1 -18.167 -3 -52.5s-3 -65.5 -3 -93.5z" />
    <glyph glyph-name="Hsmall" unicode="&#xf768;" horiz-adv-x="586" 
d="M95 42l2 138.001v156c0 69.333 -2 129.333 -6 180c12 2 24.667 3 38 3c31.333 0 47 -10 47 -30c0 -2.66699 -0.666992 -13.334 -2 -32.001c-3.33301 -46.667 -5 -96.667 -5 -150c28 -0.666992 69.5 -1 124.5 -1s96.167 0.333008 123.5 1v32
c-0.666992 70 -2.66699 129 -6 177c12 2 24.667 3 38 3c31.333 0 47 -10 47 -30c0 -2.66699 -0.666992 -13 -2 -31c-3.33301 -45.333 -5 -93 -5 -143v-157c0 -70 5.33301 -121.333 16 -154c-10 -4 -24.333 -6 -43 -6s-31.167 3.33301 -37.5 10s-9.5 18 -9.5 34l2 138v74
c-28 -0.666992 -69.5 -1 -124.5 -1s-96.167 0.333008 -123.5 1v-96c0 -70 5.33301 -121.333 16 -154c-10 -4 -24.333 -6 -43 -6s-31.167 3.33301 -37.5 10s-9.5 18 -9.5 34z" />
    <glyph glyph-name="Ismall" unicode="&#xf769;" horiz-adv-x="268" 
d="M96 42l2 138v156c0 69.333 -2 129.333 -6 180c12 2 24.667 3 38 3c31.333 0 47 -10 47 -30c0 -2.66699 -0.333008 -13 -1 -31c-4 -66 -6 -113.667 -6 -143v-157c0 -70 5.33301 -121.333 16 -154c-10 -4 -24.333 -6 -43 -6s-31.167 3.33301 -37.5 10s-9.5 18 -9.5 34z" />
    <glyph glyph-name="Jsmall" unicode="&#xf76a;" horiz-adv-x="258" 
d="M98 98l-0.999023 238.001c0 79.333 -2 139.333 -6 180c11.333 2 24.333 3 39 3c30.667 0 46 -10 46 -30c0 -2.66699 -0.666992 -12.334 -2 -29.001c-2.66699 -48.667 -4 -92.667 -4 -132v-242c0 -34 -4.83301 -63.5 -14.5 -88.5s-21.834 -43.5 -36.501 -55.5
c-28 -22.667 -53.333 -34 -76 -34c-20.667 0 -31.667 18 -33 54c40 8 64.667 20.667 74 38s14 50 14 98z" />
    <glyph glyph-name="Ksmall" unicode="&#xf76b;" horiz-adv-x="460" 
d="M86 42l2 138.001v156c0 69.333 -2 129.333 -6 180c12 2 24.667 3 38 3c31.333 0 47 -10 47 -30c0 -2.66699 -0.333008 -13 -1 -31c-4 -66 -6 -116.667 -6 -152c40.667 28.667 81.167 64 121.5 106s65.166 77.333 74.499 106c33.333 -4.66699 50 -16.334 50 -35.001
c0 -14 -18.833 -42.167 -56.5 -84.5s-79.167 -82.166 -124.5 -119.499c56.667 -92.667 101.667 -159.334 135 -200.001c19.333 -20.667 40 -31 62 -31c6.66699 0 13 0.666992 19 2c4.66699 -7.33301 7 -15.833 7 -25.5s-5.33301 -17.5 -16 -23.5s-23.667 -9 -39 -9
c-32 0 -60 13.333 -84 40c-19.333 22 -38.666 47 -57.999 75l-84 127l-7 -5v-71c0 -70 5.33301 -121.333 16 -154c-10 -4 -24.333 -6 -43 -6s-31.167 3.33301 -37.5 10s-9.5 18 -9.5 34z" />
    <glyph glyph-name="Lsmall" unicode="&#xf76c;" horiz-adv-x="387" 
d="M86 44l1.99805 130.002v162c0 69.333 -2 129.666 -6 180.999c10.667 1.33301 23.667 2 39 2c30.667 0 46 -10 46 -30c0 -2.66699 -0.333008 -13 -1 -31c-4 -66 -6 -113.667 -6 -143v-69c0 -105.333 2 -169 6 -191c22.667 -1.33301 40.334 -2 53.001 -2
c83.333 0 137.333 6 162 18c4 -12.667 6 -24.834 6 -36.501s-2.33301 -19.834 -7 -24.501c-10 -7.33301 -53 -11 -129 -11l-126 1c-15.333 0.666992 -25.666 4.33398 -30.999 11.001s-8 17.667 -8 33z" />
    <glyph glyph-name="Msmall" unicode="&#xf76d;" horiz-adv-x="714" 
d="M96 42l1.00195 137.999v196c0 58.667 -5 104.667 -15 138c20 4 37.333 6 52 6c27.333 0 50.166 -14.667 68.499 -44s38 -68.833 59 -118.5s37.5 -92 49.5 -127l48 -146.5c40.667 162 93.667 295 159 399c14.667 24.667 36 37 64 37c16 0 32.667 -2 50 -6
c-10 -31.333 -15 -89.333 -15 -174v-182c0 -70 5 -121.667 15 -155c-8.66699 -3.33301 -22.334 -5 -41.001 -5s-31.167 3.33301 -37.5 10s-9.5 18.5 -9.5 35.5s0.166992 66.667 0.5 149s0.5 155.833 0.5 220.5c-44 -91.333 -95 -228.666 -153 -411.999
c-8 -2 -20.5 -2.66699 -37.5 -2s-28.5 7 -34.5 19c-14.667 30 -39 91 -73 183s-63 162.667 -87 212v-255c0 -70 5.33301 -121.667 16 -155c-13.333 -3.33301 -27 -5 -41 -5s-24 3.33301 -30 10s-9 18 -9 34z" />
    <glyph glyph-name="Nsmall" unicode="&#xf76e;" horiz-adv-x="578" 
d="M96 42l0.99707 138.002v156c0 86.667 -5 146 -15 178c12 4 27.333 6 46 6s35 -7.66699 49 -23c26 -26.667 64 -79.334 114 -158.001s94 -153 132 -223c-3.33301 48 -5 113.833 -5 197.5s-2 151.5 -6 203.5c10.667 1.33301 20.334 2 29.001 2c30.667 0 46 -10 46 -30
c0 -2.66699 -0.333008 -13 -1 -31c-3.33301 -54 -5 -101.667 -5 -143v-134c0 -78 1.66699 -138.333 5 -181c-13.333 -1.33301 -23.666 -2 -30.999 -2c-22.667 0 -38.667 6.66699 -48 20c-20 30.667 -57.667 92 -113 184s-100.666 163.667 -135.999 215
c1.33301 -50 2 -123.833 2 -221.5s5.33301 -161.834 16 -192.501c-12 -3.33301 -25.333 -5 -40 -5s-25 3.33301 -31 10s-9 18 -9 34z" />
    <glyph glyph-name="Osmall" unicode="&#xf76f;" horiz-adv-x="606" 
d="M488.5 65c-46.333 -48 -108.333 -72 -186 -72s-139.5 24 -185.5 72s-69 112.5 -69 193.5s23 145.5 69 193.5s107.833 72 185.5 72s139.667 -24 186 -72s69.5 -112.5 69.5 -193.5s-23.167 -145.5 -69.5 -193.5zM478 244c0 85.333 -24.667 148.667 -74 190
c-27.333 23.333 -61 35 -101 35c-54 0 -96.833 -17.667 -128.5 -53s-47.5 -80.333 -47.5 -135c0 -89.333 24.333 -155.333 73 -198c27.333 -24 61.333 -36 102 -36c56 0 99.333 18.167 130 54.5s46 83.833 46 142.5z" />
    <glyph glyph-name="Psmall" unicode="&#xf770;" horiz-adv-x="457" 
d="M165 256c21.333 -10.667 48 -16.001 80 -16.001s57.667 9.83301 77 29.5s29 49.334 29 89.001s-10.833 68.167 -32.5 85.5s-55.5 26 -101.5 26c-2.66699 0 -21 -1 -55 -3c2 -44 3 -94.333 3 -151v-60zM91 41.999l0.999023 138.001v156c0 72 -3.33301 131.667 -10 179
c36 6 77.667 9 125 9c149.333 0 224 -56.667 224 -170c0 -55.333 -16.833 -97.333 -50.5 -126s-71.667 -43 -114 -43s-76.166 8.33301 -101.499 25v-55c0 -68.667 5.33301 -119.334 16 -152.001c-12 -3.33301 -26.833 -5 -44.5 -5s-29.667 3.33301 -36 10s-9.5 18 -9.5 34z
" />
    <glyph glyph-name="Qsmall" unicode="&#xf771;" horiz-adv-x="605" 
d="M431.5 101.5c31 36.333 46.501 84.332 46.501 143.999s-14.5 111.834 -43.5 156.501s-71.833 67 -128.5 67s-100.834 -17.667 -132.501 -53s-47.5 -80.333 -47.5 -135c0 -89.333 24.333 -155.333 73 -198c27.333 -24 61.333 -36 102 -36c56 0 99.5 18.167 130.5 54.5z
M271.001 -7.00098c-69.333 6 -123.832 32.499 -163.499 79.499s-59.5 110.167 -59.5 189.5s22.667 142.833 68 190.5s107.166 71.5 185.499 71.5s140.5 -24 186.5 -72s69 -111.333 69 -190s-20.5 -141.667 -61.5 -189s-96.167 -73.666 -165.5 -78.999
c13.333 -37.333 44 -56 92 -56c25.333 0 46 6 62 18c6 4 14 10 24 18c20.667 -14.667 31 -30 31 -46s-10.667 -28.333 -32 -37s-49.5 -13 -84.5 -13s-67 9.66699 -96 29s-47.5 48 -55.5 86z" />
    <glyph glyph-name="Rsmall" unicode="&#xf772;" horiz-adv-x="496" 
d="M91 42l2.00098 138v156c0 73.333 -3.66699 133 -11 179c36 6 78 9 126 9c149.333 0 224 -52.333 224 -157c0 -41.333 -11.833 -75 -35.5 -101s-55.167 -43.333 -94.5 -52c40.667 -78 69.167 -125.167 85.5 -141.5s33.166 -24.5 50.499 -24.5
c3.33301 0 10.333 0.666992 21 2c4.66699 -9.33301 7 -18 7 -26c0 -20.667 -21.667 -31 -65 -31c-37.333 0 -73.333 27.667 -108 83c-22.667 37.333 -46.334 83.666 -71.001 138.999c-12.667 2.66699 -19 9.33398 -19 20.001c0 6.66699 2.33301 16.667 7 30
c14.667 -3.33301 27.334 -5 38.001 -5c30.667 0 55.667 9.5 75 28.5s29 46.333 29 82s-10.667 61.167 -32 76.5s-54 23 -98 23c-4 0 -24 -1 -60 -3c2.66699 -30.667 4 -83 4 -157v-154c0 -69.333 5 -120.333 15 -153c-11.333 -3.33301 -26 -5 -44 -5
s-30.167 3.33301 -36.5 10s-9.5 18 -9.5 34z" />
    <glyph glyph-name="Ssmall" unicode="&#xf773;" horiz-adv-x="454" 
d="M342 404c-9.33301 18.667 -25.666 34.1641 -48.999 46.4971s-48 18.5 -74 18.5s-48.5 -6.83301 -67.5 -20.5s-28.5 -32.167 -28.5 -55.5s7 -41.5 21 -54.5s31.5 -22.167 52.5 -27.5s43.667 -11.666 68 -18.999s47 -15.166 68 -23.499s38.5 -22.666 52.5 -42.999
s21 -45.5 21 -75.5c0 -54 -18.833 -93.667 -56.5 -119s-81 -38 -130 -38s-90.333 7.33301 -124 22s-50.5 31.5 -50.5 50.5s15 35.833 45 50.5c10.667 -20 29.5 -36.333 56.5 -49s55 -19 84 -19s54.333 7.16699 76 21.5s32.5 34 32.5 59s-9.66699 44.333 -29 58
s-42.833 23.834 -70.5 30.501s-55.334 14.5 -83.001 23.5s-51.167 24.333 -70.5 46s-29 50.167 -29 85.5c0 49.333 17 87 51 113s73.833 39 119.5 39s84.667 -6.5 117 -19.5s48.5 -31.333 48.5 -55s-17 -38.834 -51 -45.501z" />
    <glyph glyph-name="Tsmall" unicode="&#xf774;" horiz-adv-x="418" 
d="M172 42l1.99902 137.999v156c0 30.667 -0.666992 72 -2 124c-78 0 -129.667 -1 -155 -3c-1.33301 3.33301 -2 11.333 -2 24s2.83301 21.334 8.5 26.001s14.834 7 27.501 7l91 1h97c88.667 0 142.667 0.666992 162 2c1.33301 -6.66699 2 -14.667 2 -24
c0 -22 -12 -33 -36 -33h-116l-5 -145v-157c0 -70 5.33301 -121.333 16 -154c-10 -4 -24.333 -6 -43 -6s-31.167 3.33301 -37.5 10s-9.5 18 -9.5 34z" />
    </font>
</defs>
</svg>
