<svg width="100%" height="100%" viewBox="0 0 608 32" data-tags="box-add, storage, inbox, archive, download" xmlns="http://www.w3.org/2000/svg" fill="#000000">
  <path d="M 416.00,32.00L 96.00,32.00 L0.00,128.00l0.00,336.00 c0.00,8.837, 7.163,16.00, 16.00,16.00l 480.00,0.00 c 8.836,0.00, 16.00-7.163, 16.00-16.00L 512.00,128.00 L 416.00,32.00z M 256.00,416.00L 96.00,288.00l 96.00,0.00 l0.00-96.00 l 128.00,0.00 l0.00,96.00 l 96.00,0.00 
	L 256.00,416.00z M 77.255,96.00l 32.00-32.00l 293.489,0.00 l 32.00,32.00L 77.255,96.00 z" transform="scale(0.0625 0.0625)"></path>
	
	<path d="M 90,2L 70,2 L 64,8l0,21 c0,0.552, 0.448,1, 1,1l 30,0 c 0.552,0, 1-0.448, 1-1L 96,8 L 90,2z M 84,20l0,6 L 76,26 l0-6 L 70,20 l 10-8
	l 10,8L 84,20 z M 68.828,6l 2-2l 18.343,0 l 2,2L 68.828,6 z"></path>
	
	<path d="M 159.008,27.231L 151.428,20.784c-0.784-0.705-1.622-1.029-2.299-0.998C 150.919,17.691, 152,14.972, 152,12
		C 152,5.373, 146.627,0, 140,0C 133.373,0, 128,5.373, 128,12c0,6.627, 5.373,12, 12,12c 2.972,0, 5.691-1.081, 7.787-2.87
		c-0.031,0.677, 0.292,1.515, 0.998,2.299l 6.447,7.58c 1.104,1.226, 2.907,1.33, 4.007,0.23S 160.235,28.335, 159.008,27.231
		z M 140,20c-4.418,0-8-3.582-8-8S 135.582,4, 140,4s 8,3.582, 8,8S 144.418,20, 140,20zM 142,6L 138,6L 138,10L 134,10L 134,14L 138,14L 138,18L 142,18L 142,14L 146,14L 146,10L 142,10 	z"></path><path d="M 206,22L 210,22L 210,26L 206,26zM 214,8 C 215.105,8 216,8.895 216,10 L 216,16 L 210,20 L 206,20 L 206,18 L 212,14 L 212,12 L 202,12 L 202,8 L 214,8 ZM 208,3 C 204.528,3 201.263,4.352 198.808,6.808 C 196.352,9.263 195,12.528 195,16 C 195,19.472 196.352,22.737 198.808,25.192 C 201.263,27.648 204.528,29 208,29 C 211.472,29 214.737,27.648 217.192,25.192 C 219.648,22.737 221,19.472 221,16 C 221,12.528 219.648,9.263 217.192,6.808 C 214.737,4.352 211.472,3 208,3 Z M 208,0 L 208,0 C 216.837,0 224,7.163 224,16 C 224,24.837 216.837,32 208,32 C 199.163,32 192,24.837 192,16 C 192,7.163 199.163,0 208,0 Z"></path><path d="M 272,0C 263.163,0, 256,7.163, 256,16s 7.163,16, 16,16s 16-7.163, 16-16S 280.837,0, 272,0z M 280,10.828L 274.828,16
	L 280,21.172L 280,24 l-2.829,0 L 272,18.828L 266.828,24L 264,24 l0-2.829 L 269.172,16L 264,10.828L 264,8 l 2.828,0 L 272,13.172L 277.172,8L 280,8 
	L 280,10.828 z"></path><path d="M 326,4L 346,16L 326,28 z"></path><path d="M 411.814,28.814c-0.384,0-0.768-0.146-1.061-0.439c-0.586-0.586-0.586-1.536,0-2.121
		C 413.492,23.514, 415,19.873, 415,16c0-3.873-1.508-7.514-4.247-10.253c-0.586-0.586-0.586-1.536,0-2.121
		c 0.586-0.586, 1.536-0.586, 2.121,0c 3.305,3.305, 5.126,7.7, 5.126,12.374c0,4.674-1.82,9.069-5.126,12.374
		C 412.581,28.667, 412.198,28.814, 411.814,28.814zM 406.485,25.985c-0.384,0-0.768-0.146-1.061-0.439c-0.586-0.586-0.586-1.536,0-2.121
		c 4.094-4.094, 4.094-10.755,0-14.849c-0.586-0.586-0.586-1.536,0-2.121c 0.586-0.586, 1.536-0.586, 2.121,0
		C 410.096,9.004, 411.5,12.394, 411.5,16c0,3.606-1.404,6.996-3.954,9.546C 407.253,25.839, 406.869,25.985, 406.485,25.985zM 401.157,23.157c-0.384,0-0.768-0.146-1.061-0.439c-0.586-0.586-0.586-1.536,0-2.121
		c 2.534-2.534, 2.534-6.658,0-9.192c-0.586-0.586-0.586-1.536,0-2.121c 0.586-0.586, 1.536-0.586, 2.121,0
		c 3.704,3.704, 3.704,9.731,0,13.435C 401.925,23.010, 401.541,23.157, 401.157,23.157zM 396.542,2.458 C 397.344,1.656 398,1.928 398,3.063 L 398,28.938 C 398,30.072 397.344,30.344 396.542,29.542 L 389,22 L 384,22 L 384,10 L 389,10 L 396.542,2.458 Z"></path><path d="M 462,18L 460,16L 454,22L 460,28L 462,26L 458,22 	zM 466,26L 468,28L 474,22L 468,16L 466,18L 470,22 	zM 476.232,6.232l-4.465-4.464C 470.796,0.795, 468.875,0, 467.5,0L 452.5,0 C 451.125,0, 450,1.125, 450,2.5l0,27 c0,1.375, 1.125,2.5, 2.5,2.5l 23,0 
		c 1.375,0, 2.5-1.125, 2.5-2.5L 478,10.5 C 478,9.125, 477.204,7.204, 476.232,6.232z M 474.818,7.646c 0.098,0.098, 0.195,0.218, 0.29,0.354L 470,8 L 470,2.892 
		c 0.136,0.095, 0.256,0.192, 0.354,0.29L 474.818,7.646z M 476,29.5c0,0.271-0.229,0.5-0.5,0.5L 452.5,30 c-0.271,0-0.5-0.229-0.5-0.5L 452,2.5 
		c0-0.271, 0.229-0.5, 0.5-0.5l 15,0 c 0.151,0, 0.32,0.019, 0.5,0.053L 468,10 l 7.947,0 c 0.034,0.18, 0.053,0.349, 0.053,0.5L 476,29.5 z"></path><path d="M 528,0C 519.164,0, 512,7.164, 512,16s 7.164,16, 16,16s 16-7.164, 16-16S 536.836,0, 528,0z M 536,18l-6,0 l0,6 l-4,0 l0-6 L 520,18 l0-4 l 6,0 
		L 526,8 l 4,0 l0,6 l 6,0 L 536,18 z"></path><path d="M 592,0C 583.164,0, 576,7.164, 576,16s 7.164,16, 16,16s 16-7.164, 16-16S 600.836,0, 592,0z M 600,18L 584,18 l0-4 l 16,0 L 600,18 z"></path></svg>